<?xml version="1.0" encoding="UTF-8"?>
<svg version="1.1" viewBox="0 0 3000 3000" xmlns="http://www.w3.org/2000/svg">
<g fill="none" stroke="#000">
                <path d="M1586.6025403784438 1250.0 L 1500.0 1300.0 v 100 L 1586.6025403784438 1450.0 L 1673.2050807568876 1400.0 v -100 L 1586.6025403784438 1250.0 "/>
                <circle cx="1586.6025403784438" cy="1350.0" r='70.0' stroke='black' fill="none" stroke-width="1"/>
    </g>
    <g fill="none" stroke="#000">
                <path d="M1759.8076211353316 1250.0 L 1673.2050807568878 1300.0 v 100 L 1759.8076211353316 1450.0 L 1846.4101615137754 1400.0 v -100 L 1759.8076211353316 1250.0 "/>
                <circle cx="1759.8076211353316" cy="1350.0" r='70.0' stroke='black' fill="none" stroke-width="1"/>
    </g>
    <g fill="none" stroke="#000">
                <path d="M1500.0 1400.0 L 1413.3974596215562 1450.0 v 100 L 1500.0 1600.0 L 1586.6025403784438 1550.0 v -100 L 1500.0 1400.0 "/>
                <circle cx="1500.0" cy="1500.0" r='70.0' stroke='black' fill="none" stroke-width="1"/>
    </g>
    <g fill="none" stroke="#000">
                <path d="M1413.3974596215562 1550.0 L 1326.7949192431124 1600.0 v 100 L 1413.3974596215562 1750.0 L 1500.0 1700.0 v -100 L 1413.3974596215562 1550.0 "/>
                <circle cx="1413.3974596215562" cy="1650.0" r='70.0' stroke='black' fill="none" stroke-width="1"/>
    </g>
    <g fill="none" stroke="#000">
                <path d="M1326.7949192431122 1700.0 L 1240.1923788646684 1750.0 v 100 L 1326.7949192431122 1900.0 L 1413.397459621556 1850.0 v -100 L 1326.7949192431122 1700.0 "/>
                <circle cx="1326.7949192431122" cy="1800.0" r='70.0' stroke='black' fill="none" stroke-width="1"/>
    </g>
    <g fill="none" stroke="#000">
                <path d="M1066.9872981077806 1850.0 L 980.3847577293367 1900.0 v 100 L 1066.9872981077806 2050.0 L 1153.5898384862244 2000.0 v -100 L 1066.9872981077806 1850.0 "/>
                <circle cx="1066.9872981077806" cy="1950.0" r='70.0' stroke='black' fill="none" stroke-width="1"/>
    </g>
    <g fill="none" stroke="#000">
                <path d="M1240.1923788646684 1850.0 L 1153.5898384862246 1900.0 v 100 L 1240.1923788646684 2050.0 L 1326.7949192431122 2000.0 v -100 L 1240.1923788646684 1850.0 "/>
                <circle cx="1240.1923788646684" cy="1950.0" r='70.0' stroke='black' fill="none" stroke-width="1"/>
    </g>
    <g fill="none" stroke="#000">
                <path d="M1500.0 1100.0 L 1413.3974596215562 1150.0 v 100 L 1500.0 1300.0 L 1586.6025403784438 1250.0 v -100 L 1500.0 1100.0 "/>
    </g>
    <g fill="none" stroke="#000">
                <path d="M1586.6025403784438 1250.0 L 1500.0 1300.0 v 100 L 1586.6025403784438 1450.0 L 1673.2050807568876 1400.0 v -100 L 1586.6025403784438 1250.0 "/>
                <circle cx="1586.6025403784438" cy="1350.0" r='70.0' stroke='black' fill="none" stroke-width="1"/>
    </g>
    <g fill="none" stroke="#000">
                <path d="M1759.8076211353316 1250.0 L 1673.2050807568878 1300.0 v 100 L 1759.8076211353316 1450.0 L 1846.4101615137754 1400.0 v -100 L 1759.8076211353316 1250.0 "/>
                <circle cx="1759.8076211353316" cy="1350.0" r='70.0' stroke='black' fill="none" stroke-width="1"/>
    </g>
    <g fill="none" stroke="#000">
                <path d="M1500.0 1400.0 L 1413.3974596215562 1450.0 v 100 L 1500.0 1600.0 L 1586.6025403784438 1550.0 v -100 L 1500.0 1400.0 "/>
                <circle cx="1500.0" cy="1500.0" r='70.0' stroke='black' fill="none" stroke-width="1"/>
    </g>
    <g fill="none" stroke="#000">
                <path d="M1413.3974596215562 1550.0 L 1326.7949192431124 1600.0 v 100 L 1413.3974596215562 1750.0 L 1500.0 1700.0 v -100 L 1413.3974596215562 1550.0 "/>
                <circle cx="1413.3974596215562" cy="1650.0" r='70.0' stroke='black' fill="none" stroke-width="1"/>
    </g>
    <g fill="none" stroke="#000">
                <path d="M1326.7949192431122 1700.0 L 1240.1923788646684 1750.0 v 100 L 1326.7949192431122 1900.0 L 1413.397459621556 1850.0 v -100 L 1326.7949192431122 1700.0 "/>
                <circle cx="1326.7949192431122" cy="1800.0" r='70.0' stroke='black' fill="none" stroke-width="1"/>
    </g>
    <g fill="none" stroke="#000">
                <path d="M1066.9872981077806 1850.0 L 980.3847577293367 1900.0 v 100 L 1066.9872981077806 2050.0 L 1153.5898384862244 2000.0 v -100 L 1066.9872981077806 1850.0 "/>
                <circle cx="1066.9872981077806" cy="1950.0" r='70.0' stroke='black' fill="none" stroke-width="1"/>
    </g>
    <g fill="none" stroke="#000">
                <path d="M1240.1923788646684 1850.0 L 1153.5898384862246 1900.0 v 100 L 1240.1923788646684 2050.0 L 1326.7949192431122 2000.0 v -100 L 1240.1923788646684 1850.0 "/>
                <circle cx="1240.1923788646684" cy="1950.0" r='70.0' stroke='black' fill="none" stroke-width="1"/>
    </g>
    <g fill="none" stroke="#000">
                <path d="M1500.0 1100.0 L 1413.3974596215562 1150.0 v 100 L 1500.0 1300.0 L 1586.6025403784438 1250.0 v -100 L 1500.0 1100.0 "/>
    </g>
    <g fill="none" stroke="#000">
                <path d="M1586.6025403784438 1250.0 L 1500.0 1300.0 v 100 L 1586.6025403784438 1450.0 L 1673.2050807568876 1400.0 v -100 L 1586.6025403784438 1250.0 "/>
                <circle cx="1586.6025403784438" cy="1350.0" r='70.0' stroke='black' fill="none" stroke-width="1"/>
    </g>
    <g fill="none" stroke="#000">
                <path d="M1759.8076211353316 1250.0 L 1673.2050807568878 1300.0 v 100 L 1759.8076211353316 1450.0 L 1846.4101615137754 1400.0 v -100 L 1759.8076211353316 1250.0 "/>
                <circle cx="1759.8076211353316" cy="1350.0" r='70.0' stroke='black' fill="none" stroke-width="1"/>
    </g>
    <g fill="none" stroke="#000">
                <path d="M1500.0 1400.0 L 1413.3974596215562 1450.0 v 100 L 1500.0 1600.0 L 1586.6025403784438 1550.0 v -100 L 1500.0 1400.0 "/>
                <circle cx="1500.0" cy="1500.0" r='70.0' stroke='black' fill="none" stroke-width="1"/>
    </g>
    <g fill="none" stroke="#000">
                <path d="M1413.3974596215562 1550.0 L 1326.7949192431124 1600.0 v 100 L 1413.3974596215562 1750.0 L 1500.0 1700.0 v -100 L 1413.3974596215562 1550.0 "/>
                <circle cx="1413.3974596215562" cy="1650.0" r='70.0' stroke='black' fill="none" stroke-width="1"/>
    </g>
    <g fill="none" stroke="#000">
                <path d="M980.3847577293368 1700.0 L 893.7822173508929 1750.0 v 100 L 980.3847577293368 1900.0 L 1066.9872981077806 1850.0 v -100 L 980.3847577293368 1700.0 "/>
    </g>
    <g fill="none" stroke="#000">
                <path d="M1326.7949192431122 1700.0 L 1240.1923788646684 1750.0 v 100 L 1326.7949192431122 1900.0 L 1413.397459621556 1850.0 v -100 L 1326.7949192431122 1700.0 "/>
                <circle cx="1326.7949192431122" cy="1800.0" r='70.0' stroke='black' fill="none" stroke-width="1"/>
    </g>
    <g fill="none" stroke="#000">
                <path d="M1066.9872981077806 1850.0 L 980.3847577293367 1900.0 v 100 L 1066.9872981077806 2050.0 L 1153.5898384862244 2000.0 v -100 L 1066.9872981077806 1850.0 "/>
                <circle cx="1066.9872981077806" cy="1950.0" r='70.0' stroke='black' fill="none" stroke-width="1"/>
    </g>
    <g fill="none" stroke="#000">
                <path d="M1240.1923788646684 1850.0 L 1153.5898384862246 1900.0 v 100 L 1240.1923788646684 2050.0 L 1326.7949192431122 2000.0 v -100 L 1240.1923788646684 1850.0 "/>
                <circle cx="1240.1923788646684" cy="1950.0" r='70.0' stroke='black' fill="none" stroke-width="1"/>
    </g>
    <g fill="none" stroke="#000">
                <path d="M1500.0 1100.0 L 1413.3974596215562 1150.0 v 100 L 1500.0 1300.0 L 1586.6025403784438 1250.0 v -100 L 1500.0 1100.0 "/>
    </g>
    <g fill="none" stroke="#000">
                <path d="M1846.4101615137754 1100.0 L 1759.8076211353316 1150.0 v 100 L 1846.4101615137754 1300.0 L 1933.0127018922192 1250.0 v -100 L 1846.4101615137754 1100.0 "/>
    </g>
    <g fill="none" stroke="#000">
                <path d="M1586.6025403784438 1250.0 L 1500.0 1300.0 v 100 L 1586.6025403784438 1450.0 L 1673.2050807568876 1400.0 v -100 L 1586.6025403784438 1250.0 "/>
                <circle cx="1586.6025403784438" cy="1350.0" r='70.0' stroke='black' fill="none" stroke-width="1"/>
    </g>
    <g fill="none" stroke="#000">
                <path d="M1759.8076211353316 1250.0 L 1673.2050807568878 1300.0 v 100 L 1759.8076211353316 1450.0 L 1846.4101615137754 1400.0 v -100 L 1759.8076211353316 1250.0 "/>
                <circle cx="1759.8076211353316" cy="1350.0" r='70.0' stroke='black' fill="none" stroke-width="1"/>
    </g>
    <g fill="none" stroke="#000">
                <path d="M1500.0 1400.0 L 1413.3974596215562 1450.0 v 100 L 1500.0 1600.0 L 1586.6025403784438 1550.0 v -100 L 1500.0 1400.0 "/>
                <circle cx="1500.0" cy="1500.0" r='70.0' stroke='black' fill="none" stroke-width="1"/>
    </g>
    <g fill="none" stroke="#000">
                <path d="M1413.3974596215562 1550.0 L 1326.7949192431124 1600.0 v 100 L 1413.3974596215562 1750.0 L 1500.0 1700.0 v -100 L 1413.3974596215562 1550.0 "/>
                <circle cx="1413.3974596215562" cy="1650.0" r='70.0' stroke='black' fill="none" stroke-width="1"/>
    </g>
    <g fill="none" stroke="#000">
                <path d="M980.3847577293368 1700.0 L 893.7822173508929 1750.0 v 100 L 980.3847577293368 1900.0 L 1066.9872981077806 1850.0 v -100 L 980.3847577293368 1700.0 "/>
    </g>
    <g fill="none" stroke="#000">
                <path d="M1326.7949192431122 1700.0 L 1240.1923788646684 1750.0 v 100 L 1326.7949192431122 1900.0 L 1413.397459621556 1850.0 v -100 L 1326.7949192431122 1700.0 "/>
                <circle cx="1326.7949192431122" cy="1800.0" r='70.0' stroke='black' fill="none" stroke-width="1"/>
    </g>
    <g fill="none" stroke="#000">
                <path d="M1066.9872981077806 1850.0 L 980.3847577293367 1900.0 v 100 L 1066.9872981077806 2050.0 L 1153.5898384862244 2000.0 v -100 L 1066.9872981077806 1850.0 "/>
                <circle cx="1066.9872981077806" cy="1950.0" r='70.0' stroke='black' fill="none" stroke-width="1"/>
    </g>
    <g fill="none" stroke="#000">
                <path d="M1240.1923788646684 1850.0 L 1153.5898384862246 1900.0 v 100 L 1240.1923788646684 2050.0 L 1326.7949192431122 2000.0 v -100 L 1240.1923788646684 1850.0 "/>
                <circle cx="1240.1923788646684" cy="1950.0" r='70.0' stroke='black' fill="none" stroke-width="1"/>
    </g>
    <g fill="none" stroke="#000">
                <path d="M1500.0 1100.0 L 1413.3974596215562 1150.0 v 100 L 1500.0 1300.0 L 1586.6025403784438 1250.0 v -100 L 1500.0 1100.0 "/>
    </g>
    <g fill="none" stroke="#000">
                <path d="M1846.4101615137754 1100.0 L 1759.8076211353316 1150.0 v 100 L 1846.4101615137754 1300.0 L 1933.0127018922192 1250.0 v -100 L 1846.4101615137754 1100.0 "/>
    </g>
    <g fill="none" stroke="#000">
                <path d="M1586.6025403784438 1250.0 L 1500.0 1300.0 v 100 L 1586.6025403784438 1450.0 L 1673.2050807568876 1400.0 v -100 L 1586.6025403784438 1250.0 "/>
                <circle cx="1586.6025403784438" cy="1350.0" r='70.0' stroke='black' fill="none" stroke-width="1"/>
    </g>
    <g fill="none" stroke="#000">
                <path d="M1759.8076211353316 1250.0 L 1673.2050807568878 1300.0 v 100 L 1759.8076211353316 1450.0 L 1846.4101615137754 1400.0 v -100 L 1759.8076211353316 1250.0 "/>
                <circle cx="1759.8076211353316" cy="1350.0" r='70.0' stroke='black' fill="none" stroke-width="1"/>
    </g>
    <g fill="none" stroke="#000">
                <path d="M1500.0 1400.0 L 1413.3974596215562 1450.0 v 100 L 1500.0 1600.0 L 1586.6025403784438 1550.0 v -100 L 1500.0 1400.0 "/>
                <circle cx="1500.0" cy="1500.0" r='70.0' stroke='black' fill="none" stroke-width="1"/>
    </g>
    <g fill="none" stroke="#000">
                <path d="M1413.3974596215562 1550.0 L 1326.7949192431124 1600.0 v 100 L 1413.3974596215562 1750.0 L 1500.0 1700.0 v -100 L 1413.3974596215562 1550.0 "/>
                <circle cx="1413.3974596215562" cy="1650.0" r='70.0' stroke='black' fill="none" stroke-width="1"/>
    </g>
    <g fill="none" stroke="#000">
                <path d="M980.3847577293368 1700.0 L 893.7822173508929 1750.0 v 100 L 980.3847577293368 1900.0 L 1066.9872981077806 1850.0 v -100 L 980.3847577293368 1700.0 "/>
    </g>
    <g fill="none" stroke="#000">
                <path d="M1326.7949192431122 1700.0 L 1240.1923788646684 1750.0 v 100 L 1326.7949192431122 1900.0 L 1413.397459621556 1850.0 v -100 L 1326.7949192431122 1700.0 "/>
                <circle cx="1326.7949192431122" cy="1800.0" r='70.0' stroke='black' fill="none" stroke-width="1"/>
    </g>
    <g fill="none" stroke="#000">
                <path d="M1066.9872981077806 1850.0 L 980.3847577293367 1900.0 v 100 L 1066.9872981077806 2050.0 L 1153.5898384862244 2000.0 v -100 L 1066.9872981077806 1850.0 "/>
                <circle cx="1066.9872981077806" cy="1950.0" r='70.0' stroke='black' fill="none" stroke-width="1"/>
    </g>
    <g fill="none" stroke="#000">
                <path d="M1240.1923788646684 1850.0 L 1153.5898384862246 1900.0 v 100 L 1240.1923788646684 2050.0 L 1326.7949192431122 2000.0 v -100 L 1240.1923788646684 1850.0 "/>
                <circle cx="1240.1923788646684" cy="1950.0" r='70.0' stroke='black' fill="none" stroke-width="1"/>
    </g>
    <g fill="none" stroke="#000">
                <path d="M1500.0 1100.0 L 1413.3974596215562 1150.0 v 100 L 1500.0 1300.0 L 1586.6025403784438 1250.0 v -100 L 1500.0 1100.0 "/>
    </g>
    <g fill="none" stroke="#000">
                <path d="M1846.4101615137754 1100.0 L 1759.8076211353316 1150.0 v 100 L 1846.4101615137754 1300.0 L 1933.0127018922192 1250.0 v -100 L 1846.4101615137754 1100.0 "/>
    </g>
    <g fill="none" stroke="#000">
                <path d="M1586.6025403784438 1250.0 L 1500.0 1300.0 v 100 L 1586.6025403784438 1450.0 L 1673.2050807568876 1400.0 v -100 L 1586.6025403784438 1250.0 "/>
                <circle cx="1586.6025403784438" cy="1350.0" r='70.0' stroke='black' fill="none" stroke-width="1"/>
    </g>
    <g fill="none" stroke="#000">
                <path d="M1759.8076211353316 1250.0 L 1673.2050807568878 1300.0 v 100 L 1759.8076211353316 1450.0 L 1846.4101615137754 1400.0 v -100 L 1759.8076211353316 1250.0 "/>
                <circle cx="1759.8076211353316" cy="1350.0" r='70.0' stroke='black' fill="none" stroke-width="1"/>
    </g>
    <g fill="none" stroke="#000">
                <path d="M1500.0 1400.0 L 1413.3974596215562 1450.0 v 100 L 1500.0 1600.0 L 1586.6025403784438 1550.0 v -100 L 1500.0 1400.0 "/>
                <circle cx="1500.0" cy="1500.0" r='70.0' stroke='black' fill="none" stroke-width="1"/>
    </g>
    <g fill="none" stroke="#000">
                <path d="M1413.3974596215562 1550.0 L 1326.7949192431124 1600.0 v 100 L 1413.3974596215562 1750.0 L 1500.0 1700.0 v -100 L 1413.3974596215562 1550.0 "/>
                <circle cx="1413.3974596215562" cy="1650.0" r='70.0' stroke='black' fill="none" stroke-width="1"/>
    </g>
    <g fill="none" stroke="#000">
                <path d="M980.3847577293368 1700.0 L 893.7822173508929 1750.0 v 100 L 980.3847577293368 1900.0 L 1066.9872981077806 1850.0 v -100 L 980.3847577293368 1700.0 "/>
    </g>
    <g fill="none" stroke="#000">
                <path d="M1326.7949192431122 1700.0 L 1240.1923788646684 1750.0 v 100 L 1326.7949192431122 1900.0 L 1413.397459621556 1850.0 v -100 L 1326.7949192431122 1700.0 "/>
                <circle cx="1326.7949192431122" cy="1800.0" r='70.0' stroke='black' fill="none" stroke-width="1"/>
    </g>
    <g fill="none" stroke="#000">
                <path d="M1066.9872981077806 1850.0 L 980.3847577293367 1900.0 v 100 L 1066.9872981077806 2050.0 L 1153.5898384862244 2000.0 v -100 L 1066.9872981077806 1850.0 "/>
                <circle cx="1066.9872981077806" cy="1950.0" r='70.0' stroke='black' fill="none" stroke-width="1"/>
    </g>
    <g fill="none" stroke="#000">
                <path d="M1240.1923788646684 1850.0 L 1153.5898384862246 1900.0 v 100 L 1240.1923788646684 2050.0 L 1326.7949192431122 2000.0 v -100 L 1240.1923788646684 1850.0 "/>
                <circle cx="1240.1923788646684" cy="1950.0" r='70.0' stroke='black' fill="none" stroke-width="1"/>
    </g>
    <g fill="none" stroke="#000">
                <path d="M1500.0 1100.0 L 1413.3974596215562 1150.0 v 100 L 1500.0 1300.0 L 1586.6025403784438 1250.0 v -100 L 1500.0 1100.0 "/>
    </g>
    <g fill="none" stroke="#000">
                <path d="M1846.4101615137754 1100.0 L 1759.8076211353316 1150.0 v 100 L 1846.4101615137754 1300.0 L 1933.0127018922192 1250.0 v -100 L 1846.4101615137754 1100.0 "/>
    </g>
    <g fill="none" stroke="#000">
                <path d="M1586.6025403784438 1250.0 L 1500.0 1300.0 v 100 L 1586.6025403784438 1450.0 L 1673.2050807568876 1400.0 v -100 L 1586.6025403784438 1250.0 "/>
                <circle cx="1586.6025403784438" cy="1350.0" r='70.0' stroke='black' fill="none" stroke-width="1"/>
    </g>
    <g fill="none" stroke="#000">
                <path d="M1759.8076211353316 1250.0 L 1673.2050807568878 1300.0 v 100 L 1759.8076211353316 1450.0 L 1846.4101615137754 1400.0 v -100 L 1759.8076211353316 1250.0 "/>
                <circle cx="1759.8076211353316" cy="1350.0" r='70.0' stroke='black' fill="none" stroke-width="1"/>
    </g>
    <g fill="none" stroke="#000">
                <path d="M1500.0 1400.0 L 1413.3974596215562 1450.0 v 100 L 1500.0 1600.0 L 1586.6025403784438 1550.0 v -100 L 1500.0 1400.0 "/>
                <circle cx="1500.0" cy="1500.0" r='70.0' stroke='black' fill="none" stroke-width="1"/>
    </g>
    <g fill="none" stroke="#000">
                <path d="M1413.3974596215562 1550.0 L 1326.7949192431124 1600.0 v 100 L 1413.3974596215562 1750.0 L 1500.0 1700.0 v -100 L 1413.3974596215562 1550.0 "/>
                <circle cx="1413.3974596215562" cy="1650.0" r='70.0' stroke='black' fill="none" stroke-width="1"/>
    </g>
    <g fill="none" stroke="#000">
                <path d="M980.3847577293368 1700.0 L 893.7822173508929 1750.0 v 100 L 980.3847577293368 1900.0 L 1066.9872981077806 1850.0 v -100 L 980.3847577293368 1700.0 "/>
    </g>
    <g fill="none" stroke="#000">
                <path d="M1326.7949192431122 1700.0 L 1240.1923788646684 1750.0 v 100 L 1326.7949192431122 1900.0 L 1413.397459621556 1850.0 v -100 L 1326.7949192431122 1700.0 "/>
                <circle cx="1326.7949192431122" cy="1800.0" r='70.0' stroke='black' fill="none" stroke-width="1"/>
    </g>
    <g fill="none" stroke="#000">
                <path d="M1066.9872981077806 1850.0 L 980.3847577293367 1900.0 v 100 L 1066.9872981077806 2050.0 L 1153.5898384862244 2000.0 v -100 L 1066.9872981077806 1850.0 "/>
                <circle cx="1066.9872981077806" cy="1950.0" r='70.0' stroke='black' fill="none" stroke-width="1"/>
    </g>
    <g fill="none" stroke="#000">
                <path d="M1240.1923788646684 1850.0 L 1153.5898384862246 1900.0 v 100 L 1240.1923788646684 2050.0 L 1326.7949192431122 2000.0 v -100 L 1240.1923788646684 1850.0 "/>
                <circle cx="1240.1923788646684" cy="1950.0" r='70.0' stroke='black' fill="none" stroke-width="1"/>
    </g>
    <g fill="none" stroke="#000">
                <path d="M1500.0 1100.0 L 1413.3974596215562 1150.0 v 100 L 1500.0 1300.0 L 1586.6025403784438 1250.0 v -100 L 1500.0 1100.0 "/>
    </g>
    <g fill="none" stroke="#000">
                <path d="M1846.4101615137754 1100.0 L 1759.8076211353316 1150.0 v 100 L 1846.4101615137754 1300.0 L 1933.0127018922192 1250.0 v -100 L 1846.4101615137754 1100.0 "/>
    </g>
    <g fill="none" stroke="#000">
                <path d="M1586.6025403784438 1250.0 L 1500.0 1300.0 v 100 L 1586.6025403784438 1450.0 L 1673.2050807568876 1400.0 v -100 L 1586.6025403784438 1250.0 "/>
                <circle cx="1586.6025403784438" cy="1350.0" r='70.0' stroke='black' fill="none" stroke-width="1"/>
    </g>
    <g fill="none" stroke="#000">
                <path d="M1759.8076211353316 1250.0 L 1673.2050807568878 1300.0 v 100 L 1759.8076211353316 1450.0 L 1846.4101615137754 1400.0 v -100 L 1759.8076211353316 1250.0 "/>
                <circle cx="1759.8076211353316" cy="1350.0" r='70.0' stroke='black' fill="none" stroke-width="1"/>
    </g>
    <g fill="none" stroke="#000">
                <path d="M1500.0 1400.0 L 1413.3974596215562 1450.0 v 100 L 1500.0 1600.0 L 1586.6025403784438 1550.0 v -100 L 1500.0 1400.0 "/>
                <circle cx="1500.0" cy="1500.0" r='70.0' stroke='black' fill="none" stroke-width="1"/>
    </g>
    <g fill="none" stroke="#000">
                <path d="M1413.3974596215562 1550.0 L 1326.7949192431124 1600.0 v 100 L 1413.3974596215562 1750.0 L 1500.0 1700.0 v -100 L 1413.3974596215562 1550.0 "/>
                <circle cx="1413.3974596215562" cy="1650.0" r='70.0' stroke='black' fill="none" stroke-width="1"/>
    </g>
    <g fill="none" stroke="#000">
                <path d="M980.3847577293368 1700.0 L 893.7822173508929 1750.0 v 100 L 980.3847577293368 1900.0 L 1066.9872981077806 1850.0 v -100 L 980.3847577293368 1700.0 "/>
    </g>
    <g fill="none" stroke="#000">
                <path d="M1326.7949192431122 1700.0 L 1240.1923788646684 1750.0 v 100 L 1326.7949192431122 1900.0 L 1413.397459621556 1850.0 v -100 L 1326.7949192431122 1700.0 "/>
                <circle cx="1326.7949192431122" cy="1800.0" r='70.0' stroke='black' fill="none" stroke-width="1"/>
    </g>
    <g fill="none" stroke="#000">
                <path d="M1066.9872981077806 1850.0 L 980.3847577293367 1900.0 v 100 L 1066.9872981077806 2050.0 L 1153.5898384862244 2000.0 v -100 L 1066.9872981077806 1850.0 "/>
                <circle cx="1066.9872981077806" cy="1950.0" r='70.0' stroke='black' fill="none" stroke-width="1"/>
    </g>
    <g fill="none" stroke="#000">
                <path d="M1240.1923788646684 1850.0 L 1153.5898384862246 1900.0 v 100 L 1240.1923788646684 2050.0 L 1326.7949192431122 2000.0 v -100 L 1240.1923788646684 1850.0 "/>
                <circle cx="1240.1923788646684" cy="1950.0" r='70.0' stroke='black' fill="none" stroke-width="1"/>
    </g>
    <g fill="none" stroke="#000">
                <path d="M1500.0 1100.0 L 1413.3974596215562 1150.0 v 100 L 1500.0 1300.0 L 1586.6025403784438 1250.0 v -100 L 1500.0 1100.0 "/>
    </g>
    <g fill="none" stroke="#000">
                <path d="M1846.4101615137754 1100.0 L 1759.8076211353316 1150.0 v 100 L 1846.4101615137754 1300.0 L 1933.0127018922192 1250.0 v -100 L 1846.4101615137754 1100.0 "/>
    </g>
    <g fill="none" stroke="#000">
                <path d="M1586.6025403784438 1250.0 L 1500.0 1300.0 v 100 L 1586.6025403784438 1450.0 L 1673.2050807568876 1400.0 v -100 L 1586.6025403784438 1250.0 "/>
                <circle cx="1586.6025403784438" cy="1350.0" r='70.0' stroke='black' fill="none" stroke-width="1"/>
    </g>
    <g fill="none" stroke="#000">
                <path d="M1759.8076211353316 1250.0 L 1673.2050807568878 1300.0 v 100 L 1759.8076211353316 1450.0 L 1846.4101615137754 1400.0 v -100 L 1759.8076211353316 1250.0 "/>
                <circle cx="1759.8076211353316" cy="1350.0" r='70.0' stroke='black' fill="none" stroke-width="1"/>
    </g>
    <g fill="none" stroke="#000">
                <path d="M1500.0 1400.0 L 1413.3974596215562 1450.0 v 100 L 1500.0 1600.0 L 1586.6025403784438 1550.0 v -100 L 1500.0 1400.0 "/>
                <circle cx="1500.0" cy="1500.0" r='70.0' stroke='black' fill="none" stroke-width="1"/>
    </g>
    <g fill="none" stroke="#000">
                <path d="M1413.3974596215562 1550.0 L 1326.7949192431124 1600.0 v 100 L 1413.3974596215562 1750.0 L 1500.0 1700.0 v -100 L 1413.3974596215562 1550.0 "/>
                <circle cx="1413.3974596215562" cy="1650.0" r='70.0' stroke='black' fill="none" stroke-width="1"/>
    </g>
    <g fill="none" stroke="#000">
                <path d="M980.3847577293368 1700.0 L 893.7822173508929 1750.0 v 100 L 980.3847577293368 1900.0 L 1066.9872981077806 1850.0 v -100 L 980.3847577293368 1700.0 "/>
    </g>
    <g fill="none" stroke="#000">
                <path d="M1326.7949192431122 1700.0 L 1240.1923788646684 1750.0 v 100 L 1326.7949192431122 1900.0 L 1413.397459621556 1850.0 v -100 L 1326.7949192431122 1700.0 "/>
                <circle cx="1326.7949192431122" cy="1800.0" r='70.0' stroke='black' fill="none" stroke-width="1"/>
    </g>
    <g fill="none" stroke="#000">
                <path d="M1066.9872981077806 1850.0 L 980.3847577293367 1900.0 v 100 L 1066.9872981077806 2050.0 L 1153.5898384862244 2000.0 v -100 L 1066.9872981077806 1850.0 "/>
                <circle cx="1066.9872981077806" cy="1950.0" r='70.0' stroke='black' fill="none" stroke-width="1"/>
    </g>
    <g fill="none" stroke="#000">
                <path d="M1240.1923788646684 1850.0 L 1153.5898384862246 1900.0 v 100 L 1240.1923788646684 2050.0 L 1326.7949192431122 2000.0 v -100 L 1240.1923788646684 1850.0 "/>
                <circle cx="1240.1923788646684" cy="1950.0" r='70.0' stroke='black' fill="none" stroke-width="1"/>
    </g>
    <g fill="none" stroke="#000" transform='rotate(-210 1837.518439336333 1484.5990854218824)'>
                <path d="M1837.518439336333 1399.5340045866783 L 1756.6167398988382 1458.3125298159257  L 1787.518439336333 1553.418181445441 L 1887.518439336333 1553.418181445441  L 1918.4201387738276 1458.3125298159257 L 1837.518439336333 1399.5340045866783"/>
    </g>
    <g fill="none" stroke="#000" transform='rotate(-210 1837.518439336333 1484.5990854218824)'>
                <path d="M1837.518439336333 1399.5340045866783 L 1756.6167398988382 1458.3125298159257  L 1787.518439336333 1553.418181445441 L 1887.518439336333 1553.418181445441  L 1918.4201387738276 1458.3125298159257 L 1837.518439336333 1399.5340045866783"/>
    </g>
    <g fill="none" stroke="#000" transform='rotate(-210 1837.518439336333 1484.5990854218824)'>
                <path d="M1837.518439336333 1399.5340045866783 L 1756.6167398988382 1458.3125298159257  L 1787.518439336333 1553.418181445441 L 1887.518439336333 1553.418181445441  L 1918.4201387738276 1458.3125298159257 L 1837.518439336333 1399.5340045866783"/>
    </g>
    <g fill="none" stroke="#000" transform='rotate(-150 989.2764799067793 2084.5990854218826)'>
                <path d="M989.2764799067793 1999.5340045866785 L 908.3747804692846 2058.3125298159257  L 939.2764799067793 2153.4181814454414 L 1039.2764799067793 2153.4181814454414  L 1070.178179344274 2058.3125298159257 L 989.2764799067793 1999.5340045866785"/>
    </g>
    </svg>
