<?xml version="1.0" encoding="UTF-8"?>
<svg version="1.1" viewBox="0 0 3000 3000" xmlns="http://www.w3.org/2000/svg">
<g fill="none" stroke="#000">
                <path d="M1586.6025403784438 950.0 L 1500.0 1000.0 v 100 L 1586.6025403784438 1150.0 L 1673.2050807568876 1100.0 v -100 L 1586.6025403784438 950.0 "/>
                <circle cx="1586.6025403784438" cy="1050.0" r='70.0' stroke='black' fill="none" stroke-width="1"/>
    </g>
    <g fill="none" stroke="#000">
                <path d="M1673.2050807568878 1100.0 L 1586.602540378444 1150.0 v 100 L 1673.2050807568878 1300.0 L 1759.8076211353316 1250.0 v -100 L 1673.2050807568878 1100.0 "/>
                <circle cx="1673.2050807568878" cy="1200.0" r='70.0' stroke='black' fill="none" stroke-width="1"/>
    </g>
    <g fill="none" stroke="#000">
                <path d="M1846.4101615137754 1100.0 L 1759.8076211353316 1150.0 v 100 L 1846.4101615137754 1300.0 L 1933.0127018922192 1250.0 v -100 L 1846.4101615137754 1100.0 "/>
                <circle cx="1846.4101615137754" cy="1200.0" r='70.0' stroke='black' fill="none" stroke-width="1"/>
    </g>
    <g fill="none" stroke="#000">
                <path d="M1586.6025403784438 1250.0 L 1500.0 1300.0 v 100 L 1586.6025403784438 1450.0 L 1673.2050807568876 1400.0 v -100 L 1586.6025403784438 1250.0 "/>
                <circle cx="1586.6025403784438" cy="1350.0" r='70.0' stroke='black' fill="none" stroke-width="1"/>
    </g>
    <g fill="none" stroke="#000">
                <path d="M1759.8076211353316 1250.0 L 1673.2050807568878 1300.0 v 100 L 1759.8076211353316 1450.0 L 1846.4101615137754 1400.0 v -100 L 1759.8076211353316 1250.0 "/>
                <circle cx="1759.8076211353316" cy="1350.0" r='70.0' stroke='black' fill="none" stroke-width="1"/>
    </g>
    <g fill="none" stroke="#000">
                <path d="M1500.0 1400.0 L 1413.3974596215562 1450.0 v 100 L 1500.0 1600.0 L 1586.6025403784438 1550.0 v -100 L 1500.0 1400.0 "/>
                <circle cx="1500.0" cy="1500.0" r='70.0' stroke='black' fill="none" stroke-width="1"/>
    </g>
    <g fill="none" stroke="#000">
                <path d="M1673.2050807568878 1400.0 L 1586.602540378444 1450.0 v 100 L 1673.2050807568878 1600.0 L 1759.8076211353316 1550.0 v -100 L 1673.2050807568878 1400.0 "/>
                <circle cx="1673.2050807568878" cy="1500.0" r='70.0' stroke='black' fill="none" stroke-width="1"/>
    </g>
    <g fill="none" stroke="#000">
                <path d="M1586.6025403784438 1550.0 L 1500.0 1600.0 v 100 L 1586.6025403784438 1750.0 L 1673.2050807568876 1700.0 v -100 L 1586.6025403784438 1550.0 "/>
                <circle cx="1586.6025403784438" cy="1650.0" r='70.0' stroke='black' fill="none" stroke-width="1"/>
    </g>
    <g fill="none" stroke="#000">
                <path d="M1673.2050807568878 1700.0 L 1586.602540378444 1750.0 v 100 L 1673.2050807568878 1900.0 L 1759.8076211353316 1850.0 v -100 L 1673.2050807568878 1700.0 "/>
                <circle cx="1673.2050807568878" cy="1800.0" r='70.0' stroke='black' fill="none" stroke-width="1"/>
    </g>
    <g fill="none" stroke="#000">
                <path d="M1586.6025403784438 1850.0 L 1500.0 1900.0 v 100 L 1586.6025403784438 2050.0 L 1673.2050807568876 2000.0 v -100 L 1586.6025403784438 1850.0 "/>
                <circle cx="1586.6025403784438" cy="1950.0" r='70.0' stroke='black' fill="none" stroke-width="1"/>
    </g>
    <g fill="none" stroke="#000">
                <path d="M1759.8076211353316 1850.0 L 1673.2050807568878 1900.0 v 100 L 1759.8076211353316 2050.0 L 1846.4101615137754 2000.0 v -100 L 1759.8076211353316 1850.0 "/>
                <circle cx="1759.8076211353316" cy="1950.0" r='70.0' stroke='black' fill="none" stroke-width="1"/>
    </g>
    <g fill="none" stroke="#000">
                <path d="M1846.4101615137754 2000.0 L 1759.8076211353316 2050.0 v 100 L 1846.4101615137754 2200.0 L 1933.0127018922192 2150.0 v -100 L 1846.4101615137754 2000.0 "/>
                <circle cx="1846.4101615137754" cy="2100.0" r='70.0' stroke='black' fill="none" stroke-width="1"/>
    </g>
    <g fill="none" stroke="#000">
                <path d="M1586.6025403784438 950.0 L 1500.0 1000.0 v 100 L 1586.6025403784438 1150.0 L 1673.2050807568876 1100.0 v -100 L 1586.6025403784438 950.0 "/>
                <circle cx="1586.6025403784438" cy="1050.0" r='70.0' stroke='black' fill="none" stroke-width="1"/>
    </g>
    <g fill="none" stroke="#000">
                <path d="M1673.2050807568878 1100.0 L 1586.602540378444 1150.0 v 100 L 1673.2050807568878 1300.0 L 1759.8076211353316 1250.0 v -100 L 1673.2050807568878 1100.0 "/>
                <circle cx="1673.2050807568878" cy="1200.0" r='70.0' stroke='black' fill="none" stroke-width="1"/>
    </g>
    <g fill="none" stroke="#000">
                <path d="M1846.4101615137754 1100.0 L 1759.8076211353316 1150.0 v 100 L 1846.4101615137754 1300.0 L 1933.0127018922192 1250.0 v -100 L 1846.4101615137754 1100.0 "/>
                <circle cx="1846.4101615137754" cy="1200.0" r='70.0' stroke='black' fill="none" stroke-width="1"/>
    </g>
    <g fill="none" stroke="#000">
                <path d="M1586.6025403784438 1250.0 L 1500.0 1300.0 v 100 L 1586.6025403784438 1450.0 L 1673.2050807568876 1400.0 v -100 L 1586.6025403784438 1250.0 "/>
                <circle cx="1586.6025403784438" cy="1350.0" r='70.0' stroke='black' fill="none" stroke-width="1"/>
    </g>
    <g fill="none" stroke="#000">
                <path d="M1759.8076211353316 1250.0 L 1673.2050807568878 1300.0 v 100 L 1759.8076211353316 1450.0 L 1846.4101615137754 1400.0 v -100 L 1759.8076211353316 1250.0 "/>
                <circle cx="1759.8076211353316" cy="1350.0" r='70.0' stroke='black' fill="none" stroke-width="1"/>
    </g>
    <g fill="none" stroke="#000">
                <path d="M1500.0 1400.0 L 1413.3974596215562 1450.0 v 100 L 1500.0 1600.0 L 1586.6025403784438 1550.0 v -100 L 1500.0 1400.0 "/>
                <circle cx="1500.0" cy="1500.0" r='70.0' stroke='black' fill="none" stroke-width="1"/>
    </g>
    <g fill="none" stroke="#000">
                <path d="M1673.2050807568878 1400.0 L 1586.602540378444 1450.0 v 100 L 1673.2050807568878 1600.0 L 1759.8076211353316 1550.0 v -100 L 1673.2050807568878 1400.0 "/>
                <circle cx="1673.2050807568878" cy="1500.0" r='70.0' stroke='black' fill="none" stroke-width="1"/>
    </g>
    <g fill="none" stroke="#000">
                <path d="M1586.6025403784438 1550.0 L 1500.0 1600.0 v 100 L 1586.6025403784438 1750.0 L 1673.2050807568876 1700.0 v -100 L 1586.6025403784438 1550.0 "/>
                <circle cx="1586.6025403784438" cy="1650.0" r='70.0' stroke='black' fill="none" stroke-width="1"/>
    </g>
    <g fill="none" stroke="#000">
                <path d="M1673.2050807568878 1700.0 L 1586.602540378444 1750.0 v 100 L 1673.2050807568878 1900.0 L 1759.8076211353316 1850.0 v -100 L 1673.2050807568878 1700.0 "/>
                <circle cx="1673.2050807568878" cy="1800.0" r='70.0' stroke='black' fill="none" stroke-width="1"/>
    </g>
    <g fill="none" stroke="#000">
                <path d="M1586.6025403784438 1850.0 L 1500.0 1900.0 v 100 L 1586.6025403784438 2050.0 L 1673.2050807568876 2000.0 v -100 L 1586.6025403784438 1850.0 "/>
                <circle cx="1586.6025403784438" cy="1950.0" r='70.0' stroke='black' fill="none" stroke-width="1"/>
    </g>
    <g fill="none" stroke="#000">
                <path d="M1759.8076211353316 1850.0 L 1673.2050807568878 1900.0 v 100 L 1759.8076211353316 2050.0 L 1846.4101615137754 2000.0 v -100 L 1759.8076211353316 1850.0 "/>
                <circle cx="1759.8076211353316" cy="1950.0" r='70.0' stroke='black' fill="none" stroke-width="1"/>
    </g>
    <g fill="none" stroke="#000">
                <path d="M1846.4101615137754 2000.0 L 1759.8076211353316 2050.0 v 100 L 1846.4101615137754 2200.0 L 1933.0127018922192 2150.0 v -100 L 1846.4101615137754 2000.0 "/>
                <circle cx="1846.4101615137754" cy="2100.0" r='70.0' stroke='black' fill="none" stroke-width="1"/>
    </g>
    <g fill="none" stroke="#000">
                <path d="M1933.0127018922194 2150.0 L 1846.4101615137756 2200.0 v 100 L 1933.0127018922194 2350.0 L 2019.6152422706632 2300.0 v -100 L 1933.0127018922194 2150.0 "/>
    </g>
    <g fill="none" stroke="#000">
                <path d="M1586.6025403784438 950.0 L 1500.0 1000.0 v 100 L 1586.6025403784438 1150.0 L 1673.2050807568876 1100.0 v -100 L 1586.6025403784438 950.0 "/>
                <circle cx="1586.6025403784438" cy="1050.0" r='70.0' stroke='black' fill="none" stroke-width="1"/>
    </g>
    <g fill="none" stroke="#000">
                <path d="M1673.2050807568878 1100.0 L 1586.602540378444 1150.0 v 100 L 1673.2050807568878 1300.0 L 1759.8076211353316 1250.0 v -100 L 1673.2050807568878 1100.0 "/>
                <circle cx="1673.2050807568878" cy="1200.0" r='70.0' stroke='black' fill="none" stroke-width="1"/>
    </g>
    <g fill="none" stroke="#000">
                <path d="M1846.4101615137754 1100.0 L 1759.8076211353316 1150.0 v 100 L 1846.4101615137754 1300.0 L 1933.0127018922192 1250.0 v -100 L 1846.4101615137754 1100.0 "/>
                <circle cx="1846.4101615137754" cy="1200.0" r='70.0' stroke='black' fill="none" stroke-width="1"/>
    </g>
    <g fill="none" stroke="#000">
                <path d="M1586.6025403784438 1250.0 L 1500.0 1300.0 v 100 L 1586.6025403784438 1450.0 L 1673.2050807568876 1400.0 v -100 L 1586.6025403784438 1250.0 "/>
                <circle cx="1586.6025403784438" cy="1350.0" r='70.0' stroke='black' fill="none" stroke-width="1"/>
    </g>
    <g fill="none" stroke="#000">
                <path d="M1759.8076211353316 1250.0 L 1673.2050807568878 1300.0 v 100 L 1759.8076211353316 1450.0 L 1846.4101615137754 1400.0 v -100 L 1759.8076211353316 1250.0 "/>
                <circle cx="1759.8076211353316" cy="1350.0" r='70.0' stroke='black' fill="none" stroke-width="1"/>
    </g>
    <g fill="none" stroke="#000">
                <path d="M1326.7949192431122 1400.0 L 1240.1923788646684 1450.0 v 100 L 1326.7949192431122 1600.0 L 1413.397459621556 1550.0 v -100 L 1326.7949192431122 1400.0 "/>
    </g>
    <g fill="none" stroke="#000">
                <path d="M1500.0 1400.0 L 1413.3974596215562 1450.0 v 100 L 1500.0 1600.0 L 1586.6025403784438 1550.0 v -100 L 1500.0 1400.0 "/>
                <circle cx="1500.0" cy="1500.0" r='70.0' stroke='black' fill="none" stroke-width="1"/>
    </g>
    <g fill="none" stroke="#000">
                <path d="M1673.2050807568878 1400.0 L 1586.602540378444 1450.0 v 100 L 1673.2050807568878 1600.0 L 1759.8076211353316 1550.0 v -100 L 1673.2050807568878 1400.0 "/>
                <circle cx="1673.2050807568878" cy="1500.0" r='70.0' stroke='black' fill="none" stroke-width="1"/>
    </g>
    <g fill="none" stroke="#000">
                <path d="M1586.6025403784438 1550.0 L 1500.0 1600.0 v 100 L 1586.6025403784438 1750.0 L 1673.2050807568876 1700.0 v -100 L 1586.6025403784438 1550.0 "/>
                <circle cx="1586.6025403784438" cy="1650.0" r='70.0' stroke='black' fill="none" stroke-width="1"/>
    </g>
    <g fill="none" stroke="#000">
                <path d="M1673.2050807568878 1700.0 L 1586.602540378444 1750.0 v 100 L 1673.2050807568878 1900.0 L 1759.8076211353316 1850.0 v -100 L 1673.2050807568878 1700.0 "/>
                <circle cx="1673.2050807568878" cy="1800.0" r='70.0' stroke='black' fill="none" stroke-width="1"/>
    </g>
    <g fill="none" stroke="#000">
                <path d="M1586.6025403784438 1850.0 L 1500.0 1900.0 v 100 L 1586.6025403784438 2050.0 L 1673.2050807568876 2000.0 v -100 L 1586.6025403784438 1850.0 "/>
                <circle cx="1586.6025403784438" cy="1950.0" r='70.0' stroke='black' fill="none" stroke-width="1"/>
    </g>
    <g fill="none" stroke="#000">
                <path d="M1759.8076211353316 1850.0 L 1673.2050807568878 1900.0 v 100 L 1759.8076211353316 2050.0 L 1846.4101615137754 2000.0 v -100 L 1759.8076211353316 1850.0 "/>
                <circle cx="1759.8076211353316" cy="1950.0" r='70.0' stroke='black' fill="none" stroke-width="1"/>
    </g>
    <g fill="none" stroke="#000">
                <path d="M1846.4101615137754 2000.0 L 1759.8076211353316 2050.0 v 100 L 1846.4101615137754 2200.0 L 1933.0127018922192 2150.0 v -100 L 1846.4101615137754 2000.0 "/>
                <circle cx="1846.4101615137754" cy="2100.0" r='70.0' stroke='black' fill="none" stroke-width="1"/>
    </g>
    <g fill="none" stroke="#000">
                <path d="M1933.0127018922194 2150.0 L 1846.4101615137756 2200.0 v 100 L 1933.0127018922194 2350.0 L 2019.6152422706632 2300.0 v -100 L 1933.0127018922194 2150.0 "/>
    </g>
    <g fill="none" stroke="#000">
                <path d="M1586.6025403784438 950.0 L 1500.0 1000.0 v 100 L 1586.6025403784438 1150.0 L 1673.2050807568876 1100.0 v -100 L 1586.6025403784438 950.0 "/>
                <circle cx="1586.6025403784438" cy="1050.0" r='70.0' stroke='black' fill="none" stroke-width="1"/>
    </g>
    <g fill="none" stroke="#000">
                <path d="M1673.2050807568878 1100.0 L 1586.602540378444 1150.0 v 100 L 1673.2050807568878 1300.0 L 1759.8076211353316 1250.0 v -100 L 1673.2050807568878 1100.0 "/>
                <circle cx="1673.2050807568878" cy="1200.0" r='70.0' stroke='black' fill="none" stroke-width="1"/>
    </g>
    <g fill="none" stroke="#000">
                <path d="M1846.4101615137754 1100.0 L 1759.8076211353316 1150.0 v 100 L 1846.4101615137754 1300.0 L 1933.0127018922192 1250.0 v -100 L 1846.4101615137754 1100.0 "/>
                <circle cx="1846.4101615137754" cy="1200.0" r='70.0' stroke='black' fill="none" stroke-width="1"/>
    </g>
    <g fill="none" stroke="#000">
                <path d="M1586.6025403784438 1250.0 L 1500.0 1300.0 v 100 L 1586.6025403784438 1450.0 L 1673.2050807568876 1400.0 v -100 L 1586.6025403784438 1250.0 "/>
                <circle cx="1586.6025403784438" cy="1350.0" r='70.0' stroke='black' fill="none" stroke-width="1"/>
    </g>
    <g fill="none" stroke="#000">
                <path d="M1759.8076211353316 1250.0 L 1673.2050807568878 1300.0 v 100 L 1759.8076211353316 1450.0 L 1846.4101615137754 1400.0 v -100 L 1759.8076211353316 1250.0 "/>
                <circle cx="1759.8076211353316" cy="1350.0" r='70.0' stroke='black' fill="none" stroke-width="1"/>
    </g>
    <g fill="none" stroke="#000">
                <path d="M1326.7949192431122 1400.0 L 1240.1923788646684 1450.0 v 100 L 1326.7949192431122 1600.0 L 1413.397459621556 1550.0 v -100 L 1326.7949192431122 1400.0 "/>
    </g>
    <g fill="none" stroke="#000">
                <path d="M1500.0 1400.0 L 1413.3974596215562 1450.0 v 100 L 1500.0 1600.0 L 1586.6025403784438 1550.0 v -100 L 1500.0 1400.0 "/>
                <circle cx="1500.0" cy="1500.0" r='70.0' stroke='black' fill="none" stroke-width="1"/>
    </g>
    <g fill="none" stroke="#000">
                <path d="M1673.2050807568878 1400.0 L 1586.602540378444 1450.0 v 100 L 1673.2050807568878 1600.0 L 1759.8076211353316 1550.0 v -100 L 1673.2050807568878 1400.0 "/>
                <circle cx="1673.2050807568878" cy="1500.0" r='70.0' stroke='black' fill="none" stroke-width="1"/>
    </g>
    <g fill="none" stroke="#000">
                <path d="M1586.6025403784438 1550.0 L 1500.0 1600.0 v 100 L 1586.6025403784438 1750.0 L 1673.2050807568876 1700.0 v -100 L 1586.6025403784438 1550.0 "/>
                <circle cx="1586.6025403784438" cy="1650.0" r='70.0' stroke='black' fill="none" stroke-width="1"/>
    </g>
    <g fill="none" stroke="#000">
                <path d="M1673.2050807568878 1700.0 L 1586.602540378444 1750.0 v 100 L 1673.2050807568878 1900.0 L 1759.8076211353316 1850.0 v -100 L 1673.2050807568878 1700.0 "/>
                <circle cx="1673.2050807568878" cy="1800.0" r='70.0' stroke='black' fill="none" stroke-width="1"/>
    </g>
    <g fill="none" stroke="#000">
                <path d="M1586.6025403784438 1850.0 L 1500.0 1900.0 v 100 L 1586.6025403784438 2050.0 L 1673.2050807568876 2000.0 v -100 L 1586.6025403784438 1850.0 "/>
                <circle cx="1586.6025403784438" cy="1950.0" r='70.0' stroke='black' fill="none" stroke-width="1"/>
    </g>
    <g fill="none" stroke="#000">
                <path d="M1759.8076211353316 1850.0 L 1673.2050807568878 1900.0 v 100 L 1759.8076211353316 2050.0 L 1846.4101615137754 2000.0 v -100 L 1759.8076211353316 1850.0 "/>
                <circle cx="1759.8076211353316" cy="1950.0" r='70.0' stroke='black' fill="none" stroke-width="1"/>
    </g>
    <g fill="none" stroke="#000">
                <path d="M1500.0 2000.0 L 1413.3974596215562 2050.0 v 100 L 1500.0 2200.0 L 1586.6025403784438 2150.0 v -100 L 1500.0 2000.0 "/>
    </g>
    <g fill="none" stroke="#000">
                <path d="M1846.4101615137754 2000.0 L 1759.8076211353316 2050.0 v 100 L 1846.4101615137754 2200.0 L 1933.0127018922192 2150.0 v -100 L 1846.4101615137754 2000.0 "/>
                <circle cx="1846.4101615137754" cy="2100.0" r='70.0' stroke='black' fill="none" stroke-width="1"/>
    </g>
    <g fill="none" stroke="#000">
                <path d="M1933.0127018922194 2150.0 L 1846.4101615137756 2200.0 v 100 L 1933.0127018922194 2350.0 L 2019.6152422706632 2300.0 v -100 L 1933.0127018922194 2150.0 "/>
    </g>
    <g fill="none" stroke="#000">
                <path d="M1500.0 800.0 L 1413.3974596215562 850.0 v 100 L 1500.0 1000.0 L 1586.6025403784438 950.0 v -100 L 1500.0 800.0 "/>
    </g>
    <g fill="none" stroke="#000">
                <path d="M1586.6025403784438 950.0 L 1500.0 1000.0 v 100 L 1586.6025403784438 1150.0 L 1673.2050807568876 1100.0 v -100 L 1586.6025403784438 950.0 "/>
                <circle cx="1586.6025403784438" cy="1050.0" r='70.0' stroke='black' fill="none" stroke-width="1"/>
    </g>
    <g fill="none" stroke="#000">
                <path d="M1673.2050807568878 1100.0 L 1586.602540378444 1150.0 v 100 L 1673.2050807568878 1300.0 L 1759.8076211353316 1250.0 v -100 L 1673.2050807568878 1100.0 "/>
                <circle cx="1673.2050807568878" cy="1200.0" r='70.0' stroke='black' fill="none" stroke-width="1"/>
    </g>
    <g fill="none" stroke="#000">
                <path d="M1846.4101615137754 1100.0 L 1759.8076211353316 1150.0 v 100 L 1846.4101615137754 1300.0 L 1933.0127018922192 1250.0 v -100 L 1846.4101615137754 1100.0 "/>
                <circle cx="1846.4101615137754" cy="1200.0" r='70.0' stroke='black' fill="none" stroke-width="1"/>
    </g>
    <g fill="none" stroke="#000">
                <path d="M1586.6025403784438 1250.0 L 1500.0 1300.0 v 100 L 1586.6025403784438 1450.0 L 1673.2050807568876 1400.0 v -100 L 1586.6025403784438 1250.0 "/>
                <circle cx="1586.6025403784438" cy="1350.0" r='70.0' stroke='black' fill="none" stroke-width="1"/>
    </g>
    <g fill="none" stroke="#000">
                <path d="M1759.8076211353316 1250.0 L 1673.2050807568878 1300.0 v 100 L 1759.8076211353316 1450.0 L 1846.4101615137754 1400.0 v -100 L 1759.8076211353316 1250.0 "/>
                <circle cx="1759.8076211353316" cy="1350.0" r='70.0' stroke='black' fill="none" stroke-width="1"/>
    </g>
    <g fill="none" stroke="#000">
                <path d="M1326.7949192431122 1400.0 L 1240.1923788646684 1450.0 v 100 L 1326.7949192431122 1600.0 L 1413.397459621556 1550.0 v -100 L 1326.7949192431122 1400.0 "/>
    </g>
    <g fill="none" stroke="#000">
                <path d="M1500.0 1400.0 L 1413.3974596215562 1450.0 v 100 L 1500.0 1600.0 L 1586.6025403784438 1550.0 v -100 L 1500.0 1400.0 "/>
                <circle cx="1500.0" cy="1500.0" r='70.0' stroke='black' fill="none" stroke-width="1"/>
    </g>
    <g fill="none" stroke="#000">
                <path d="M1673.2050807568878 1400.0 L 1586.602540378444 1450.0 v 100 L 1673.2050807568878 1600.0 L 1759.8076211353316 1550.0 v -100 L 1673.2050807568878 1400.0 "/>
                <circle cx="1673.2050807568878" cy="1500.0" r='70.0' stroke='black' fill="none" stroke-width="1"/>
    </g>
    <g fill="none" stroke="#000">
                <path d="M1586.6025403784438 1550.0 L 1500.0 1600.0 v 100 L 1586.6025403784438 1750.0 L 1673.2050807568876 1700.0 v -100 L 1586.6025403784438 1550.0 "/>
                <circle cx="1586.6025403784438" cy="1650.0" r='70.0' stroke='black' fill="none" stroke-width="1"/>
    </g>
    <g fill="none" stroke="#000">
                <path d="M1673.2050807568878 1700.0 L 1586.602540378444 1750.0 v 100 L 1673.2050807568878 1900.0 L 1759.8076211353316 1850.0 v -100 L 1673.2050807568878 1700.0 "/>
                <circle cx="1673.2050807568878" cy="1800.0" r='70.0' stroke='black' fill="none" stroke-width="1"/>
    </g>
    <g fill="none" stroke="#000">
                <path d="M1586.6025403784438 1850.0 L 1500.0 1900.0 v 100 L 1586.6025403784438 2050.0 L 1673.2050807568876 2000.0 v -100 L 1586.6025403784438 1850.0 "/>
                <circle cx="1586.6025403784438" cy="1950.0" r='70.0' stroke='black' fill="none" stroke-width="1"/>
    </g>
    <g fill="none" stroke="#000">
                <path d="M1759.8076211353316 1850.0 L 1673.2050807568878 1900.0 v 100 L 1759.8076211353316 2050.0 L 1846.4101615137754 2000.0 v -100 L 1759.8076211353316 1850.0 "/>
                <circle cx="1759.8076211353316" cy="1950.0" r='70.0' stroke='black' fill="none" stroke-width="1"/>
    </g>
    <g fill="none" stroke="#000">
                <path d="M1500.0 2000.0 L 1413.3974596215562 2050.0 v 100 L 1500.0 2200.0 L 1586.6025403784438 2150.0 v -100 L 1500.0 2000.0 "/>
    </g>
    <g fill="none" stroke="#000">
                <path d="M1846.4101615137754 2000.0 L 1759.8076211353316 2050.0 v 100 L 1846.4101615137754 2200.0 L 1933.0127018922192 2150.0 v -100 L 1846.4101615137754 2000.0 "/>
                <circle cx="1846.4101615137754" cy="2100.0" r='70.0' stroke='black' fill="none" stroke-width="1"/>
    </g>
    <g fill="none" stroke="#000">
                <path d="M1933.0127018922194 2150.0 L 1846.4101615137756 2200.0 v 100 L 1933.0127018922194 2350.0 L 2019.6152422706632 2300.0 v -100 L 1933.0127018922194 2150.0 "/>
    </g>
    <g fill="none" stroke="#000">
                <path d="M1500.0 800.0 L 1413.3974596215562 850.0 v 100 L 1500.0 1000.0 L 1586.6025403784438 950.0 v -100 L 1500.0 800.0 "/>
    </g>
    <g fill="none" stroke="#000">
                <path d="M1586.6025403784438 950.0 L 1500.0 1000.0 v 100 L 1586.6025403784438 1150.0 L 1673.2050807568876 1100.0 v -100 L 1586.6025403784438 950.0 "/>
                <circle cx="1586.6025403784438" cy="1050.0" r='70.0' stroke='black' fill="none" stroke-width="1"/>
    </g>
    <g fill="none" stroke="#000">
                <path d="M1933.0127018922194 950.0 L 1846.4101615137756 1000.0 v 100 L 1933.0127018922194 1150.0 L 2019.6152422706632 1100.0 v -100 L 1933.0127018922194 950.0 "/>
    </g>
    <g fill="none" stroke="#000">
                <path d="M1673.2050807568878 1100.0 L 1586.602540378444 1150.0 v 100 L 1673.2050807568878 1300.0 L 1759.8076211353316 1250.0 v -100 L 1673.2050807568878 1100.0 "/>
                <circle cx="1673.2050807568878" cy="1200.0" r='70.0' stroke='black' fill="none" stroke-width="1"/>
    </g>
    <g fill="none" stroke="#000">
                <path d="M1846.4101615137754 1100.0 L 1759.8076211353316 1150.0 v 100 L 1846.4101615137754 1300.0 L 1933.0127018922192 1250.0 v -100 L 1846.4101615137754 1100.0 "/>
                <circle cx="1846.4101615137754" cy="1200.0" r='70.0' stroke='black' fill="none" stroke-width="1"/>
    </g>
    <g fill="none" stroke="#000">
                <path d="M1586.6025403784438 1250.0 L 1500.0 1300.0 v 100 L 1586.6025403784438 1450.0 L 1673.2050807568876 1400.0 v -100 L 1586.6025403784438 1250.0 "/>
                <circle cx="1586.6025403784438" cy="1350.0" r='70.0' stroke='black' fill="none" stroke-width="1"/>
    </g>
    <g fill="none" stroke="#000">
                <path d="M1759.8076211353316 1250.0 L 1673.2050807568878 1300.0 v 100 L 1759.8076211353316 1450.0 L 1846.4101615137754 1400.0 v -100 L 1759.8076211353316 1250.0 "/>
                <circle cx="1759.8076211353316" cy="1350.0" r='70.0' stroke='black' fill="none" stroke-width="1"/>
    </g>
    <g fill="none" stroke="#000">
                <path d="M1326.7949192431122 1400.0 L 1240.1923788646684 1450.0 v 100 L 1326.7949192431122 1600.0 L 1413.397459621556 1550.0 v -100 L 1326.7949192431122 1400.0 "/>
    </g>
    <g fill="none" stroke="#000">
                <path d="M1500.0 1400.0 L 1413.3974596215562 1450.0 v 100 L 1500.0 1600.0 L 1586.6025403784438 1550.0 v -100 L 1500.0 1400.0 "/>
                <circle cx="1500.0" cy="1500.0" r='70.0' stroke='black' fill="none" stroke-width="1"/>
    </g>
    <g fill="none" stroke="#000">
                <path d="M1673.2050807568878 1400.0 L 1586.602540378444 1450.0 v 100 L 1673.2050807568878 1600.0 L 1759.8076211353316 1550.0 v -100 L 1673.2050807568878 1400.0 "/>
                <circle cx="1673.2050807568878" cy="1500.0" r='70.0' stroke='black' fill="none" stroke-width="1"/>
    </g>
    <g fill="none" stroke="#000">
                <path d="M1586.6025403784438 1550.0 L 1500.0 1600.0 v 100 L 1586.6025403784438 1750.0 L 1673.2050807568876 1700.0 v -100 L 1586.6025403784438 1550.0 "/>
                <circle cx="1586.6025403784438" cy="1650.0" r='70.0' stroke='black' fill="none" stroke-width="1"/>
    </g>
    <g fill="none" stroke="#000">
                <path d="M1673.2050807568878 1700.0 L 1586.602540378444 1750.0 v 100 L 1673.2050807568878 1900.0 L 1759.8076211353316 1850.0 v -100 L 1673.2050807568878 1700.0 "/>
                <circle cx="1673.2050807568878" cy="1800.0" r='70.0' stroke='black' fill="none" stroke-width="1"/>
    </g>
    <g fill="none" stroke="#000">
                <path d="M1586.6025403784438 1850.0 L 1500.0 1900.0 v 100 L 1586.6025403784438 2050.0 L 1673.2050807568876 2000.0 v -100 L 1586.6025403784438 1850.0 "/>
                <circle cx="1586.6025403784438" cy="1950.0" r='70.0' stroke='black' fill="none" stroke-width="1"/>
    </g>
    <g fill="none" stroke="#000">
                <path d="M1759.8076211353316 1850.0 L 1673.2050807568878 1900.0 v 100 L 1759.8076211353316 2050.0 L 1846.4101615137754 2000.0 v -100 L 1759.8076211353316 1850.0 "/>
                <circle cx="1759.8076211353316" cy="1950.0" r='70.0' stroke='black' fill="none" stroke-width="1"/>
    </g>
    <g fill="none" stroke="#000">
                <path d="M1500.0 2000.0 L 1413.3974596215562 2050.0 v 100 L 1500.0 2200.0 L 1586.6025403784438 2150.0 v -100 L 1500.0 2000.0 "/>
    </g>
    <g fill="none" stroke="#000">
                <path d="M1846.4101615137754 2000.0 L 1759.8076211353316 2050.0 v 100 L 1846.4101615137754 2200.0 L 1933.0127018922192 2150.0 v -100 L 1846.4101615137754 2000.0 "/>
                <circle cx="1846.4101615137754" cy="2100.0" r='70.0' stroke='black' fill="none" stroke-width="1"/>
    </g>
    <g fill="none" stroke="#000">
                <path d="M1933.0127018922194 2150.0 L 1846.4101615137756 2200.0 v 100 L 1933.0127018922194 2350.0 L 2019.6152422706632 2300.0 v -100 L 1933.0127018922194 2150.0 "/>
    </g>
    </svg>
