<?xml version="1.0" encoding="UTF-8"?>
<svg version="1.1" viewBox="0 0 3000 3000" xmlns="http://www.w3.org/2000/svg">
<g fill="none" stroke="#000">
                <path d="M1326.7949192431122 1100.0 L 1240.1923788646684 1150.0 v 100 L 1326.7949192431122 1300.0 L 1413.397459621556 1250.0 v -100 L 1326.7949192431122 1100.0 "/>
                <circle cx="1326.7949192431122" cy="1200.0" r='70.0' stroke='black' fill="none" stroke-width="1"/>
    </g>
    <g fill="none" stroke="#000">
                <path d="M893.782217350893 1250.0 L 807.1796769724491 1300.0 v 100 L 893.782217350893 1450.0 L 980.3847577293369 1400.0 v -100 L 893.782217350893 1250.0 "/>
                <circle cx="893.782217350893" cy="1350.0" r='70.0' stroke='black' fill="none" stroke-width="1"/>
    </g>
    <g fill="none" stroke="#000">
                <path d="M1066.9872981077806 1250.0 L 980.3847577293367 1300.0 v 100 L 1066.9872981077806 1450.0 L 1153.5898384862244 1400.0 v -100 L 1066.9872981077806 1250.0 "/>
                <circle cx="1066.9872981077806" cy="1350.0" r='70.0' stroke='black' fill="none" stroke-width="1"/>
    </g>
    <g fill="none" stroke="#000">
                <path d="M1240.1923788646684 1250.0 L 1153.5898384862246 1300.0 v 100 L 1240.1923788646684 1450.0 L 1326.7949192431122 1400.0 v -100 L 1240.1923788646684 1250.0 "/>
                <circle cx="1240.1923788646684" cy="1350.0" r='70.0' stroke='black' fill="none" stroke-width="1"/>
    </g>
    <g fill="none" stroke="#000">
                <path d="M1586.6025403784438 1250.0 L 1500.0 1300.0 v 100 L 1586.6025403784438 1450.0 L 1673.2050807568876 1400.0 v -100 L 1586.6025403784438 1250.0 "/>
                <circle cx="1586.6025403784438" cy="1350.0" r='70.0' stroke='black' fill="none" stroke-width="1"/>
    </g>
    <g fill="none" stroke="#000">
                <path d="M1326.7949192431122 1400.0 L 1240.1923788646684 1450.0 v 100 L 1326.7949192431122 1600.0 L 1413.397459621556 1550.0 v -100 L 1326.7949192431122 1400.0 "/>
                <circle cx="1326.7949192431122" cy="1500.0" r='70.0' stroke='black' fill="none" stroke-width="1"/>
    </g>
    <g fill="none" stroke="#000">
                <path d="M1500.0 1400.0 L 1413.3974596215562 1450.0 v 100 L 1500.0 1600.0 L 1586.6025403784438 1550.0 v -100 L 1500.0 1400.0 "/>
                <circle cx="1500.0" cy="1500.0" r='70.0' stroke='black' fill="none" stroke-width="1"/>
    </g>
    <g fill="none" stroke="#000">
                <path d="M1413.3974596215562 1550.0 L 1326.7949192431124 1600.0 v 100 L 1413.3974596215562 1750.0 L 1500.0 1700.0 v -100 L 1413.3974596215562 1550.0 "/>
                <circle cx="1413.3974596215562" cy="1650.0" r='70.0' stroke='black' fill="none" stroke-width="1"/>
    </g>
    <g fill="none" stroke="#000">
                <path d="M1326.7949192431122 1700.0 L 1240.1923788646684 1750.0 v 100 L 1326.7949192431122 1900.0 L 1413.397459621556 1850.0 v -100 L 1326.7949192431122 1700.0 "/>
                <circle cx="1326.7949192431122" cy="1800.0" r='70.0' stroke='black' fill="none" stroke-width="1"/>
    </g>
    <g fill="none" stroke="#000">
                <path d="M1500.0 1700.0 L 1413.3974596215562 1750.0 v 100 L 1500.0 1900.0 L 1586.6025403784438 1850.0 v -100 L 1500.0 1700.0 "/>
                <circle cx="1500.0" cy="1800.0" r='70.0' stroke='black' fill="none" stroke-width="1"/>
    </g>
    <g fill="none" stroke="#000">
                <path d="M1673.2050807568878 1700.0 L 1586.602540378444 1750.0 v 100 L 1673.2050807568878 1900.0 L 1759.8076211353316 1850.0 v -100 L 1673.2050807568878 1700.0 "/>
                <circle cx="1673.2050807568878" cy="1800.0" r='70.0' stroke='black' fill="none" stroke-width="1"/>
    </g>
    <g fill="none" stroke="#000">
                <path d="M1413.3974596215562 1850.0 L 1326.7949192431124 1900.0 v 100 L 1413.3974596215562 2050.0 L 1500.0 2000.0 v -100 L 1413.3974596215562 1850.0 "/>
                <circle cx="1413.3974596215562" cy="1950.0" r='70.0' stroke='black' fill="none" stroke-width="1"/>
    </g>
    <g fill="none" stroke="#000">
                <path d="M1326.7949192431122 1100.0 L 1240.1923788646684 1150.0 v 100 L 1326.7949192431122 1300.0 L 1413.397459621556 1250.0 v -100 L 1326.7949192431122 1100.0 "/>
                <circle cx="1326.7949192431122" cy="1200.0" r='70.0' stroke='black' fill="none" stroke-width="1"/>
    </g>
    <g fill="none" stroke="#000">
                <path d="M893.782217350893 1250.0 L 807.1796769724491 1300.0 v 100 L 893.782217350893 1450.0 L 980.3847577293369 1400.0 v -100 L 893.782217350893 1250.0 "/>
                <circle cx="893.782217350893" cy="1350.0" r='70.0' stroke='black' fill="none" stroke-width="1"/>
    </g>
    <g fill="none" stroke="#000">
                <path d="M1066.9872981077806 1250.0 L 980.3847577293367 1300.0 v 100 L 1066.9872981077806 1450.0 L 1153.5898384862244 1400.0 v -100 L 1066.9872981077806 1250.0 "/>
                <circle cx="1066.9872981077806" cy="1350.0" r='70.0' stroke='black' fill="none" stroke-width="1"/>
    </g>
    <g fill="none" stroke="#000">
                <path d="M1240.1923788646684 1250.0 L 1153.5898384862246 1300.0 v 100 L 1240.1923788646684 1450.0 L 1326.7949192431122 1400.0 v -100 L 1240.1923788646684 1250.0 "/>
                <circle cx="1240.1923788646684" cy="1350.0" r='70.0' stroke='black' fill="none" stroke-width="1"/>
    </g>
    <g fill="none" stroke="#000">
                <path d="M1586.6025403784438 1250.0 L 1500.0 1300.0 v 100 L 1586.6025403784438 1450.0 L 1673.2050807568876 1400.0 v -100 L 1586.6025403784438 1250.0 "/>
                <circle cx="1586.6025403784438" cy="1350.0" r='70.0' stroke='black' fill="none" stroke-width="1"/>
    </g>
    <g fill="none" stroke="#000">
                <path d="M1326.7949192431122 1400.0 L 1240.1923788646684 1450.0 v 100 L 1326.7949192431122 1600.0 L 1413.397459621556 1550.0 v -100 L 1326.7949192431122 1400.0 "/>
                <circle cx="1326.7949192431122" cy="1500.0" r='70.0' stroke='black' fill="none" stroke-width="1"/>
    </g>
    <g fill="none" stroke="#000">
                <path d="M1500.0 1400.0 L 1413.3974596215562 1450.0 v 100 L 1500.0 1600.0 L 1586.6025403784438 1550.0 v -100 L 1500.0 1400.0 "/>
                <circle cx="1500.0" cy="1500.0" r='70.0' stroke='black' fill="none" stroke-width="1"/>
    </g>
    <g fill="none" stroke="#000">
                <path d="M1413.3974596215562 1550.0 L 1326.7949192431124 1600.0 v 100 L 1413.3974596215562 1750.0 L 1500.0 1700.0 v -100 L 1413.3974596215562 1550.0 "/>
                <circle cx="1413.3974596215562" cy="1650.0" r='70.0' stroke='black' fill="none" stroke-width="1"/>
    </g>
    <g fill="none" stroke="#000">
                <path d="M1326.7949192431122 1700.0 L 1240.1923788646684 1750.0 v 100 L 1326.7949192431122 1900.0 L 1413.397459621556 1850.0 v -100 L 1326.7949192431122 1700.0 "/>
                <circle cx="1326.7949192431122" cy="1800.0" r='70.0' stroke='black' fill="none" stroke-width="1"/>
    </g>
    <g fill="none" stroke="#000">
                <path d="M1500.0 1700.0 L 1413.3974596215562 1750.0 v 100 L 1500.0 1900.0 L 1586.6025403784438 1850.0 v -100 L 1500.0 1700.0 "/>
                <circle cx="1500.0" cy="1800.0" r='70.0' stroke='black' fill="none" stroke-width="1"/>
    </g>
    <g fill="none" stroke="#000">
                <path d="M1673.2050807568878 1700.0 L 1586.602540378444 1750.0 v 100 L 1673.2050807568878 1900.0 L 1759.8076211353316 1850.0 v -100 L 1673.2050807568878 1700.0 "/>
                <circle cx="1673.2050807568878" cy="1800.0" r='70.0' stroke='black' fill="none" stroke-width="1"/>
    </g>
    <g fill="none" stroke="#000">
                <path d="M1846.4101615137754 1700.0 L 1759.8076211353316 1750.0 v 100 L 1846.4101615137754 1900.0 L 1933.0127018922192 1850.0 v -100 L 1846.4101615137754 1700.0 "/>
    </g>
    <g fill="none" stroke="#000">
                <path d="M1413.3974596215562 1850.0 L 1326.7949192431124 1900.0 v 100 L 1413.3974596215562 2050.0 L 1500.0 2000.0 v -100 L 1413.3974596215562 1850.0 "/>
                <circle cx="1413.3974596215562" cy="1950.0" r='70.0' stroke='black' fill="none" stroke-width="1"/>
    </g>
    <g fill="none" stroke="#000">
                <path d="M1326.7949192431122 1100.0 L 1240.1923788646684 1150.0 v 100 L 1326.7949192431122 1300.0 L 1413.397459621556 1250.0 v -100 L 1326.7949192431122 1100.0 "/>
                <circle cx="1326.7949192431122" cy="1200.0" r='70.0' stroke='black' fill="none" stroke-width="1"/>
    </g>
    <g fill="none" stroke="#000">
                <path d="M893.782217350893 1250.0 L 807.1796769724491 1300.0 v 100 L 893.782217350893 1450.0 L 980.3847577293369 1400.0 v -100 L 893.782217350893 1250.0 "/>
                <circle cx="893.782217350893" cy="1350.0" r='70.0' stroke='black' fill="none" stroke-width="1"/>
    </g>
    <g fill="none" stroke="#000">
                <path d="M1066.9872981077806 1250.0 L 980.3847577293367 1300.0 v 100 L 1066.9872981077806 1450.0 L 1153.5898384862244 1400.0 v -100 L 1066.9872981077806 1250.0 "/>
                <circle cx="1066.9872981077806" cy="1350.0" r='70.0' stroke='black' fill="none" stroke-width="1"/>
    </g>
    <g fill="none" stroke="#000">
                <path d="M1240.1923788646684 1250.0 L 1153.5898384862246 1300.0 v 100 L 1240.1923788646684 1450.0 L 1326.7949192431122 1400.0 v -100 L 1240.1923788646684 1250.0 "/>
                <circle cx="1240.1923788646684" cy="1350.0" r='70.0' stroke='black' fill="none" stroke-width="1"/>
    </g>
    <g fill="none" stroke="#000">
                <path d="M1586.6025403784438 1250.0 L 1500.0 1300.0 v 100 L 1586.6025403784438 1450.0 L 1673.2050807568876 1400.0 v -100 L 1586.6025403784438 1250.0 "/>
                <circle cx="1586.6025403784438" cy="1350.0" r='70.0' stroke='black' fill="none" stroke-width="1"/>
    </g>
    <g fill="none" stroke="#000">
                <path d="M1326.7949192431122 1400.0 L 1240.1923788646684 1450.0 v 100 L 1326.7949192431122 1600.0 L 1413.397459621556 1550.0 v -100 L 1326.7949192431122 1400.0 "/>
                <circle cx="1326.7949192431122" cy="1500.0" r='70.0' stroke='black' fill="none" stroke-width="1"/>
    </g>
    <g fill="none" stroke="#000">
                <path d="M1500.0 1400.0 L 1413.3974596215562 1450.0 v 100 L 1500.0 1600.0 L 1586.6025403784438 1550.0 v -100 L 1500.0 1400.0 "/>
                <circle cx="1500.0" cy="1500.0" r='70.0' stroke='black' fill="none" stroke-width="1"/>
    </g>
    <g fill="none" stroke="#000">
                <path d="M1413.3974596215562 1550.0 L 1326.7949192431124 1600.0 v 100 L 1413.3974596215562 1750.0 L 1500.0 1700.0 v -100 L 1413.3974596215562 1550.0 "/>
                <circle cx="1413.3974596215562" cy="1650.0" r='70.0' stroke='black' fill="none" stroke-width="1"/>
    </g>
    <g fill="none" stroke="#000">
                <path d="M1326.7949192431122 1700.0 L 1240.1923788646684 1750.0 v 100 L 1326.7949192431122 1900.0 L 1413.397459621556 1850.0 v -100 L 1326.7949192431122 1700.0 "/>
                <circle cx="1326.7949192431122" cy="1800.0" r='70.0' stroke='black' fill="none" stroke-width="1"/>
    </g>
    <g fill="none" stroke="#000">
                <path d="M1500.0 1700.0 L 1413.3974596215562 1750.0 v 100 L 1500.0 1900.0 L 1586.6025403784438 1850.0 v -100 L 1500.0 1700.0 "/>
                <circle cx="1500.0" cy="1800.0" r='70.0' stroke='black' fill="none" stroke-width="1"/>
    </g>
    <g fill="none" stroke="#000">
                <path d="M1673.2050807568878 1700.0 L 1586.602540378444 1750.0 v 100 L 1673.2050807568878 1900.0 L 1759.8076211353316 1850.0 v -100 L 1673.2050807568878 1700.0 "/>
                <circle cx="1673.2050807568878" cy="1800.0" r='70.0' stroke='black' fill="none" stroke-width="1"/>
    </g>
    <g fill="none" stroke="#000">
                <path d="M1846.4101615137754 1700.0 L 1759.8076211353316 1750.0 v 100 L 1846.4101615137754 1900.0 L 1933.0127018922192 1850.0 v -100 L 1846.4101615137754 1700.0 "/>
    </g>
    <g fill="none" stroke="#000">
                <path d="M1413.3974596215562 1850.0 L 1326.7949192431124 1900.0 v 100 L 1413.3974596215562 2050.0 L 1500.0 2000.0 v -100 L 1413.3974596215562 1850.0 "/>
                <circle cx="1413.3974596215562" cy="1950.0" r='70.0' stroke='black' fill="none" stroke-width="1"/>
    </g>
    </svg>
