<?xml version="1.0" encoding="UTF-8"?>
<svg version="1.1" viewBox="0 0 3000 3000" xmlns="http://www.w3.org/2000/svg">
<g fill="none" stroke="#000">
                <path d="M1673.2050807568878 1100.0 L 1586.602540378444 1150.0 v 100 L 1673.2050807568878 1300.0 L 1759.8076211353316 1250.0 v -100 L 1673.2050807568878 1100.0 "/>
                <circle cx="1673.2050807568878" cy="1200.0" r='70.0' stroke='black' fill="none" stroke-width="1"/>
    </g>
    <g fill="none" stroke="#000">
                <path d="M1240.1923788646684 1250.0 L 1153.5898384862246 1300.0 v 100 L 1240.1923788646684 1450.0 L 1326.7949192431122 1400.0 v -100 L 1240.1923788646684 1250.0 "/>
                <circle cx="1240.1923788646684" cy="1350.0" r='70.0' stroke='black' fill="none" stroke-width="1"/>
    </g>
    <g fill="none" stroke="#000">
                <path d="M1413.3974596215562 1250.0 L 1326.7949192431124 1300.0 v 100 L 1413.3974596215562 1450.0 L 1500.0 1400.0 v -100 L 1413.3974596215562 1250.0 "/>
                <circle cx="1413.3974596215562" cy="1350.0" r='70.0' stroke='black' fill="none" stroke-width="1"/>
    </g>
    <g fill="none" stroke="#000">
                <path d="M1586.6025403784438 1250.0 L 1500.0 1300.0 v 100 L 1586.6025403784438 1450.0 L 1673.2050807568876 1400.0 v -100 L 1586.6025403784438 1250.0 "/>
                <circle cx="1586.6025403784438" cy="1350.0" r='70.0' stroke='black' fill="none" stroke-width="1"/>
    </g>
    <g fill="none" stroke="#000">
                <path d="M1759.8076211353316 1250.0 L 1673.2050807568878 1300.0 v 100 L 1759.8076211353316 1450.0 L 1846.4101615137754 1400.0 v -100 L 1759.8076211353316 1250.0 "/>
                <circle cx="1759.8076211353316" cy="1350.0" r='70.0' stroke='black' fill="none" stroke-width="1"/>
    </g>
    <g fill="none" stroke="#000">
                <path d="M1326.7949192431122 1400.0 L 1240.1923788646684 1450.0 v 100 L 1326.7949192431122 1600.0 L 1413.397459621556 1550.0 v -100 L 1326.7949192431122 1400.0 "/>
                <circle cx="1326.7949192431122" cy="1500.0" r='70.0' stroke='black' fill="none" stroke-width="1"/>
    </g>
    <g fill="none" stroke="#000">
                <path d="M1500.0 1400.0 L 1413.3974596215562 1450.0 v 100 L 1500.0 1600.0 L 1586.6025403784438 1550.0 v -100 L 1500.0 1400.0 "/>
                <circle cx="1500.0" cy="1500.0" r='70.0' stroke='black' fill="none" stroke-width="1"/>
    </g>
    <g fill="none" stroke="#000">
                <path d="M1413.3974596215562 1550.0 L 1326.7949192431124 1600.0 v 100 L 1413.3974596215562 1750.0 L 1500.0 1700.0 v -100 L 1413.3974596215562 1550.0 "/>
                <circle cx="1413.3974596215562" cy="1650.0" r='70.0' stroke='black' fill="none" stroke-width="1"/>
    </g>
    <g fill="none" stroke="#000">
                <path d="M1586.6025403784438 1550.0 L 1500.0 1600.0 v 100 L 1586.6025403784438 1750.0 L 1673.2050807568876 1700.0 v -100 L 1586.6025403784438 1550.0 "/>
                <circle cx="1586.6025403784438" cy="1650.0" r='70.0' stroke='black' fill="none" stroke-width="1"/>
    </g>
    <g fill="none" stroke="#000">
                <path d="M1759.8076211353316 1550.0 L 1673.2050807568878 1600.0 v 100 L 1759.8076211353316 1750.0 L 1846.4101615137754 1700.0 v -100 L 1759.8076211353316 1550.0 "/>
                <circle cx="1759.8076211353316" cy="1650.0" r='70.0' stroke='black' fill="none" stroke-width="1"/>
    </g>
    <g fill="none" stroke="#000">
                <path d="M1326.7949192431122 1700.0 L 1240.1923788646684 1750.0 v 100 L 1326.7949192431122 1900.0 L 1413.397459621556 1850.0 v -100 L 1326.7949192431122 1700.0 "/>
                <circle cx="1326.7949192431122" cy="1800.0" r='70.0' stroke='black' fill="none" stroke-width="1"/>
    </g>
    <g fill="none" stroke="#000">
                <path d="M1846.4101615137754 1700.0 L 1759.8076211353316 1750.0 v 100 L 1846.4101615137754 1900.0 L 1933.0127018922192 1850.0 v -100 L 1846.4101615137754 1700.0 "/>
                <circle cx="1846.4101615137754" cy="1800.0" r='70.0' stroke='black' fill="none" stroke-width="1"/>
    </g>
    <g fill="none" stroke="#000">
                <path d="M1153.5898384862246 1100.0 L 1066.9872981077808 1150.0 v 100 L 1153.5898384862246 1300.0 L 1240.1923788646684 1250.0 v -100 L 1153.5898384862246 1100.0 "/>
    </g>
    <g fill="none" stroke="#000">
                <path d="M1673.2050807568878 1100.0 L 1586.602540378444 1150.0 v 100 L 1673.2050807568878 1300.0 L 1759.8076211353316 1250.0 v -100 L 1673.2050807568878 1100.0 "/>
                <circle cx="1673.2050807568878" cy="1200.0" r='70.0' stroke='black' fill="none" stroke-width="1"/>
    </g>
    <g fill="none" stroke="#000">
                <path d="M1240.1923788646684 1250.0 L 1153.5898384862246 1300.0 v 100 L 1240.1923788646684 1450.0 L 1326.7949192431122 1400.0 v -100 L 1240.1923788646684 1250.0 "/>
                <circle cx="1240.1923788646684" cy="1350.0" r='70.0' stroke='black' fill="none" stroke-width="1"/>
    </g>
    <g fill="none" stroke="#000">
                <path d="M1413.3974596215562 1250.0 L 1326.7949192431124 1300.0 v 100 L 1413.3974596215562 1450.0 L 1500.0 1400.0 v -100 L 1413.3974596215562 1250.0 "/>
                <circle cx="1413.3974596215562" cy="1350.0" r='70.0' stroke='black' fill="none" stroke-width="1"/>
    </g>
    <g fill="none" stroke="#000">
                <path d="M1586.6025403784438 1250.0 L 1500.0 1300.0 v 100 L 1586.6025403784438 1450.0 L 1673.2050807568876 1400.0 v -100 L 1586.6025403784438 1250.0 "/>
                <circle cx="1586.6025403784438" cy="1350.0" r='70.0' stroke='black' fill="none" stroke-width="1"/>
    </g>
    <g fill="none" stroke="#000">
                <path d="M1759.8076211353316 1250.0 L 1673.2050807568878 1300.0 v 100 L 1759.8076211353316 1450.0 L 1846.4101615137754 1400.0 v -100 L 1759.8076211353316 1250.0 "/>
                <circle cx="1759.8076211353316" cy="1350.0" r='70.0' stroke='black' fill="none" stroke-width="1"/>
    </g>
    <g fill="none" stroke="#000">
                <path d="M1326.7949192431122 1400.0 L 1240.1923788646684 1450.0 v 100 L 1326.7949192431122 1600.0 L 1413.397459621556 1550.0 v -100 L 1326.7949192431122 1400.0 "/>
                <circle cx="1326.7949192431122" cy="1500.0" r='70.0' stroke='black' fill="none" stroke-width="1"/>
    </g>
    <g fill="none" stroke="#000">
                <path d="M1500.0 1400.0 L 1413.3974596215562 1450.0 v 100 L 1500.0 1600.0 L 1586.6025403784438 1550.0 v -100 L 1500.0 1400.0 "/>
                <circle cx="1500.0" cy="1500.0" r='70.0' stroke='black' fill="none" stroke-width="1"/>
    </g>
    <g fill="none" stroke="#000">
                <path d="M1413.3974596215562 1550.0 L 1326.7949192431124 1600.0 v 100 L 1413.3974596215562 1750.0 L 1500.0 1700.0 v -100 L 1413.3974596215562 1550.0 "/>
                <circle cx="1413.3974596215562" cy="1650.0" r='70.0' stroke='black' fill="none" stroke-width="1"/>
    </g>
    <g fill="none" stroke="#000">
                <path d="M1586.6025403784438 1550.0 L 1500.0 1600.0 v 100 L 1586.6025403784438 1750.0 L 1673.2050807568876 1700.0 v -100 L 1586.6025403784438 1550.0 "/>
                <circle cx="1586.6025403784438" cy="1650.0" r='70.0' stroke='black' fill="none" stroke-width="1"/>
    </g>
    <g fill="none" stroke="#000">
                <path d="M1759.8076211353316 1550.0 L 1673.2050807568878 1600.0 v 100 L 1759.8076211353316 1750.0 L 1846.4101615137754 1700.0 v -100 L 1759.8076211353316 1550.0 "/>
                <circle cx="1759.8076211353316" cy="1650.0" r='70.0' stroke='black' fill="none" stroke-width="1"/>
    </g>
    <g fill="none" stroke="#000">
                <path d="M1326.7949192431122 1700.0 L 1240.1923788646684 1750.0 v 100 L 1326.7949192431122 1900.0 L 1413.397459621556 1850.0 v -100 L 1326.7949192431122 1700.0 "/>
                <circle cx="1326.7949192431122" cy="1800.0" r='70.0' stroke='black' fill="none" stroke-width="1"/>
    </g>
    <g fill="none" stroke="#000">
                <path d="M1846.4101615137754 1700.0 L 1759.8076211353316 1750.0 v 100 L 1846.4101615137754 1900.0 L 1933.0127018922192 1850.0 v -100 L 1846.4101615137754 1700.0 "/>
                <circle cx="1846.4101615137754" cy="1800.0" r='70.0' stroke='black' fill="none" stroke-width="1"/>
    </g>
    <g fill="none" stroke="#000">
                <path d="M1153.5898384862246 1100.0 L 1066.9872981077808 1150.0 v 100 L 1153.5898384862246 1300.0 L 1240.1923788646684 1250.0 v -100 L 1153.5898384862246 1100.0 "/>
    </g>
    <g fill="none" stroke="#000">
                <path d="M1673.2050807568878 1100.0 L 1586.602540378444 1150.0 v 100 L 1673.2050807568878 1300.0 L 1759.8076211353316 1250.0 v -100 L 1673.2050807568878 1100.0 "/>
                <circle cx="1673.2050807568878" cy="1200.0" r='70.0' stroke='black' fill="none" stroke-width="1"/>
    </g>
    <g fill="none" stroke="#000">
                <path d="M1240.1923788646684 1250.0 L 1153.5898384862246 1300.0 v 100 L 1240.1923788646684 1450.0 L 1326.7949192431122 1400.0 v -100 L 1240.1923788646684 1250.0 "/>
                <circle cx="1240.1923788646684" cy="1350.0" r='70.0' stroke='black' fill="none" stroke-width="1"/>
    </g>
    <g fill="none" stroke="#000">
                <path d="M1413.3974596215562 1250.0 L 1326.7949192431124 1300.0 v 100 L 1413.3974596215562 1450.0 L 1500.0 1400.0 v -100 L 1413.3974596215562 1250.0 "/>
                <circle cx="1413.3974596215562" cy="1350.0" r='70.0' stroke='black' fill="none" stroke-width="1"/>
    </g>
    <g fill="none" stroke="#000">
                <path d="M1586.6025403784438 1250.0 L 1500.0 1300.0 v 100 L 1586.6025403784438 1450.0 L 1673.2050807568876 1400.0 v -100 L 1586.6025403784438 1250.0 "/>
                <circle cx="1586.6025403784438" cy="1350.0" r='70.0' stroke='black' fill="none" stroke-width="1"/>
    </g>
    <g fill="none" stroke="#000">
                <path d="M1759.8076211353316 1250.0 L 1673.2050807568878 1300.0 v 100 L 1759.8076211353316 1450.0 L 1846.4101615137754 1400.0 v -100 L 1759.8076211353316 1250.0 "/>
                <circle cx="1759.8076211353316" cy="1350.0" r='70.0' stroke='black' fill="none" stroke-width="1"/>
    </g>
    <g fill="none" stroke="#000">
                <path d="M1326.7949192431122 1400.0 L 1240.1923788646684 1450.0 v 100 L 1326.7949192431122 1600.0 L 1413.397459621556 1550.0 v -100 L 1326.7949192431122 1400.0 "/>
                <circle cx="1326.7949192431122" cy="1500.0" r='70.0' stroke='black' fill="none" stroke-width="1"/>
    </g>
    <g fill="none" stroke="#000">
                <path d="M1500.0 1400.0 L 1413.3974596215562 1450.0 v 100 L 1500.0 1600.0 L 1586.6025403784438 1550.0 v -100 L 1500.0 1400.0 "/>
                <circle cx="1500.0" cy="1500.0" r='70.0' stroke='black' fill="none" stroke-width="1"/>
    </g>
    <g fill="none" stroke="#000">
                <path d="M1413.3974596215562 1550.0 L 1326.7949192431124 1600.0 v 100 L 1413.3974596215562 1750.0 L 1500.0 1700.0 v -100 L 1413.3974596215562 1550.0 "/>
                <circle cx="1413.3974596215562" cy="1650.0" r='70.0' stroke='black' fill="none" stroke-width="1"/>
    </g>
    <g fill="none" stroke="#000">
                <path d="M1586.6025403784438 1550.0 L 1500.0 1600.0 v 100 L 1586.6025403784438 1750.0 L 1673.2050807568876 1700.0 v -100 L 1586.6025403784438 1550.0 "/>
                <circle cx="1586.6025403784438" cy="1650.0" r='70.0' stroke='black' fill="none" stroke-width="1"/>
    </g>
    <g fill="none" stroke="#000">
                <path d="M1759.8076211353316 1550.0 L 1673.2050807568878 1600.0 v 100 L 1759.8076211353316 1750.0 L 1846.4101615137754 1700.0 v -100 L 1759.8076211353316 1550.0 "/>
                <circle cx="1759.8076211353316" cy="1650.0" r='70.0' stroke='black' fill="none" stroke-width="1"/>
    </g>
    <g fill="none" stroke="#000">
                <path d="M1326.7949192431122 1700.0 L 1240.1923788646684 1750.0 v 100 L 1326.7949192431122 1900.0 L 1413.397459621556 1850.0 v -100 L 1326.7949192431122 1700.0 "/>
                <circle cx="1326.7949192431122" cy="1800.0" r='70.0' stroke='black' fill="none" stroke-width="1"/>
    </g>
    <g fill="none" stroke="#000">
                <path d="M1846.4101615137754 1700.0 L 1759.8076211353316 1750.0 v 100 L 1846.4101615137754 1900.0 L 1933.0127018922192 1850.0 v -100 L 1846.4101615137754 1700.0 "/>
                <circle cx="1846.4101615137754" cy="1800.0" r='70.0' stroke='black' fill="none" stroke-width="1"/>
    </g>
    <g fill="none" stroke="#000">
                <path d="M1153.5898384862246 1100.0 L 1066.9872981077808 1150.0 v 100 L 1153.5898384862246 1300.0 L 1240.1923788646684 1250.0 v -100 L 1153.5898384862246 1100.0 "/>
    </g>
    <g fill="none" stroke="#000">
                <path d="M1673.2050807568878 1100.0 L 1586.602540378444 1150.0 v 100 L 1673.2050807568878 1300.0 L 1759.8076211353316 1250.0 v -100 L 1673.2050807568878 1100.0 "/>
                <circle cx="1673.2050807568878" cy="1200.0" r='70.0' stroke='black' fill="none" stroke-width="1"/>
    </g>
    <g fill="none" stroke="#000">
                <path d="M1240.1923788646684 1250.0 L 1153.5898384862246 1300.0 v 100 L 1240.1923788646684 1450.0 L 1326.7949192431122 1400.0 v -100 L 1240.1923788646684 1250.0 "/>
                <circle cx="1240.1923788646684" cy="1350.0" r='70.0' stroke='black' fill="none" stroke-width="1"/>
    </g>
    <g fill="none" stroke="#000">
                <path d="M1413.3974596215562 1250.0 L 1326.7949192431124 1300.0 v 100 L 1413.3974596215562 1450.0 L 1500.0 1400.0 v -100 L 1413.3974596215562 1250.0 "/>
                <circle cx="1413.3974596215562" cy="1350.0" r='70.0' stroke='black' fill="none" stroke-width="1"/>
    </g>
    <g fill="none" stroke="#000">
                <path d="M1586.6025403784438 1250.0 L 1500.0 1300.0 v 100 L 1586.6025403784438 1450.0 L 1673.2050807568876 1400.0 v -100 L 1586.6025403784438 1250.0 "/>
                <circle cx="1586.6025403784438" cy="1350.0" r='70.0' stroke='black' fill="none" stroke-width="1"/>
    </g>
    <g fill="none" stroke="#000">
                <path d="M1759.8076211353316 1250.0 L 1673.2050807568878 1300.0 v 100 L 1759.8076211353316 1450.0 L 1846.4101615137754 1400.0 v -100 L 1759.8076211353316 1250.0 "/>
                <circle cx="1759.8076211353316" cy="1350.0" r='70.0' stroke='black' fill="none" stroke-width="1"/>
    </g>
    <g fill="none" stroke="#000">
                <path d="M1326.7949192431122 1400.0 L 1240.1923788646684 1450.0 v 100 L 1326.7949192431122 1600.0 L 1413.397459621556 1550.0 v -100 L 1326.7949192431122 1400.0 "/>
                <circle cx="1326.7949192431122" cy="1500.0" r='70.0' stroke='black' fill="none" stroke-width="1"/>
    </g>
    <g fill="none" stroke="#000">
                <path d="M1500.0 1400.0 L 1413.3974596215562 1450.0 v 100 L 1500.0 1600.0 L 1586.6025403784438 1550.0 v -100 L 1500.0 1400.0 "/>
                <circle cx="1500.0" cy="1500.0" r='70.0' stroke='black' fill="none" stroke-width="1"/>
    </g>
    <g fill="none" stroke="#000">
                <path d="M1413.3974596215562 1550.0 L 1326.7949192431124 1600.0 v 100 L 1413.3974596215562 1750.0 L 1500.0 1700.0 v -100 L 1413.3974596215562 1550.0 "/>
                <circle cx="1413.3974596215562" cy="1650.0" r='70.0' stroke='black' fill="none" stroke-width="1"/>
    </g>
    <g fill="none" stroke="#000">
                <path d="M1586.6025403784438 1550.0 L 1500.0 1600.0 v 100 L 1586.6025403784438 1750.0 L 1673.2050807568876 1700.0 v -100 L 1586.6025403784438 1550.0 "/>
                <circle cx="1586.6025403784438" cy="1650.0" r='70.0' stroke='black' fill="none" stroke-width="1"/>
    </g>
    <g fill="none" stroke="#000">
                <path d="M1759.8076211353316 1550.0 L 1673.2050807568878 1600.0 v 100 L 1759.8076211353316 1750.0 L 1846.4101615137754 1700.0 v -100 L 1759.8076211353316 1550.0 "/>
                <circle cx="1759.8076211353316" cy="1650.0" r='70.0' stroke='black' fill="none" stroke-width="1"/>
    </g>
    <g fill="none" stroke="#000">
                <path d="M1326.7949192431122 1700.0 L 1240.1923788646684 1750.0 v 100 L 1326.7949192431122 1900.0 L 1413.397459621556 1850.0 v -100 L 1326.7949192431122 1700.0 "/>
                <circle cx="1326.7949192431122" cy="1800.0" r='70.0' stroke='black' fill="none" stroke-width="1"/>
    </g>
    <g fill="none" stroke="#000">
                <path d="M1846.4101615137754 1700.0 L 1759.8076211353316 1750.0 v 100 L 1846.4101615137754 1900.0 L 1933.0127018922192 1850.0 v -100 L 1846.4101615137754 1700.0 "/>
                <circle cx="1846.4101615137754" cy="1800.0" r='70.0' stroke='black' fill="none" stroke-width="1"/>
    </g>
    <g fill="none" stroke="#000">
                <path d="M1153.5898384862246 1100.0 L 1066.9872981077808 1150.0 v 100 L 1153.5898384862246 1300.0 L 1240.1923788646684 1250.0 v -100 L 1153.5898384862246 1100.0 "/>
    </g>
    <g fill="none" stroke="#000">
                <path d="M1673.2050807568878 1100.0 L 1586.602540378444 1150.0 v 100 L 1673.2050807568878 1300.0 L 1759.8076211353316 1250.0 v -100 L 1673.2050807568878 1100.0 "/>
                <circle cx="1673.2050807568878" cy="1200.0" r='70.0' stroke='black' fill="none" stroke-width="1"/>
    </g>
    <g fill="none" stroke="#000">
                <path d="M1240.1923788646684 1250.0 L 1153.5898384862246 1300.0 v 100 L 1240.1923788646684 1450.0 L 1326.7949192431122 1400.0 v -100 L 1240.1923788646684 1250.0 "/>
                <circle cx="1240.1923788646684" cy="1350.0" r='70.0' stroke='black' fill="none" stroke-width="1"/>
    </g>
    <g fill="none" stroke="#000">
                <path d="M1413.3974596215562 1250.0 L 1326.7949192431124 1300.0 v 100 L 1413.3974596215562 1450.0 L 1500.0 1400.0 v -100 L 1413.3974596215562 1250.0 "/>
                <circle cx="1413.3974596215562" cy="1350.0" r='70.0' stroke='black' fill="none" stroke-width="1"/>
    </g>
    <g fill="none" stroke="#000">
                <path d="M1586.6025403784438 1250.0 L 1500.0 1300.0 v 100 L 1586.6025403784438 1450.0 L 1673.2050807568876 1400.0 v -100 L 1586.6025403784438 1250.0 "/>
                <circle cx="1586.6025403784438" cy="1350.0" r='70.0' stroke='black' fill="none" stroke-width="1"/>
    </g>
    <g fill="none" stroke="#000">
                <path d="M1759.8076211353316 1250.0 L 1673.2050807568878 1300.0 v 100 L 1759.8076211353316 1450.0 L 1846.4101615137754 1400.0 v -100 L 1759.8076211353316 1250.0 "/>
                <circle cx="1759.8076211353316" cy="1350.0" r='70.0' stroke='black' fill="none" stroke-width="1"/>
    </g>
    <g fill="none" stroke="#000">
                <path d="M1326.7949192431122 1400.0 L 1240.1923788646684 1450.0 v 100 L 1326.7949192431122 1600.0 L 1413.397459621556 1550.0 v -100 L 1326.7949192431122 1400.0 "/>
                <circle cx="1326.7949192431122" cy="1500.0" r='70.0' stroke='black' fill="none" stroke-width="1"/>
    </g>
    <g fill="none" stroke="#000">
                <path d="M1500.0 1400.0 L 1413.3974596215562 1450.0 v 100 L 1500.0 1600.0 L 1586.6025403784438 1550.0 v -100 L 1500.0 1400.0 "/>
                <circle cx="1500.0" cy="1500.0" r='70.0' stroke='black' fill="none" stroke-width="1"/>
    </g>
    <g fill="none" stroke="#000">
                <path d="M1413.3974596215562 1550.0 L 1326.7949192431124 1600.0 v 100 L 1413.3974596215562 1750.0 L 1500.0 1700.0 v -100 L 1413.3974596215562 1550.0 "/>
                <circle cx="1413.3974596215562" cy="1650.0" r='70.0' stroke='black' fill="none" stroke-width="1"/>
    </g>
    <g fill="none" stroke="#000">
                <path d="M1586.6025403784438 1550.0 L 1500.0 1600.0 v 100 L 1586.6025403784438 1750.0 L 1673.2050807568876 1700.0 v -100 L 1586.6025403784438 1550.0 "/>
                <circle cx="1586.6025403784438" cy="1650.0" r='70.0' stroke='black' fill="none" stroke-width="1"/>
    </g>
    <g fill="none" stroke="#000">
                <path d="M1759.8076211353316 1550.0 L 1673.2050807568878 1600.0 v 100 L 1759.8076211353316 1750.0 L 1846.4101615137754 1700.0 v -100 L 1759.8076211353316 1550.0 "/>
                <circle cx="1759.8076211353316" cy="1650.0" r='70.0' stroke='black' fill="none" stroke-width="1"/>
    </g>
    <g fill="none" stroke="#000">
                <path d="M1326.7949192431122 1700.0 L 1240.1923788646684 1750.0 v 100 L 1326.7949192431122 1900.0 L 1413.397459621556 1850.0 v -100 L 1326.7949192431122 1700.0 "/>
                <circle cx="1326.7949192431122" cy="1800.0" r='70.0' stroke='black' fill="none" stroke-width="1"/>
    </g>
    <g fill="none" stroke="#000">
                <path d="M1846.4101615137754 1700.0 L 1759.8076211353316 1750.0 v 100 L 1846.4101615137754 1900.0 L 1933.0127018922192 1850.0 v -100 L 1846.4101615137754 1700.0 "/>
                <circle cx="1846.4101615137754" cy="1800.0" r='70.0' stroke='black' fill="none" stroke-width="1"/>
    </g>
    <g fill="none" stroke="#000">
                <path d="M1153.5898384862246 1100.0 L 1066.9872981077808 1150.0 v 100 L 1153.5898384862246 1300.0 L 1240.1923788646684 1250.0 v -100 L 1153.5898384862246 1100.0 "/>
    </g>
    <g fill="none" stroke="#000">
                <path d="M1673.2050807568878 1100.0 L 1586.602540378444 1150.0 v 100 L 1673.2050807568878 1300.0 L 1759.8076211353316 1250.0 v -100 L 1673.2050807568878 1100.0 "/>
                <circle cx="1673.2050807568878" cy="1200.0" r='70.0' stroke='black' fill="none" stroke-width="1"/>
    </g>
    <g fill="none" stroke="#000">
                <path d="M1240.1923788646684 1250.0 L 1153.5898384862246 1300.0 v 100 L 1240.1923788646684 1450.0 L 1326.7949192431122 1400.0 v -100 L 1240.1923788646684 1250.0 "/>
                <circle cx="1240.1923788646684" cy="1350.0" r='70.0' stroke='black' fill="none" stroke-width="1"/>
    </g>
    <g fill="none" stroke="#000">
                <path d="M1413.3974596215562 1250.0 L 1326.7949192431124 1300.0 v 100 L 1413.3974596215562 1450.0 L 1500.0 1400.0 v -100 L 1413.3974596215562 1250.0 "/>
                <circle cx="1413.3974596215562" cy="1350.0" r='70.0' stroke='black' fill="none" stroke-width="1"/>
    </g>
    <g fill="none" stroke="#000">
                <path d="M1586.6025403784438 1250.0 L 1500.0 1300.0 v 100 L 1586.6025403784438 1450.0 L 1673.2050807568876 1400.0 v -100 L 1586.6025403784438 1250.0 "/>
                <circle cx="1586.6025403784438" cy="1350.0" r='70.0' stroke='black' fill="none" stroke-width="1"/>
    </g>
    <g fill="none" stroke="#000">
                <path d="M1759.8076211353316 1250.0 L 1673.2050807568878 1300.0 v 100 L 1759.8076211353316 1450.0 L 1846.4101615137754 1400.0 v -100 L 1759.8076211353316 1250.0 "/>
                <circle cx="1759.8076211353316" cy="1350.0" r='70.0' stroke='black' fill="none" stroke-width="1"/>
    </g>
    <g fill="none" stroke="#000">
                <path d="M1326.7949192431122 1400.0 L 1240.1923788646684 1450.0 v 100 L 1326.7949192431122 1600.0 L 1413.397459621556 1550.0 v -100 L 1326.7949192431122 1400.0 "/>
                <circle cx="1326.7949192431122" cy="1500.0" r='70.0' stroke='black' fill="none" stroke-width="1"/>
    </g>
    <g fill="none" stroke="#000">
                <path d="M1500.0 1400.0 L 1413.3974596215562 1450.0 v 100 L 1500.0 1600.0 L 1586.6025403784438 1550.0 v -100 L 1500.0 1400.0 "/>
                <circle cx="1500.0" cy="1500.0" r='70.0' stroke='black' fill="none" stroke-width="1"/>
    </g>
    <g fill="none" stroke="#000">
                <path d="M1413.3974596215562 1550.0 L 1326.7949192431124 1600.0 v 100 L 1413.3974596215562 1750.0 L 1500.0 1700.0 v -100 L 1413.3974596215562 1550.0 "/>
                <circle cx="1413.3974596215562" cy="1650.0" r='70.0' stroke='black' fill="none" stroke-width="1"/>
    </g>
    <g fill="none" stroke="#000">
                <path d="M1586.6025403784438 1550.0 L 1500.0 1600.0 v 100 L 1586.6025403784438 1750.0 L 1673.2050807568876 1700.0 v -100 L 1586.6025403784438 1550.0 "/>
                <circle cx="1586.6025403784438" cy="1650.0" r='70.0' stroke='black' fill="none" stroke-width="1"/>
    </g>
    <g fill="none" stroke="#000">
                <path d="M1759.8076211353316 1550.0 L 1673.2050807568878 1600.0 v 100 L 1759.8076211353316 1750.0 L 1846.4101615137754 1700.0 v -100 L 1759.8076211353316 1550.0 "/>
                <circle cx="1759.8076211353316" cy="1650.0" r='70.0' stroke='black' fill="none" stroke-width="1"/>
    </g>
    <g fill="none" stroke="#000">
                <path d="M1326.7949192431122 1700.0 L 1240.1923788646684 1750.0 v 100 L 1326.7949192431122 1900.0 L 1413.397459621556 1850.0 v -100 L 1326.7949192431122 1700.0 "/>
                <circle cx="1326.7949192431122" cy="1800.0" r='70.0' stroke='black' fill="none" stroke-width="1"/>
    </g>
    <g fill="none" stroke="#000">
                <path d="M1846.4101615137754 1700.0 L 1759.8076211353316 1750.0 v 100 L 1846.4101615137754 1900.0 L 1933.0127018922192 1850.0 v -100 L 1846.4101615137754 1700.0 "/>
                <circle cx="1846.4101615137754" cy="1800.0" r='70.0' stroke='black' fill="none" stroke-width="1"/>
    </g>
    <g fill="none" stroke="#000">
                <path d="M1153.5898384862246 1100.0 L 1066.9872981077808 1150.0 v 100 L 1153.5898384862246 1300.0 L 1240.1923788646684 1250.0 v -100 L 1153.5898384862246 1100.0 "/>
    </g>
    <g fill="none" stroke="#000">
                <path d="M1673.2050807568878 1100.0 L 1586.602540378444 1150.0 v 100 L 1673.2050807568878 1300.0 L 1759.8076211353316 1250.0 v -100 L 1673.2050807568878 1100.0 "/>
                <circle cx="1673.2050807568878" cy="1200.0" r='70.0' stroke='black' fill="none" stroke-width="1"/>
    </g>
    <g fill="none" stroke="#000">
                <path d="M1240.1923788646684 1250.0 L 1153.5898384862246 1300.0 v 100 L 1240.1923788646684 1450.0 L 1326.7949192431122 1400.0 v -100 L 1240.1923788646684 1250.0 "/>
                <circle cx="1240.1923788646684" cy="1350.0" r='70.0' stroke='black' fill="none" stroke-width="1"/>
    </g>
    <g fill="none" stroke="#000">
                <path d="M1413.3974596215562 1250.0 L 1326.7949192431124 1300.0 v 100 L 1413.3974596215562 1450.0 L 1500.0 1400.0 v -100 L 1413.3974596215562 1250.0 "/>
                <circle cx="1413.3974596215562" cy="1350.0" r='70.0' stroke='black' fill="none" stroke-width="1"/>
    </g>
    <g fill="none" stroke="#000">
                <path d="M1586.6025403784438 1250.0 L 1500.0 1300.0 v 100 L 1586.6025403784438 1450.0 L 1673.2050807568876 1400.0 v -100 L 1586.6025403784438 1250.0 "/>
                <circle cx="1586.6025403784438" cy="1350.0" r='70.0' stroke='black' fill="none" stroke-width="1"/>
    </g>
    <g fill="none" stroke="#000">
                <path d="M1759.8076211353316 1250.0 L 1673.2050807568878 1300.0 v 100 L 1759.8076211353316 1450.0 L 1846.4101615137754 1400.0 v -100 L 1759.8076211353316 1250.0 "/>
                <circle cx="1759.8076211353316" cy="1350.0" r='70.0' stroke='black' fill="none" stroke-width="1"/>
    </g>
    <g fill="none" stroke="#000">
                <path d="M1326.7949192431122 1400.0 L 1240.1923788646684 1450.0 v 100 L 1326.7949192431122 1600.0 L 1413.397459621556 1550.0 v -100 L 1326.7949192431122 1400.0 "/>
                <circle cx="1326.7949192431122" cy="1500.0" r='70.0' stroke='black' fill="none" stroke-width="1"/>
    </g>
    <g fill="none" stroke="#000">
                <path d="M1500.0 1400.0 L 1413.3974596215562 1450.0 v 100 L 1500.0 1600.0 L 1586.6025403784438 1550.0 v -100 L 1500.0 1400.0 "/>
                <circle cx="1500.0" cy="1500.0" r='70.0' stroke='black' fill="none" stroke-width="1"/>
    </g>
    <g fill="none" stroke="#000">
                <path d="M1413.3974596215562 1550.0 L 1326.7949192431124 1600.0 v 100 L 1413.3974596215562 1750.0 L 1500.0 1700.0 v -100 L 1413.3974596215562 1550.0 "/>
                <circle cx="1413.3974596215562" cy="1650.0" r='70.0' stroke='black' fill="none" stroke-width="1"/>
    </g>
    <g fill="none" stroke="#000">
                <path d="M1586.6025403784438 1550.0 L 1500.0 1600.0 v 100 L 1586.6025403784438 1750.0 L 1673.2050807568876 1700.0 v -100 L 1586.6025403784438 1550.0 "/>
                <circle cx="1586.6025403784438" cy="1650.0" r='70.0' stroke='black' fill="none" stroke-width="1"/>
    </g>
    <g fill="none" stroke="#000">
                <path d="M1759.8076211353316 1550.0 L 1673.2050807568878 1600.0 v 100 L 1759.8076211353316 1750.0 L 1846.4101615137754 1700.0 v -100 L 1759.8076211353316 1550.0 "/>
                <circle cx="1759.8076211353316" cy="1650.0" r='70.0' stroke='black' fill="none" stroke-width="1"/>
    </g>
    <g fill="none" stroke="#000">
                <path d="M1326.7949192431122 1700.0 L 1240.1923788646684 1750.0 v 100 L 1326.7949192431122 1900.0 L 1413.397459621556 1850.0 v -100 L 1326.7949192431122 1700.0 "/>
                <circle cx="1326.7949192431122" cy="1800.0" r='70.0' stroke='black' fill="none" stroke-width="1"/>
    </g>
    <g fill="none" stroke="#000">
                <path d="M1846.4101615137754 1700.0 L 1759.8076211353316 1750.0 v 100 L 1846.4101615137754 1900.0 L 1933.0127018922192 1850.0 v -100 L 1846.4101615137754 1700.0 "/>
                <circle cx="1846.4101615137754" cy="1800.0" r='70.0' stroke='black' fill="none" stroke-width="1"/>
    </g>
    <g fill="none" stroke="#000" transform='rotate(-210 1837.518439336333 1484.5990854218824)'>
                <path d="M1837.518439336333 1399.5340045866783 L 1756.6167398988382 1458.3125298159257  L 1787.518439336333 1553.418181445441 L 1887.518439336333 1553.418181445441  L 1918.4201387738276 1458.3125298159257 L 1837.518439336333 1399.5340045866783"/>
    </g>
    <g fill="none" stroke="#000" transform='rotate(-210 1837.518439336333 1484.5990854218824)'>
                <path d="M1837.518439336333 1399.5340045866783 L 1756.6167398988382 1458.3125298159257  L 1787.518439336333 1553.418181445441 L 1887.518439336333 1553.418181445441  L 1918.4201387738276 1458.3125298159257 L 1837.518439336333 1399.5340045866783"/>
    </g>
    <g fill="none" stroke="#000" transform='rotate(-210 1837.518439336333 1484.5990854218824)'>
                <path d="M1837.518439336333 1399.5340045866783 L 1756.6167398988382 1458.3125298159257  L 1787.518439336333 1553.418181445441 L 1887.518439336333 1553.418181445441  L 1918.4201387738276 1458.3125298159257 L 1837.518439336333 1399.5340045866783"/>
    </g>
    <g fill="none" stroke="#000" transform='rotate(-210 1404.5057374441135 1934.5990854218824)'>
                <path d="M1404.5057374441135 1849.5340045866783 L 1323.6040380066188 1908.3125298159257  L 1354.5057374441135 2003.418181445441 L 1454.5057374441135 2003.418181445441  L 1485.4074368816082 1908.3125298159257 L 1404.5057374441135 1849.5340045866783"/>
    </g>
    </svg>
