<?xml version="1.0" encoding="UTF-8"?>
<svg version="1.1" viewBox="0 0 3000 3000" xmlns="http://www.w3.org/2000/svg">
<g fill="none" stroke="#000">
                <path d="M1500.0 1100.0 L 1413.3974596215562 1150.0 v 100 L 1500.0 1300.0 L 1586.6025403784438 1250.0 v -100 L 1500.0 1100.0 "/>
                <circle cx="1500.0" cy="1200.0" r='70.0' stroke='black' fill="none" stroke-width="1"/>
    </g>
    <g fill="none" stroke="#000">
                <path d="M1586.6025403784438 1250.0 L 1500.0 1300.0 v 100 L 1586.6025403784438 1450.0 L 1673.2050807568876 1400.0 v -100 L 1586.6025403784438 1250.0 "/>
                <circle cx="1586.6025403784438" cy="1350.0" r='70.0' stroke='black' fill="none" stroke-width="1"/>
    </g>
    <g fill="none" stroke="#000">
                <path d="M1759.8076211353316 1250.0 L 1673.2050807568878 1300.0 v 100 L 1759.8076211353316 1450.0 L 1846.4101615137754 1400.0 v -100 L 1759.8076211353316 1250.0 "/>
                <circle cx="1759.8076211353316" cy="1350.0" r='70.0' stroke='black' fill="none" stroke-width="1"/>
    </g>
    <g fill="none" stroke="#000">
                <path d="M980.3847577293368 1400.0 L 893.7822173508929 1450.0 v 100 L 980.3847577293368 1600.0 L 1066.9872981077806 1550.0 v -100 L 980.3847577293368 1400.0 "/>
                <circle cx="980.3847577293368" cy="1500.0" r='70.0' stroke='black' fill="none" stroke-width="1"/>
    </g>
    <g fill="none" stroke="#000">
                <path d="M1153.5898384862246 1400.0 L 1066.9872981077808 1450.0 v 100 L 1153.5898384862246 1600.0 L 1240.1923788646684 1550.0 v -100 L 1153.5898384862246 1400.0 "/>
                <circle cx="1153.5898384862246" cy="1500.0" r='70.0' stroke='black' fill="none" stroke-width="1"/>
    </g>
    <g fill="none" stroke="#000">
                <path d="M1326.7949192431122 1400.0 L 1240.1923788646684 1450.0 v 100 L 1326.7949192431122 1600.0 L 1413.397459621556 1550.0 v -100 L 1326.7949192431122 1400.0 "/>
                <circle cx="1326.7949192431122" cy="1500.0" r='70.0' stroke='black' fill="none" stroke-width="1"/>
    </g>
    <g fill="none" stroke="#000">
                <path d="M1500.0 1400.0 L 1413.3974596215562 1450.0 v 100 L 1500.0 1600.0 L 1586.6025403784438 1550.0 v -100 L 1500.0 1400.0 "/>
                <circle cx="1500.0" cy="1500.0" r='70.0' stroke='black' fill="none" stroke-width="1"/>
    </g>
    <g fill="none" stroke="#000">
                <path d="M1240.1923788646684 1550.0 L 1153.5898384862246 1600.0 v 100 L 1240.1923788646684 1750.0 L 1326.7949192431122 1700.0 v -100 L 1240.1923788646684 1550.0 "/>
                <circle cx="1240.1923788646684" cy="1650.0" r='70.0' stroke='black' fill="none" stroke-width="1"/>
    </g>
    <g fill="none" stroke="#000">
                <path d="M1413.3974596215562 1550.0 L 1326.7949192431124 1600.0 v 100 L 1413.3974596215562 1750.0 L 1500.0 1700.0 v -100 L 1413.3974596215562 1550.0 "/>
                <circle cx="1413.3974596215562" cy="1650.0" r='70.0' stroke='black' fill="none" stroke-width="1"/>
    </g>
    <g fill="none" stroke="#000">
                <path d="M1500.0 1100.0 L 1413.3974596215562 1150.0 v 100 L 1500.0 1300.0 L 1586.6025403784438 1250.0 v -100 L 1500.0 1100.0 "/>
                <circle cx="1500.0" cy="1200.0" r='70.0' stroke='black' fill="none" stroke-width="1"/>
    </g>
    <g fill="none" stroke="#000">
                <path d="M893.782217350893 1250.0 L 807.1796769724491 1300.0 v 100 L 893.782217350893 1450.0 L 980.3847577293369 1400.0 v -100 L 893.782217350893 1250.0 "/>
    </g>
    <g fill="none" stroke="#000">
                <path d="M1586.6025403784438 1250.0 L 1500.0 1300.0 v 100 L 1586.6025403784438 1450.0 L 1673.2050807568876 1400.0 v -100 L 1586.6025403784438 1250.0 "/>
                <circle cx="1586.6025403784438" cy="1350.0" r='70.0' stroke='black' fill="none" stroke-width="1"/>
    </g>
    <g fill="none" stroke="#000">
                <path d="M1759.8076211353316 1250.0 L 1673.2050807568878 1300.0 v 100 L 1759.8076211353316 1450.0 L 1846.4101615137754 1400.0 v -100 L 1759.8076211353316 1250.0 "/>
                <circle cx="1759.8076211353316" cy="1350.0" r='70.0' stroke='black' fill="none" stroke-width="1"/>
    </g>
    <g fill="none" stroke="#000">
                <path d="M980.3847577293368 1400.0 L 893.7822173508929 1450.0 v 100 L 980.3847577293368 1600.0 L 1066.9872981077806 1550.0 v -100 L 980.3847577293368 1400.0 "/>
                <circle cx="980.3847577293368" cy="1500.0" r='70.0' stroke='black' fill="none" stroke-width="1"/>
    </g>
    <g fill="none" stroke="#000">
                <path d="M1153.5898384862246 1400.0 L 1066.9872981077808 1450.0 v 100 L 1153.5898384862246 1600.0 L 1240.1923788646684 1550.0 v -100 L 1153.5898384862246 1400.0 "/>
                <circle cx="1153.5898384862246" cy="1500.0" r='70.0' stroke='black' fill="none" stroke-width="1"/>
    </g>
    <g fill="none" stroke="#000">
                <path d="M1326.7949192431122 1400.0 L 1240.1923788646684 1450.0 v 100 L 1326.7949192431122 1600.0 L 1413.397459621556 1550.0 v -100 L 1326.7949192431122 1400.0 "/>
                <circle cx="1326.7949192431122" cy="1500.0" r='70.0' stroke='black' fill="none" stroke-width="1"/>
    </g>
    <g fill="none" stroke="#000">
                <path d="M1500.0 1400.0 L 1413.3974596215562 1450.0 v 100 L 1500.0 1600.0 L 1586.6025403784438 1550.0 v -100 L 1500.0 1400.0 "/>
                <circle cx="1500.0" cy="1500.0" r='70.0' stroke='black' fill="none" stroke-width="1"/>
    </g>
    <g fill="none" stroke="#000">
                <path d="M1240.1923788646684 1550.0 L 1153.5898384862246 1600.0 v 100 L 1240.1923788646684 1750.0 L 1326.7949192431122 1700.0 v -100 L 1240.1923788646684 1550.0 "/>
                <circle cx="1240.1923788646684" cy="1650.0" r='70.0' stroke='black' fill="none" stroke-width="1"/>
    </g>
    <g fill="none" stroke="#000">
                <path d="M1413.3974596215562 1550.0 L 1326.7949192431124 1600.0 v 100 L 1413.3974596215562 1750.0 L 1500.0 1700.0 v -100 L 1413.3974596215562 1550.0 "/>
                <circle cx="1413.3974596215562" cy="1650.0" r='70.0' stroke='black' fill="none" stroke-width="1"/>
    </g>
    <g fill="none" stroke="#000">
                <path d="M1586.6025403784438 950.0 L 1500.0 1000.0 v 100 L 1586.6025403784438 1150.0 L 1673.2050807568876 1100.0 v -100 L 1586.6025403784438 950.0 "/>
    </g>
    <g fill="none" stroke="#000">
                <path d="M1500.0 1100.0 L 1413.3974596215562 1150.0 v 100 L 1500.0 1300.0 L 1586.6025403784438 1250.0 v -100 L 1500.0 1100.0 "/>
                <circle cx="1500.0" cy="1200.0" r='70.0' stroke='black' fill="none" stroke-width="1"/>
    </g>
    <g fill="none" stroke="#000">
                <path d="M893.782217350893 1250.0 L 807.1796769724491 1300.0 v 100 L 893.782217350893 1450.0 L 980.3847577293369 1400.0 v -100 L 893.782217350893 1250.0 "/>
    </g>
    <g fill="none" stroke="#000">
                <path d="M1586.6025403784438 1250.0 L 1500.0 1300.0 v 100 L 1586.6025403784438 1450.0 L 1673.2050807568876 1400.0 v -100 L 1586.6025403784438 1250.0 "/>
                <circle cx="1586.6025403784438" cy="1350.0" r='70.0' stroke='black' fill="none" stroke-width="1"/>
    </g>
    <g fill="none" stroke="#000">
                <path d="M1759.8076211353316 1250.0 L 1673.2050807568878 1300.0 v 100 L 1759.8076211353316 1450.0 L 1846.4101615137754 1400.0 v -100 L 1759.8076211353316 1250.0 "/>
                <circle cx="1759.8076211353316" cy="1350.0" r='70.0' stroke='black' fill="none" stroke-width="1"/>
    </g>
    <g fill="none" stroke="#000">
                <path d="M980.3847577293368 1400.0 L 893.7822173508929 1450.0 v 100 L 980.3847577293368 1600.0 L 1066.9872981077806 1550.0 v -100 L 980.3847577293368 1400.0 "/>
                <circle cx="980.3847577293368" cy="1500.0" r='70.0' stroke='black' fill="none" stroke-width="1"/>
    </g>
    <g fill="none" stroke="#000">
                <path d="M1153.5898384862246 1400.0 L 1066.9872981077808 1450.0 v 100 L 1153.5898384862246 1600.0 L 1240.1923788646684 1550.0 v -100 L 1153.5898384862246 1400.0 "/>
                <circle cx="1153.5898384862246" cy="1500.0" r='70.0' stroke='black' fill="none" stroke-width="1"/>
    </g>
    <g fill="none" stroke="#000">
                <path d="M1326.7949192431122 1400.0 L 1240.1923788646684 1450.0 v 100 L 1326.7949192431122 1600.0 L 1413.397459621556 1550.0 v -100 L 1326.7949192431122 1400.0 "/>
                <circle cx="1326.7949192431122" cy="1500.0" r='70.0' stroke='black' fill="none" stroke-width="1"/>
    </g>
    <g fill="none" stroke="#000">
                <path d="M1500.0 1400.0 L 1413.3974596215562 1450.0 v 100 L 1500.0 1600.0 L 1586.6025403784438 1550.0 v -100 L 1500.0 1400.0 "/>
                <circle cx="1500.0" cy="1500.0" r='70.0' stroke='black' fill="none" stroke-width="1"/>
    </g>
    <g fill="none" stroke="#000">
                <path d="M1240.1923788646684 1550.0 L 1153.5898384862246 1600.0 v 100 L 1240.1923788646684 1750.0 L 1326.7949192431122 1700.0 v -100 L 1240.1923788646684 1550.0 "/>
                <circle cx="1240.1923788646684" cy="1650.0" r='70.0' stroke='black' fill="none" stroke-width="1"/>
    </g>
    <g fill="none" stroke="#000">
                <path d="M1413.3974596215562 1550.0 L 1326.7949192431124 1600.0 v 100 L 1413.3974596215562 1750.0 L 1500.0 1700.0 v -100 L 1413.3974596215562 1550.0 "/>
                <circle cx="1413.3974596215562" cy="1650.0" r='70.0' stroke='black' fill="none" stroke-width="1"/>
    </g>
    <g fill="none" stroke="#000">
                <path d="M1586.6025403784438 950.0 L 1500.0 1000.0 v 100 L 1586.6025403784438 1150.0 L 1673.2050807568876 1100.0 v -100 L 1586.6025403784438 950.0 "/>
    </g>
    <g fill="none" stroke="#000">
                <path d="M1500.0 1100.0 L 1413.3974596215562 1150.0 v 100 L 1500.0 1300.0 L 1586.6025403784438 1250.0 v -100 L 1500.0 1100.0 "/>
                <circle cx="1500.0" cy="1200.0" r='70.0' stroke='black' fill="none" stroke-width="1"/>
    </g>
    <g fill="none" stroke="#000">
                <path d="M893.782217350893 1250.0 L 807.1796769724491 1300.0 v 100 L 893.782217350893 1450.0 L 980.3847577293369 1400.0 v -100 L 893.782217350893 1250.0 "/>
    </g>
    <g fill="none" stroke="#000">
                <path d="M1586.6025403784438 1250.0 L 1500.0 1300.0 v 100 L 1586.6025403784438 1450.0 L 1673.2050807568876 1400.0 v -100 L 1586.6025403784438 1250.0 "/>
                <circle cx="1586.6025403784438" cy="1350.0" r='70.0' stroke='black' fill="none" stroke-width="1"/>
    </g>
    <g fill="none" stroke="#000">
                <path d="M1759.8076211353316 1250.0 L 1673.2050807568878 1300.0 v 100 L 1759.8076211353316 1450.0 L 1846.4101615137754 1400.0 v -100 L 1759.8076211353316 1250.0 "/>
                <circle cx="1759.8076211353316" cy="1350.0" r='70.0' stroke='black' fill="none" stroke-width="1"/>
    </g>
    <g fill="none" stroke="#000">
                <path d="M980.3847577293368 1400.0 L 893.7822173508929 1450.0 v 100 L 980.3847577293368 1600.0 L 1066.9872981077806 1550.0 v -100 L 980.3847577293368 1400.0 "/>
                <circle cx="980.3847577293368" cy="1500.0" r='70.0' stroke='black' fill="none" stroke-width="1"/>
    </g>
    <g fill="none" stroke="#000">
                <path d="M1153.5898384862246 1400.0 L 1066.9872981077808 1450.0 v 100 L 1153.5898384862246 1600.0 L 1240.1923788646684 1550.0 v -100 L 1153.5898384862246 1400.0 "/>
                <circle cx="1153.5898384862246" cy="1500.0" r='70.0' stroke='black' fill="none" stroke-width="1"/>
    </g>
    <g fill="none" stroke="#000">
                <path d="M1326.7949192431122 1400.0 L 1240.1923788646684 1450.0 v 100 L 1326.7949192431122 1600.0 L 1413.397459621556 1550.0 v -100 L 1326.7949192431122 1400.0 "/>
                <circle cx="1326.7949192431122" cy="1500.0" r='70.0' stroke='black' fill="none" stroke-width="1"/>
    </g>
    <g fill="none" stroke="#000">
                <path d="M1500.0 1400.0 L 1413.3974596215562 1450.0 v 100 L 1500.0 1600.0 L 1586.6025403784438 1550.0 v -100 L 1500.0 1400.0 "/>
                <circle cx="1500.0" cy="1500.0" r='70.0' stroke='black' fill="none" stroke-width="1"/>
    </g>
    <g fill="none" stroke="#000">
                <path d="M893.782217350893 1550.0 L 807.1796769724491 1600.0 v 100 L 893.782217350893 1750.0 L 980.3847577293369 1700.0 v -100 L 893.782217350893 1550.0 "/>
    </g>
    <g fill="none" stroke="#000">
                <path d="M1240.1923788646684 1550.0 L 1153.5898384862246 1600.0 v 100 L 1240.1923788646684 1750.0 L 1326.7949192431122 1700.0 v -100 L 1240.1923788646684 1550.0 "/>
                <circle cx="1240.1923788646684" cy="1650.0" r='70.0' stroke='black' fill="none" stroke-width="1"/>
    </g>
    <g fill="none" stroke="#000">
                <path d="M1413.3974596215562 1550.0 L 1326.7949192431124 1600.0 v 100 L 1413.3974596215562 1750.0 L 1500.0 1700.0 v -100 L 1413.3974596215562 1550.0 "/>
                <circle cx="1413.3974596215562" cy="1650.0" r='70.0' stroke='black' fill="none" stroke-width="1"/>
    </g>
    <g fill="none" stroke="#000">
                <path d="M1586.6025403784438 950.0 L 1500.0 1000.0 v 100 L 1586.6025403784438 1150.0 L 1673.2050807568876 1100.0 v -100 L 1586.6025403784438 950.0 "/>
    </g>
    <g fill="none" stroke="#000">
                <path d="M1500.0 1100.0 L 1413.3974596215562 1150.0 v 100 L 1500.0 1300.0 L 1586.6025403784438 1250.0 v -100 L 1500.0 1100.0 "/>
                <circle cx="1500.0" cy="1200.0" r='70.0' stroke='black' fill="none" stroke-width="1"/>
    </g>
    <g fill="none" stroke="#000">
                <path d="M893.782217350893 1250.0 L 807.1796769724491 1300.0 v 100 L 893.782217350893 1450.0 L 980.3847577293369 1400.0 v -100 L 893.782217350893 1250.0 "/>
    </g>
    <g fill="none" stroke="#000">
                <path d="M1586.6025403784438 1250.0 L 1500.0 1300.0 v 100 L 1586.6025403784438 1450.0 L 1673.2050807568876 1400.0 v -100 L 1586.6025403784438 1250.0 "/>
                <circle cx="1586.6025403784438" cy="1350.0" r='70.0' stroke='black' fill="none" stroke-width="1"/>
    </g>
    <g fill="none" stroke="#000">
                <path d="M1759.8076211353316 1250.0 L 1673.2050807568878 1300.0 v 100 L 1759.8076211353316 1450.0 L 1846.4101615137754 1400.0 v -100 L 1759.8076211353316 1250.0 "/>
                <circle cx="1759.8076211353316" cy="1350.0" r='70.0' stroke='black' fill="none" stroke-width="1"/>
    </g>
    <g fill="none" stroke="#000">
                <path d="M980.3847577293368 1400.0 L 893.7822173508929 1450.0 v 100 L 980.3847577293368 1600.0 L 1066.9872981077806 1550.0 v -100 L 980.3847577293368 1400.0 "/>
                <circle cx="980.3847577293368" cy="1500.0" r='70.0' stroke='black' fill="none" stroke-width="1"/>
    </g>
    <g fill="none" stroke="#000">
                <path d="M1153.5898384862246 1400.0 L 1066.9872981077808 1450.0 v 100 L 1153.5898384862246 1600.0 L 1240.1923788646684 1550.0 v -100 L 1153.5898384862246 1400.0 "/>
                <circle cx="1153.5898384862246" cy="1500.0" r='70.0' stroke='black' fill="none" stroke-width="1"/>
    </g>
    <g fill="none" stroke="#000">
                <path d="M1326.7949192431122 1400.0 L 1240.1923788646684 1450.0 v 100 L 1326.7949192431122 1600.0 L 1413.397459621556 1550.0 v -100 L 1326.7949192431122 1400.0 "/>
                <circle cx="1326.7949192431122" cy="1500.0" r='70.0' stroke='black' fill="none" stroke-width="1"/>
    </g>
    <g fill="none" stroke="#000">
                <path d="M1500.0 1400.0 L 1413.3974596215562 1450.0 v 100 L 1500.0 1600.0 L 1586.6025403784438 1550.0 v -100 L 1500.0 1400.0 "/>
                <circle cx="1500.0" cy="1500.0" r='70.0' stroke='black' fill="none" stroke-width="1"/>
    </g>
    <g fill="none" stroke="#000">
                <path d="M893.782217350893 1550.0 L 807.1796769724491 1600.0 v 100 L 893.782217350893 1750.0 L 980.3847577293369 1700.0 v -100 L 893.782217350893 1550.0 "/>
    </g>
    <g fill="none" stroke="#000">
                <path d="M1240.1923788646684 1550.0 L 1153.5898384862246 1600.0 v 100 L 1240.1923788646684 1750.0 L 1326.7949192431122 1700.0 v -100 L 1240.1923788646684 1550.0 "/>
                <circle cx="1240.1923788646684" cy="1650.0" r='70.0' stroke='black' fill="none" stroke-width="1"/>
    </g>
    <g fill="none" stroke="#000">
                <path d="M1413.3974596215562 1550.0 L 1326.7949192431124 1600.0 v 100 L 1413.3974596215562 1750.0 L 1500.0 1700.0 v -100 L 1413.3974596215562 1550.0 "/>
                <circle cx="1413.3974596215562" cy="1650.0" r='70.0' stroke='black' fill="none" stroke-width="1"/>
    </g>
    <g fill="none" stroke="#000">
                <path d="M1586.6025403784438 950.0 L 1500.0 1000.0 v 100 L 1586.6025403784438 1150.0 L 1673.2050807568876 1100.0 v -100 L 1586.6025403784438 950.0 "/>
    </g>
    <g fill="none" stroke="#000">
                <path d="M1500.0 1100.0 L 1413.3974596215562 1150.0 v 100 L 1500.0 1300.0 L 1586.6025403784438 1250.0 v -100 L 1500.0 1100.0 "/>
                <circle cx="1500.0" cy="1200.0" r='70.0' stroke='black' fill="none" stroke-width="1"/>
    </g>
    <g fill="none" stroke="#000">
                <path d="M893.782217350893 1250.0 L 807.1796769724491 1300.0 v 100 L 893.782217350893 1450.0 L 980.3847577293369 1400.0 v -100 L 893.782217350893 1250.0 "/>
    </g>
    <g fill="none" stroke="#000">
                <path d="M1586.6025403784438 1250.0 L 1500.0 1300.0 v 100 L 1586.6025403784438 1450.0 L 1673.2050807568876 1400.0 v -100 L 1586.6025403784438 1250.0 "/>
                <circle cx="1586.6025403784438" cy="1350.0" r='70.0' stroke='black' fill="none" stroke-width="1"/>
    </g>
    <g fill="none" stroke="#000">
                <path d="M1759.8076211353316 1250.0 L 1673.2050807568878 1300.0 v 100 L 1759.8076211353316 1450.0 L 1846.4101615137754 1400.0 v -100 L 1759.8076211353316 1250.0 "/>
                <circle cx="1759.8076211353316" cy="1350.0" r='70.0' stroke='black' fill="none" stroke-width="1"/>
    </g>
    <g fill="none" stroke="#000">
                <path d="M980.3847577293368 1400.0 L 893.7822173508929 1450.0 v 100 L 980.3847577293368 1600.0 L 1066.9872981077806 1550.0 v -100 L 980.3847577293368 1400.0 "/>
                <circle cx="980.3847577293368" cy="1500.0" r='70.0' stroke='black' fill="none" stroke-width="1"/>
    </g>
    <g fill="none" stroke="#000">
                <path d="M1153.5898384862246 1400.0 L 1066.9872981077808 1450.0 v 100 L 1153.5898384862246 1600.0 L 1240.1923788646684 1550.0 v -100 L 1153.5898384862246 1400.0 "/>
                <circle cx="1153.5898384862246" cy="1500.0" r='70.0' stroke='black' fill="none" stroke-width="1"/>
    </g>
    <g fill="none" stroke="#000">
                <path d="M1326.7949192431122 1400.0 L 1240.1923788646684 1450.0 v 100 L 1326.7949192431122 1600.0 L 1413.397459621556 1550.0 v -100 L 1326.7949192431122 1400.0 "/>
                <circle cx="1326.7949192431122" cy="1500.0" r='70.0' stroke='black' fill="none" stroke-width="1"/>
    </g>
    <g fill="none" stroke="#000">
                <path d="M1500.0 1400.0 L 1413.3974596215562 1450.0 v 100 L 1500.0 1600.0 L 1586.6025403784438 1550.0 v -100 L 1500.0 1400.0 "/>
                <circle cx="1500.0" cy="1500.0" r='70.0' stroke='black' fill="none" stroke-width="1"/>
    </g>
    <g fill="none" stroke="#000">
                <path d="M893.782217350893 1550.0 L 807.1796769724491 1600.0 v 100 L 893.782217350893 1750.0 L 980.3847577293369 1700.0 v -100 L 893.782217350893 1550.0 "/>
    </g>
    <g fill="none" stroke="#000">
                <path d="M1240.1923788646684 1550.0 L 1153.5898384862246 1600.0 v 100 L 1240.1923788646684 1750.0 L 1326.7949192431122 1700.0 v -100 L 1240.1923788646684 1550.0 "/>
                <circle cx="1240.1923788646684" cy="1650.0" r='70.0' stroke='black' fill="none" stroke-width="1"/>
    </g>
    <g fill="none" stroke="#000">
                <path d="M1413.3974596215562 1550.0 L 1326.7949192431124 1600.0 v 100 L 1413.3974596215562 1750.0 L 1500.0 1700.0 v -100 L 1413.3974596215562 1550.0 "/>
                <circle cx="1413.3974596215562" cy="1650.0" r='70.0' stroke='black' fill="none" stroke-width="1"/>
    </g>
    <g fill="none" stroke="#000">
                <path d="M1586.6025403784438 950.0 L 1500.0 1000.0 v 100 L 1586.6025403784438 1150.0 L 1673.2050807568876 1100.0 v -100 L 1586.6025403784438 950.0 "/>
    </g>
    <g fill="none" stroke="#000">
                <path d="M1500.0 1100.0 L 1413.3974596215562 1150.0 v 100 L 1500.0 1300.0 L 1586.6025403784438 1250.0 v -100 L 1500.0 1100.0 "/>
                <circle cx="1500.0" cy="1200.0" r='70.0' stroke='black' fill="none" stroke-width="1"/>
    </g>
    <g fill="none" stroke="#000">
                <path d="M893.782217350893 1250.0 L 807.1796769724491 1300.0 v 100 L 893.782217350893 1450.0 L 980.3847577293369 1400.0 v -100 L 893.782217350893 1250.0 "/>
    </g>
    <g fill="none" stroke="#000">
                <path d="M1586.6025403784438 1250.0 L 1500.0 1300.0 v 100 L 1586.6025403784438 1450.0 L 1673.2050807568876 1400.0 v -100 L 1586.6025403784438 1250.0 "/>
                <circle cx="1586.6025403784438" cy="1350.0" r='70.0' stroke='black' fill="none" stroke-width="1"/>
    </g>
    <g fill="none" stroke="#000">
                <path d="M1759.8076211353316 1250.0 L 1673.2050807568878 1300.0 v 100 L 1759.8076211353316 1450.0 L 1846.4101615137754 1400.0 v -100 L 1759.8076211353316 1250.0 "/>
                <circle cx="1759.8076211353316" cy="1350.0" r='70.0' stroke='black' fill="none" stroke-width="1"/>
    </g>
    <g fill="none" stroke="#000">
                <path d="M980.3847577293368 1400.0 L 893.7822173508929 1450.0 v 100 L 980.3847577293368 1600.0 L 1066.9872981077806 1550.0 v -100 L 980.3847577293368 1400.0 "/>
                <circle cx="980.3847577293368" cy="1500.0" r='70.0' stroke='black' fill="none" stroke-width="1"/>
    </g>
    <g fill="none" stroke="#000">
                <path d="M1153.5898384862246 1400.0 L 1066.9872981077808 1450.0 v 100 L 1153.5898384862246 1600.0 L 1240.1923788646684 1550.0 v -100 L 1153.5898384862246 1400.0 "/>
                <circle cx="1153.5898384862246" cy="1500.0" r='70.0' stroke='black' fill="none" stroke-width="1"/>
    </g>
    <g fill="none" stroke="#000">
                <path d="M1326.7949192431122 1400.0 L 1240.1923788646684 1450.0 v 100 L 1326.7949192431122 1600.0 L 1413.397459621556 1550.0 v -100 L 1326.7949192431122 1400.0 "/>
                <circle cx="1326.7949192431122" cy="1500.0" r='70.0' stroke='black' fill="none" stroke-width="1"/>
    </g>
    <g fill="none" stroke="#000">
                <path d="M1500.0 1400.0 L 1413.3974596215562 1450.0 v 100 L 1500.0 1600.0 L 1586.6025403784438 1550.0 v -100 L 1500.0 1400.0 "/>
                <circle cx="1500.0" cy="1500.0" r='70.0' stroke='black' fill="none" stroke-width="1"/>
    </g>
    <g fill="none" stroke="#000">
                <path d="M893.782217350893 1550.0 L 807.1796769724491 1600.0 v 100 L 893.782217350893 1750.0 L 980.3847577293369 1700.0 v -100 L 893.782217350893 1550.0 "/>
    </g>
    <g fill="none" stroke="#000">
                <path d="M1240.1923788646684 1550.0 L 1153.5898384862246 1600.0 v 100 L 1240.1923788646684 1750.0 L 1326.7949192431122 1700.0 v -100 L 1240.1923788646684 1550.0 "/>
                <circle cx="1240.1923788646684" cy="1650.0" r='70.0' stroke='black' fill="none" stroke-width="1"/>
    </g>
    <g fill="none" stroke="#000">
                <path d="M1413.3974596215562 1550.0 L 1326.7949192431124 1600.0 v 100 L 1413.3974596215562 1750.0 L 1500.0 1700.0 v -100 L 1413.3974596215562 1550.0 "/>
                <circle cx="1413.3974596215562" cy="1650.0" r='70.0' stroke='black' fill="none" stroke-width="1"/>
    </g>
    <g fill="none" stroke="#000" transform='rotate(-150 1162.481560663667 1784.5990854218824)'>
                <path d="M1162.481560663667 1699.5340045866783 L 1081.5798612261724 1758.3125298159257  L 1112.481560663667 1853.418181445441 L 1212.481560663667 1853.418181445441  L 1243.3832601011618 1758.3125298159257 L 1162.481560663667 1699.5340045866783"/>
    </g>
    </svg>
