<?xml version="1.0" encoding="UTF-8"?>
<svg version="1.1" viewBox="0 0 3000 3000" xmlns="http://www.w3.org/2000/svg">
<g fill="none" stroke="#000">
                <path d="M1586.6025403784438 1250.0 L 1500.0 1300.0 v 100 L 1586.6025403784438 1450.0 L 1673.2050807568876 1400.0 v -100 L 1586.6025403784438 1250.0 "/>
                <circle cx="1586.6025403784438" cy="1350.0" r='70.0' stroke='black' fill="none" stroke-width="1"/>
    </g>
    <g fill="none" stroke="#000">
                <path d="M1500.0 1400.0 L 1413.3974596215562 1450.0 v 100 L 1500.0 1600.0 L 1586.6025403784438 1550.0 v -100 L 1500.0 1400.0 "/>
                <circle cx="1500.0" cy="1500.0" r='70.0' stroke='black' fill="none" stroke-width="1"/>
    </g>
    <g fill="none" stroke="#000">
                <path d="M1673.2050807568878 1400.0 L 1586.602540378444 1450.0 v 100 L 1673.2050807568878 1600.0 L 1759.8076211353316 1550.0 v -100 L 1673.2050807568878 1400.0 "/>
                <circle cx="1673.2050807568878" cy="1500.0" r='70.0' stroke='black' fill="none" stroke-width="1"/>
    </g>
    <g fill="none" stroke="#000">
                <path d="M1846.4101615137754 1400.0 L 1759.8076211353316 1450.0 v 100 L 1846.4101615137754 1600.0 L 1933.0127018922192 1550.0 v -100 L 1846.4101615137754 1400.0 "/>
                <circle cx="1846.4101615137754" cy="1500.0" r='70.0' stroke='black' fill="none" stroke-width="1"/>
    </g>
    <g fill="none" stroke="#000">
                <path d="M1673.2050807568878 1100.0 L 1586.602540378444 1150.0 v 100 L 1673.2050807568878 1300.0 L 1759.8076211353316 1250.0 v -100 L 1673.2050807568878 1100.0 "/>
    </g>
    <g fill="none" stroke="#000">
                <path d="M1586.6025403784438 1250.0 L 1500.0 1300.0 v 100 L 1586.6025403784438 1450.0 L 1673.2050807568876 1400.0 v -100 L 1586.6025403784438 1250.0 "/>
                <circle cx="1586.6025403784438" cy="1350.0" r='70.0' stroke='black' fill="none" stroke-width="1"/>
    </g>
    <g fill="none" stroke="#000">
                <path d="M1500.0 1400.0 L 1413.3974596215562 1450.0 v 100 L 1500.0 1600.0 L 1586.6025403784438 1550.0 v -100 L 1500.0 1400.0 "/>
                <circle cx="1500.0" cy="1500.0" r='70.0' stroke='black' fill="none" stroke-width="1"/>
    </g>
    <g fill="none" stroke="#000">
                <path d="M1673.2050807568878 1400.0 L 1586.602540378444 1450.0 v 100 L 1673.2050807568878 1600.0 L 1759.8076211353316 1550.0 v -100 L 1673.2050807568878 1400.0 "/>
                <circle cx="1673.2050807568878" cy="1500.0" r='70.0' stroke='black' fill="none" stroke-width="1"/>
    </g>
    <g fill="none" stroke="#000">
                <path d="M1846.4101615137754 1400.0 L 1759.8076211353316 1450.0 v 100 L 1846.4101615137754 1600.0 L 1933.0127018922192 1550.0 v -100 L 1846.4101615137754 1400.0 "/>
                <circle cx="1846.4101615137754" cy="1500.0" r='70.0' stroke='black' fill="none" stroke-width="1"/>
    </g>
    <g fill="none" stroke="#000">
                <path d="M1673.2050807568878 1100.0 L 1586.602540378444 1150.0 v 100 L 1673.2050807568878 1300.0 L 1759.8076211353316 1250.0 v -100 L 1673.2050807568878 1100.0 "/>
    </g>
    <g fill="none" stroke="#000">
                <path d="M1586.6025403784438 1250.0 L 1500.0 1300.0 v 100 L 1586.6025403784438 1450.0 L 1673.2050807568876 1400.0 v -100 L 1586.6025403784438 1250.0 "/>
                <circle cx="1586.6025403784438" cy="1350.0" r='70.0' stroke='black' fill="none" stroke-width="1"/>
    </g>
    <g fill="none" stroke="#000">
                <path d="M1500.0 1400.0 L 1413.3974596215562 1450.0 v 100 L 1500.0 1600.0 L 1586.6025403784438 1550.0 v -100 L 1500.0 1400.0 "/>
                <circle cx="1500.0" cy="1500.0" r='70.0' stroke='black' fill="none" stroke-width="1"/>
    </g>
    <g fill="none" stroke="#000">
                <path d="M1673.2050807568878 1400.0 L 1586.602540378444 1450.0 v 100 L 1673.2050807568878 1600.0 L 1759.8076211353316 1550.0 v -100 L 1673.2050807568878 1400.0 "/>
                <circle cx="1673.2050807568878" cy="1500.0" r='70.0' stroke='black' fill="none" stroke-width="1"/>
    </g>
    <g fill="none" stroke="#000">
                <path d="M1846.4101615137754 1400.0 L 1759.8076211353316 1450.0 v 100 L 1846.4101615137754 1600.0 L 1933.0127018922192 1550.0 v -100 L 1846.4101615137754 1400.0 "/>
                <circle cx="1846.4101615137754" cy="1500.0" r='70.0' stroke='black' fill="none" stroke-width="1"/>
    </g>
    <g fill="none" stroke="#000">
                <path d="M1673.2050807568878 1100.0 L 1586.602540378444 1150.0 v 100 L 1673.2050807568878 1300.0 L 1759.8076211353316 1250.0 v -100 L 1673.2050807568878 1100.0 "/>
    </g>
    <g fill="none" stroke="#000">
                <path d="M1586.6025403784438 1250.0 L 1500.0 1300.0 v 100 L 1586.6025403784438 1450.0 L 1673.2050807568876 1400.0 v -100 L 1586.6025403784438 1250.0 "/>
                <circle cx="1586.6025403784438" cy="1350.0" r='70.0' stroke='black' fill="none" stroke-width="1"/>
    </g>
    <g fill="none" stroke="#000">
                <path d="M1500.0 1400.0 L 1413.3974596215562 1450.0 v 100 L 1500.0 1600.0 L 1586.6025403784438 1550.0 v -100 L 1500.0 1400.0 "/>
                <circle cx="1500.0" cy="1500.0" r='70.0' stroke='black' fill="none" stroke-width="1"/>
    </g>
    <g fill="none" stroke="#000">
                <path d="M1673.2050807568878 1400.0 L 1586.602540378444 1450.0 v 100 L 1673.2050807568878 1600.0 L 1759.8076211353316 1550.0 v -100 L 1673.2050807568878 1400.0 "/>
                <circle cx="1673.2050807568878" cy="1500.0" r='70.0' stroke='black' fill="none" stroke-width="1"/>
    </g>
    <g fill="none" stroke="#000">
                <path d="M1846.4101615137754 1400.0 L 1759.8076211353316 1450.0 v 100 L 1846.4101615137754 1600.0 L 1933.0127018922192 1550.0 v -100 L 1846.4101615137754 1400.0 "/>
                <circle cx="1846.4101615137754" cy="1500.0" r='70.0' stroke='black' fill="none" stroke-width="1"/>
    </g>
    <g fill="none" stroke="#000">
                <path d="M1673.2050807568878 1100.0 L 1586.602540378444 1150.0 v 100 L 1673.2050807568878 1300.0 L 1759.8076211353316 1250.0 v -100 L 1673.2050807568878 1100.0 "/>
    </g>
    <g fill="none" stroke="#000">
                <path d="M1586.6025403784438 1250.0 L 1500.0 1300.0 v 100 L 1586.6025403784438 1450.0 L 1673.2050807568876 1400.0 v -100 L 1586.6025403784438 1250.0 "/>
                <circle cx="1586.6025403784438" cy="1350.0" r='70.0' stroke='black' fill="none" stroke-width="1"/>
    </g>
    <g fill="none" stroke="#000">
                <path d="M1500.0 1400.0 L 1413.3974596215562 1450.0 v 100 L 1500.0 1600.0 L 1586.6025403784438 1550.0 v -100 L 1500.0 1400.0 "/>
                <circle cx="1500.0" cy="1500.0" r='70.0' stroke='black' fill="none" stroke-width="1"/>
    </g>
    <g fill="none" stroke="#000">
                <path d="M1673.2050807568878 1400.0 L 1586.602540378444 1450.0 v 100 L 1673.2050807568878 1600.0 L 1759.8076211353316 1550.0 v -100 L 1673.2050807568878 1400.0 "/>
                <circle cx="1673.2050807568878" cy="1500.0" r='70.0' stroke='black' fill="none" stroke-width="1"/>
    </g>
    <g fill="none" stroke="#000">
                <path d="M1846.4101615137754 1400.0 L 1759.8076211353316 1450.0 v 100 L 1846.4101615137754 1600.0 L 1933.0127018922192 1550.0 v -100 L 1846.4101615137754 1400.0 "/>
                <circle cx="1846.4101615137754" cy="1500.0" r='70.0' stroke='black' fill="none" stroke-width="1"/>
    </g>
    <g fill="none" stroke="#000" transform='rotate(-150 1422.2891817989987 1634.5990854218824)'>
                <path d="M1422.2891817989987 1549.5340045866783 L 1341.387482361504 1608.3125298159257  L 1372.2891817989987 1703.418181445441 L 1472.2891817989987 1703.418181445441  L 1503.1908812364934 1608.3125298159257 L 1422.2891817989987 1549.5340045866783"/>
    </g>
    </svg>
