<?xml version="1.0" encoding="UTF-8"?>
<svg version="1.1" viewBox="0 0 3000 3000" xmlns="http://www.w3.org/2000/svg">
<g fill="none" stroke="#000">
                <path d="M1673.2050807568878 1100.0 L 1586.602540378444 1150.0 v 100 L 1673.2050807568878 1300.0 L 1759.8076211353316 1250.0 v -100 L 1673.2050807568878 1100.0 "/>
                <circle cx="1673.2050807568878" cy="1200.0" r='70.0' stroke='black' fill="none" stroke-width="1"/>
    </g>
    <g fill="none" stroke="#000">
                <path d="M1413.3974596215562 1250.0 L 1326.7949192431124 1300.0 v 100 L 1413.3974596215562 1450.0 L 1500.0 1400.0 v -100 L 1413.3974596215562 1250.0 "/>
                <circle cx="1413.3974596215562" cy="1350.0" r='70.0' stroke='black' fill="none" stroke-width="1"/>
    </g>
    <g fill="none" stroke="#000">
                <path d="M1586.6025403784438 1250.0 L 1500.0 1300.0 v 100 L 1586.6025403784438 1450.0 L 1673.2050807568876 1400.0 v -100 L 1586.6025403784438 1250.0 "/>
                <circle cx="1586.6025403784438" cy="1350.0" r='70.0' stroke='black' fill="none" stroke-width="1"/>
    </g>
    <g fill="none" stroke="#000">
                <path d="M1326.7949192431122 1400.0 L 1240.1923788646684 1450.0 v 100 L 1326.7949192431122 1600.0 L 1413.397459621556 1550.0 v -100 L 1326.7949192431122 1400.0 "/>
                <circle cx="1326.7949192431122" cy="1500.0" r='70.0' stroke='black' fill="none" stroke-width="1"/>
    </g>
    <g fill="none" stroke="#000">
                <path d="M1500.0 1400.0 L 1413.3974596215562 1450.0 v 100 L 1500.0 1600.0 L 1586.6025403784438 1550.0 v -100 L 1500.0 1400.0 "/>
                <circle cx="1500.0" cy="1500.0" r='70.0' stroke='black' fill="none" stroke-width="1"/>
    </g>
    <g fill="none" stroke="#000">
                <path d="M1413.3974596215562 1550.0 L 1326.7949192431124 1600.0 v 100 L 1413.3974596215562 1750.0 L 1500.0 1700.0 v -100 L 1413.3974596215562 1550.0 "/>
                <circle cx="1413.3974596215562" cy="1650.0" r='70.0' stroke='black' fill="none" stroke-width="1"/>
    </g>
    <g fill="none" stroke="#000">
                <path d="M1673.2050807568878 1100.0 L 1586.602540378444 1150.0 v 100 L 1673.2050807568878 1300.0 L 1759.8076211353316 1250.0 v -100 L 1673.2050807568878 1100.0 "/>
                <circle cx="1673.2050807568878" cy="1200.0" r='70.0' stroke='black' fill="none" stroke-width="1"/>
    </g>
    <g fill="none" stroke="#000">
                <path d="M1413.3974596215562 1250.0 L 1326.7949192431124 1300.0 v 100 L 1413.3974596215562 1450.0 L 1500.0 1400.0 v -100 L 1413.3974596215562 1250.0 "/>
                <circle cx="1413.3974596215562" cy="1350.0" r='70.0' stroke='black' fill="none" stroke-width="1"/>
    </g>
    <g fill="none" stroke="#000">
                <path d="M1586.6025403784438 1250.0 L 1500.0 1300.0 v 100 L 1586.6025403784438 1450.0 L 1673.2050807568876 1400.0 v -100 L 1586.6025403784438 1250.0 "/>
                <circle cx="1586.6025403784438" cy="1350.0" r='70.0' stroke='black' fill="none" stroke-width="1"/>
    </g>
    <g fill="none" stroke="#000">
                <path d="M1326.7949192431122 1400.0 L 1240.1923788646684 1450.0 v 100 L 1326.7949192431122 1600.0 L 1413.397459621556 1550.0 v -100 L 1326.7949192431122 1400.0 "/>
                <circle cx="1326.7949192431122" cy="1500.0" r='70.0' stroke='black' fill="none" stroke-width="1"/>
    </g>
    <g fill="none" stroke="#000">
                <path d="M1500.0 1400.0 L 1413.3974596215562 1450.0 v 100 L 1500.0 1600.0 L 1586.6025403784438 1550.0 v -100 L 1500.0 1400.0 "/>
                <circle cx="1500.0" cy="1500.0" r='70.0' stroke='black' fill="none" stroke-width="1"/>
    </g>
    <g fill="none" stroke="#000">
                <path d="M1413.3974596215562 1550.0 L 1326.7949192431124 1600.0 v 100 L 1413.3974596215562 1750.0 L 1500.0 1700.0 v -100 L 1413.3974596215562 1550.0 "/>
                <circle cx="1413.3974596215562" cy="1650.0" r='70.0' stroke='black' fill="none" stroke-width="1"/>
    </g>
    <g fill="none" stroke="#000">
                <path d="M1673.2050807568878 1100.0 L 1586.602540378444 1150.0 v 100 L 1673.2050807568878 1300.0 L 1759.8076211353316 1250.0 v -100 L 1673.2050807568878 1100.0 "/>
                <circle cx="1673.2050807568878" cy="1200.0" r='70.0' stroke='black' fill="none" stroke-width="1"/>
    </g>
    <g fill="none" stroke="#000">
                <path d="M1413.3974596215562 1250.0 L 1326.7949192431124 1300.0 v 100 L 1413.3974596215562 1450.0 L 1500.0 1400.0 v -100 L 1413.3974596215562 1250.0 "/>
                <circle cx="1413.3974596215562" cy="1350.0" r='70.0' stroke='black' fill="none" stroke-width="1"/>
    </g>
    <g fill="none" stroke="#000">
                <path d="M1586.6025403784438 1250.0 L 1500.0 1300.0 v 100 L 1586.6025403784438 1450.0 L 1673.2050807568876 1400.0 v -100 L 1586.6025403784438 1250.0 "/>
                <circle cx="1586.6025403784438" cy="1350.0" r='70.0' stroke='black' fill="none" stroke-width="1"/>
    </g>
    <g fill="none" stroke="#000">
                <path d="M1326.7949192431122 1400.0 L 1240.1923788646684 1450.0 v 100 L 1326.7949192431122 1600.0 L 1413.397459621556 1550.0 v -100 L 1326.7949192431122 1400.0 "/>
                <circle cx="1326.7949192431122" cy="1500.0" r='70.0' stroke='black' fill="none" stroke-width="1"/>
    </g>
    <g fill="none" stroke="#000">
                <path d="M1500.0 1400.0 L 1413.3974596215562 1450.0 v 100 L 1500.0 1600.0 L 1586.6025403784438 1550.0 v -100 L 1500.0 1400.0 "/>
                <circle cx="1500.0" cy="1500.0" r='70.0' stroke='black' fill="none" stroke-width="1"/>
    </g>
    <g fill="none" stroke="#000">
                <path d="M1413.3974596215562 1550.0 L 1326.7949192431124 1600.0 v 100 L 1413.3974596215562 1750.0 L 1500.0 1700.0 v -100 L 1413.3974596215562 1550.0 "/>
                <circle cx="1413.3974596215562" cy="1650.0" r='70.0' stroke='black' fill="none" stroke-width="1"/>
    </g>
    <g fill="none" stroke="#000">
                <path d="M1673.2050807568878 1100.0 L 1586.602540378444 1150.0 v 100 L 1673.2050807568878 1300.0 L 1759.8076211353316 1250.0 v -100 L 1673.2050807568878 1100.0 "/>
                <circle cx="1673.2050807568878" cy="1200.0" r='70.0' stroke='black' fill="none" stroke-width="1"/>
    </g>
    <g fill="none" stroke="#000">
                <path d="M1413.3974596215562 1250.0 L 1326.7949192431124 1300.0 v 100 L 1413.3974596215562 1450.0 L 1500.0 1400.0 v -100 L 1413.3974596215562 1250.0 "/>
                <circle cx="1413.3974596215562" cy="1350.0" r='70.0' stroke='black' fill="none" stroke-width="1"/>
    </g>
    <g fill="none" stroke="#000">
                <path d="M1586.6025403784438 1250.0 L 1500.0 1300.0 v 100 L 1586.6025403784438 1450.0 L 1673.2050807568876 1400.0 v -100 L 1586.6025403784438 1250.0 "/>
                <circle cx="1586.6025403784438" cy="1350.0" r='70.0' stroke='black' fill="none" stroke-width="1"/>
    </g>
    <g fill="none" stroke="#000">
                <path d="M1326.7949192431122 1400.0 L 1240.1923788646684 1450.0 v 100 L 1326.7949192431122 1600.0 L 1413.397459621556 1550.0 v -100 L 1326.7949192431122 1400.0 "/>
                <circle cx="1326.7949192431122" cy="1500.0" r='70.0' stroke='black' fill="none" stroke-width="1"/>
    </g>
    <g fill="none" stroke="#000">
                <path d="M1500.0 1400.0 L 1413.3974596215562 1450.0 v 100 L 1500.0 1600.0 L 1586.6025403784438 1550.0 v -100 L 1500.0 1400.0 "/>
                <circle cx="1500.0" cy="1500.0" r='70.0' stroke='black' fill="none" stroke-width="1"/>
    </g>
    <g fill="none" stroke="#000">
                <path d="M1413.3974596215562 1550.0 L 1326.7949192431124 1600.0 v 100 L 1413.3974596215562 1750.0 L 1500.0 1700.0 v -100 L 1413.3974596215562 1550.0 "/>
                <circle cx="1413.3974596215562" cy="1650.0" r='70.0' stroke='black' fill="none" stroke-width="1"/>
    </g>
    <g fill="none" stroke="#000">
                <path d="M1673.2050807568878 1100.0 L 1586.602540378444 1150.0 v 100 L 1673.2050807568878 1300.0 L 1759.8076211353316 1250.0 v -100 L 1673.2050807568878 1100.0 "/>
                <circle cx="1673.2050807568878" cy="1200.0" r='70.0' stroke='black' fill="none" stroke-width="1"/>
    </g>
    <g fill="none" stroke="#000">
                <path d="M1413.3974596215562 1250.0 L 1326.7949192431124 1300.0 v 100 L 1413.3974596215562 1450.0 L 1500.0 1400.0 v -100 L 1413.3974596215562 1250.0 "/>
                <circle cx="1413.3974596215562" cy="1350.0" r='70.0' stroke='black' fill="none" stroke-width="1"/>
    </g>
    <g fill="none" stroke="#000">
                <path d="M1586.6025403784438 1250.0 L 1500.0 1300.0 v 100 L 1586.6025403784438 1450.0 L 1673.2050807568876 1400.0 v -100 L 1586.6025403784438 1250.0 "/>
                <circle cx="1586.6025403784438" cy="1350.0" r='70.0' stroke='black' fill="none" stroke-width="1"/>
    </g>
    <g fill="none" stroke="#000">
                <path d="M1326.7949192431122 1400.0 L 1240.1923788646684 1450.0 v 100 L 1326.7949192431122 1600.0 L 1413.397459621556 1550.0 v -100 L 1326.7949192431122 1400.0 "/>
                <circle cx="1326.7949192431122" cy="1500.0" r='70.0' stroke='black' fill="none" stroke-width="1"/>
    </g>
    <g fill="none" stroke="#000">
                <path d="M1500.0 1400.0 L 1413.3974596215562 1450.0 v 100 L 1500.0 1600.0 L 1586.6025403784438 1550.0 v -100 L 1500.0 1400.0 "/>
                <circle cx="1500.0" cy="1500.0" r='70.0' stroke='black' fill="none" stroke-width="1"/>
    </g>
    <g fill="none" stroke="#000">
                <path d="M1413.3974596215562 1550.0 L 1326.7949192431124 1600.0 v 100 L 1413.3974596215562 1750.0 L 1500.0 1700.0 v -100 L 1413.3974596215562 1550.0 "/>
                <circle cx="1413.3974596215562" cy="1650.0" r='70.0' stroke='black' fill="none" stroke-width="1"/>
    </g>
    <g fill="none" stroke="#000">
                <path d="M1673.2050807568878 1100.0 L 1586.602540378444 1150.0 v 100 L 1673.2050807568878 1300.0 L 1759.8076211353316 1250.0 v -100 L 1673.2050807568878 1100.0 "/>
                <circle cx="1673.2050807568878" cy="1200.0" r='70.0' stroke='black' fill="none" stroke-width="1"/>
    </g>
    <g fill="none" stroke="#000">
                <path d="M1413.3974596215562 1250.0 L 1326.7949192431124 1300.0 v 100 L 1413.3974596215562 1450.0 L 1500.0 1400.0 v -100 L 1413.3974596215562 1250.0 "/>
                <circle cx="1413.3974596215562" cy="1350.0" r='70.0' stroke='black' fill="none" stroke-width="1"/>
    </g>
    <g fill="none" stroke="#000">
                <path d="M1586.6025403784438 1250.0 L 1500.0 1300.0 v 100 L 1586.6025403784438 1450.0 L 1673.2050807568876 1400.0 v -100 L 1586.6025403784438 1250.0 "/>
                <circle cx="1586.6025403784438" cy="1350.0" r='70.0' stroke='black' fill="none" stroke-width="1"/>
    </g>
    <g fill="none" stroke="#000">
                <path d="M1326.7949192431122 1400.0 L 1240.1923788646684 1450.0 v 100 L 1326.7949192431122 1600.0 L 1413.397459621556 1550.0 v -100 L 1326.7949192431122 1400.0 "/>
                <circle cx="1326.7949192431122" cy="1500.0" r='70.0' stroke='black' fill="none" stroke-width="1"/>
    </g>
    <g fill="none" stroke="#000">
                <path d="M1500.0 1400.0 L 1413.3974596215562 1450.0 v 100 L 1500.0 1600.0 L 1586.6025403784438 1550.0 v -100 L 1500.0 1400.0 "/>
                <circle cx="1500.0" cy="1500.0" r='70.0' stroke='black' fill="none" stroke-width="1"/>
    </g>
    <g fill="none" stroke="#000">
                <path d="M1413.3974596215562 1550.0 L 1326.7949192431124 1600.0 v 100 L 1413.3974596215562 1750.0 L 1500.0 1700.0 v -100 L 1413.3974596215562 1550.0 "/>
                <circle cx="1413.3974596215562" cy="1650.0" r='70.0' stroke='black' fill="none" stroke-width="1"/>
    </g>
    <g fill="none" stroke="#000">
                <path d="M1673.2050807568878 1100.0 L 1586.602540378444 1150.0 v 100 L 1673.2050807568878 1300.0 L 1759.8076211353316 1250.0 v -100 L 1673.2050807568878 1100.0 "/>
                <circle cx="1673.2050807568878" cy="1200.0" r='70.0' stroke='black' fill="none" stroke-width="1"/>
    </g>
    <g fill="none" stroke="#000">
                <path d="M1413.3974596215562 1250.0 L 1326.7949192431124 1300.0 v 100 L 1413.3974596215562 1450.0 L 1500.0 1400.0 v -100 L 1413.3974596215562 1250.0 "/>
                <circle cx="1413.3974596215562" cy="1350.0" r='70.0' stroke='black' fill="none" stroke-width="1"/>
    </g>
    <g fill="none" stroke="#000">
                <path d="M1586.6025403784438 1250.0 L 1500.0 1300.0 v 100 L 1586.6025403784438 1450.0 L 1673.2050807568876 1400.0 v -100 L 1586.6025403784438 1250.0 "/>
                <circle cx="1586.6025403784438" cy="1350.0" r='70.0' stroke='black' fill="none" stroke-width="1"/>
    </g>
    <g fill="none" stroke="#000">
                <path d="M1326.7949192431122 1400.0 L 1240.1923788646684 1450.0 v 100 L 1326.7949192431122 1600.0 L 1413.397459621556 1550.0 v -100 L 1326.7949192431122 1400.0 "/>
                <circle cx="1326.7949192431122" cy="1500.0" r='70.0' stroke='black' fill="none" stroke-width="1"/>
    </g>
    <g fill="none" stroke="#000">
                <path d="M1500.0 1400.0 L 1413.3974596215562 1450.0 v 100 L 1500.0 1600.0 L 1586.6025403784438 1550.0 v -100 L 1500.0 1400.0 "/>
                <circle cx="1500.0" cy="1500.0" r='70.0' stroke='black' fill="none" stroke-width="1"/>
    </g>
    <g fill="none" stroke="#000">
                <path d="M1413.3974596215562 1550.0 L 1326.7949192431124 1600.0 v 100 L 1413.3974596215562 1750.0 L 1500.0 1700.0 v -100 L 1413.3974596215562 1550.0 "/>
                <circle cx="1413.3974596215562" cy="1650.0" r='70.0' stroke='black' fill="none" stroke-width="1"/>
    </g>
    <g fill="none" stroke="#000">
                <path d="M1673.2050807568878 1100.0 L 1586.602540378444 1150.0 v 100 L 1673.2050807568878 1300.0 L 1759.8076211353316 1250.0 v -100 L 1673.2050807568878 1100.0 "/>
                <circle cx="1673.2050807568878" cy="1200.0" r='70.0' stroke='black' fill="none" stroke-width="1"/>
    </g>
    <g fill="none" stroke="#000">
                <path d="M1413.3974596215562 1250.0 L 1326.7949192431124 1300.0 v 100 L 1413.3974596215562 1450.0 L 1500.0 1400.0 v -100 L 1413.3974596215562 1250.0 "/>
                <circle cx="1413.3974596215562" cy="1350.0" r='70.0' stroke='black' fill="none" stroke-width="1"/>
    </g>
    <g fill="none" stroke="#000">
                <path d="M1586.6025403784438 1250.0 L 1500.0 1300.0 v 100 L 1586.6025403784438 1450.0 L 1673.2050807568876 1400.0 v -100 L 1586.6025403784438 1250.0 "/>
                <circle cx="1586.6025403784438" cy="1350.0" r='70.0' stroke='black' fill="none" stroke-width="1"/>
    </g>
    <g fill="none" stroke="#000">
                <path d="M1326.7949192431122 1400.0 L 1240.1923788646684 1450.0 v 100 L 1326.7949192431122 1600.0 L 1413.397459621556 1550.0 v -100 L 1326.7949192431122 1400.0 "/>
                <circle cx="1326.7949192431122" cy="1500.0" r='70.0' stroke='black' fill="none" stroke-width="1"/>
    </g>
    <g fill="none" stroke="#000">
                <path d="M1500.0 1400.0 L 1413.3974596215562 1450.0 v 100 L 1500.0 1600.0 L 1586.6025403784438 1550.0 v -100 L 1500.0 1400.0 "/>
                <circle cx="1500.0" cy="1500.0" r='70.0' stroke='black' fill="none" stroke-width="1"/>
    </g>
    <g fill="none" stroke="#000">
                <path d="M1413.3974596215562 1550.0 L 1326.7949192431124 1600.0 v 100 L 1413.3974596215562 1750.0 L 1500.0 1700.0 v -100 L 1413.3974596215562 1550.0 "/>
                <circle cx="1413.3974596215562" cy="1650.0" r='70.0' stroke='black' fill="none" stroke-width="1"/>
    </g>
    <g fill="none" stroke="#000" transform='rotate(-90 1171.3732828411096 1500.0)'>
                <path d="M1171.3732828411096 1414.934919164796 L 1090.4715834036149 1473.7134443940433  L 1121.3732828411096 1568.8190960235586 L 1221.3732828411096 1568.8190960235586  L 1252.2749822786043 1473.7134443940433 L 1171.3732828411096 1414.934919164796"/>
    </g>
    <g fill="none" stroke="#000" transform='rotate(-90 1171.3732828411096 1500.0)'>
                <path d="M1171.3732828411096 1414.934919164796 L 1090.4715834036149 1473.7134443940433  L 1121.3732828411096 1568.8190960235586 L 1221.3732828411096 1568.8190960235586  L 1252.2749822786043 1473.7134443940433 L 1171.3732828411096 1414.934919164796"/>
    </g>
    <g fill="none" stroke="#000" transform='rotate(-90 1171.3732828411096 1500.0)'>
                <path d="M1171.3732828411096 1414.934919164796 L 1090.4715834036149 1473.7134443940433  L 1121.3732828411096 1568.8190960235586 L 1221.3732828411096 1568.8190960235586  L 1252.2749822786043 1473.7134443940433 L 1171.3732828411096 1414.934919164796"/>
    </g>
    <g fill="none" stroke="#000" transform='rotate(-210 1491.1082778225575 1784.5990854218824)'>
                <path d="M1491.1082778225575 1699.5340045866783 L 1410.2065783850628 1758.3125298159257  L 1441.1082778225575 1853.418181445441 L 1541.1082778225575 1853.418181445441  L 1572.0099772600522 1758.3125298159257 L 1491.1082778225575 1699.5340045866783"/>
    </g>
    <g fill="none" stroke="#000" transform='rotate(-90 1171.3732828411096 1500.0)'>
                <path d="M1171.3732828411096 1414.934919164796 L 1090.4715834036149 1473.7134443940433  L 1121.3732828411096 1568.8190960235586 L 1221.3732828411096 1568.8190960235586  L 1252.2749822786043 1473.7134443940433 L 1171.3732828411096 1414.934919164796"/>
    </g>
    <g fill="none" stroke="#000" transform='rotate(-210 1491.1082778225575 1784.5990854218824)'>
                <path d="M1491.1082778225575 1699.5340045866783 L 1410.2065783850628 1758.3125298159257  L 1441.1082778225575 1853.418181445441 L 1541.1082778225575 1853.418181445441  L 1572.0099772600522 1758.3125298159257 L 1491.1082778225575 1699.5340045866783"/>
    </g>
    <g fill="none" stroke="#000" transform='rotate(-90 1171.3732828411096 1500.0)'>
                <path d="M1171.3732828411096 1414.934919164796 L 1090.4715834036149 1473.7134443940433  L 1121.3732828411096 1568.8190960235586 L 1221.3732828411096 1568.8190960235586  L 1252.2749822786043 1473.7134443940433 L 1171.3732828411096 1414.934919164796"/>
    </g>
    <g fill="none" stroke="#000" transform='rotate(-210 1491.1082778225575 1784.5990854218824)'>
                <path d="M1491.1082778225575 1699.5340045866783 L 1410.2065783850628 1758.3125298159257  L 1441.1082778225575 1853.418181445441 L 1541.1082778225575 1853.418181445441  L 1572.0099772600522 1758.3125298159257 L 1491.1082778225575 1699.5340045866783"/>
    </g>
    <g fill="none" stroke="#000" transform='rotate(-30 1595.4942625558865 1065.4009145781174)'>
                <path d="M1595.4942625558865 980.3358337429135 L 1514.5925631183918 1039.1143589721607  L 1545.4942625558865 1134.220010601676 L 1645.4942625558865 1134.220010601676  L 1676.3959619933812 1039.1143589721607 L 1595.4942625558865 980.3358337429135"/>
    </g>
    </svg>
