<?xml version="1.0" encoding="UTF-8"?>
<svg version="1.1" viewBox="0 0 3000 3000" xmlns="http://www.w3.org/2000/svg">
<g fill="none" stroke="#000">
                <path d="M1413.3974596215562 950.0 L 1326.7949192431124 1000.0 v 100 L 1413.3974596215562 1150.0 L 1500.0 1100.0 v -100 L 1413.3974596215562 950.0 "/>
                <circle cx="1413.3974596215562" cy="1050.0" r='70.0' stroke='black' fill="none" stroke-width="1"/>
    </g>
    <g fill="none" stroke="#000">
                <path d="M1500.0 1100.0 L 1413.3974596215562 1150.0 v 100 L 1500.0 1300.0 L 1586.6025403784438 1250.0 v -100 L 1500.0 1100.0 "/>
                <circle cx="1500.0" cy="1200.0" r='70.0' stroke='black' fill="none" stroke-width="1"/>
    </g>
    <g fill="none" stroke="#000">
                <path d="M1413.3974596215562 1250.0 L 1326.7949192431124 1300.0 v 100 L 1413.3974596215562 1450.0 L 1500.0 1400.0 v -100 L 1413.3974596215562 1250.0 "/>
                <circle cx="1413.3974596215562" cy="1350.0" r='70.0' stroke='black' fill="none" stroke-width="1"/>
    </g>
    <g fill="none" stroke="#000">
                <path d="M1586.6025403784438 1250.0 L 1500.0 1300.0 v 100 L 1586.6025403784438 1450.0 L 1673.2050807568876 1400.0 v -100 L 1586.6025403784438 1250.0 "/>
                <circle cx="1586.6025403784438" cy="1350.0" r='70.0' stroke='black' fill="none" stroke-width="1"/>
    </g>
    <g fill="none" stroke="#000">
                <path d="M1500.0 1400.0 L 1413.3974596215562 1450.0 v 100 L 1500.0 1600.0 L 1586.6025403784438 1550.0 v -100 L 1500.0 1400.0 "/>
                <circle cx="1500.0" cy="1500.0" r='70.0' stroke='black' fill="none" stroke-width="1"/>
    </g>
    <g fill="none" stroke="#000">
                <path d="M1673.2050807568878 1400.0 L 1586.602540378444 1450.0 v 100 L 1673.2050807568878 1600.0 L 1759.8076211353316 1550.0 v -100 L 1673.2050807568878 1400.0 "/>
                <circle cx="1673.2050807568878" cy="1500.0" r='70.0' stroke='black' fill="none" stroke-width="1"/>
    </g>
    <g fill="none" stroke="#000">
                <path d="M1413.3974596215562 1550.0 L 1326.7949192431124 1600.0 v 100 L 1413.3974596215562 1750.0 L 1500.0 1700.0 v -100 L 1413.3974596215562 1550.0 "/>
                <circle cx="1413.3974596215562" cy="1650.0" r='70.0' stroke='black' fill="none" stroke-width="1"/>
    </g>
    <g fill="none" stroke="#000">
                <path d="M1586.6025403784438 1550.0 L 1500.0 1600.0 v 100 L 1586.6025403784438 1750.0 L 1673.2050807568876 1700.0 v -100 L 1586.6025403784438 1550.0 "/>
                <circle cx="1586.6025403784438" cy="1650.0" r='70.0' stroke='black' fill="none" stroke-width="1"/>
    </g>
    <g fill="none" stroke="#000">
                <path d="M1759.8076211353316 1550.0 L 1673.2050807568878 1600.0 v 100 L 1759.8076211353316 1750.0 L 1846.4101615137754 1700.0 v -100 L 1759.8076211353316 1550.0 "/>
                <circle cx="1759.8076211353316" cy="1650.0" r='70.0' stroke='black' fill="none" stroke-width="1"/>
    </g>
    <g fill="none" stroke="#000">
                <path d="M1153.5898384862246 1700.0 L 1066.9872981077808 1750.0 v 100 L 1153.5898384862246 1900.0 L 1240.1923788646684 1850.0 v -100 L 1153.5898384862246 1700.0 "/>
                <circle cx="1153.5898384862246" cy="1800.0" r='70.0' stroke='black' fill="none" stroke-width="1"/>
    </g>
    <g fill="none" stroke="#000">
                <path d="M1326.7949192431122 1700.0 L 1240.1923788646684 1750.0 v 100 L 1326.7949192431122 1900.0 L 1413.397459621556 1850.0 v -100 L 1326.7949192431122 1700.0 "/>
                <circle cx="1326.7949192431122" cy="1800.0" r='70.0' stroke='black' fill="none" stroke-width="1"/>
    </g>
    <g fill="none" stroke="#000">
                <path d="M1413.3974596215562 1850.0 L 1326.7949192431124 1900.0 v 100 L 1413.3974596215562 2050.0 L 1500.0 2000.0 v -100 L 1413.3974596215562 1850.0 "/>
                <circle cx="1413.3974596215562" cy="1950.0" r='70.0' stroke='black' fill="none" stroke-width="1"/>
    </g>
    <g fill="none" stroke="#000">
                <path d="M1500.0 800.0 L 1413.3974596215562 850.0 v 100 L 1500.0 1000.0 L 1586.6025403784438 950.0 v -100 L 1500.0 800.0 "/>
    </g>
    <g fill="none" stroke="#000">
                <path d="M1413.3974596215562 950.0 L 1326.7949192431124 1000.0 v 100 L 1413.3974596215562 1150.0 L 1500.0 1100.0 v -100 L 1413.3974596215562 950.0 "/>
                <circle cx="1413.3974596215562" cy="1050.0" r='70.0' stroke='black' fill="none" stroke-width="1"/>
    </g>
    <g fill="none" stroke="#000">
                <path d="M1500.0 1100.0 L 1413.3974596215562 1150.0 v 100 L 1500.0 1300.0 L 1586.6025403784438 1250.0 v -100 L 1500.0 1100.0 "/>
                <circle cx="1500.0" cy="1200.0" r='70.0' stroke='black' fill="none" stroke-width="1"/>
    </g>
    <g fill="none" stroke="#000">
                <path d="M1413.3974596215562 1250.0 L 1326.7949192431124 1300.0 v 100 L 1413.3974596215562 1450.0 L 1500.0 1400.0 v -100 L 1413.3974596215562 1250.0 "/>
                <circle cx="1413.3974596215562" cy="1350.0" r='70.0' stroke='black' fill="none" stroke-width="1"/>
    </g>
    <g fill="none" stroke="#000">
                <path d="M1586.6025403784438 1250.0 L 1500.0 1300.0 v 100 L 1586.6025403784438 1450.0 L 1673.2050807568876 1400.0 v -100 L 1586.6025403784438 1250.0 "/>
                <circle cx="1586.6025403784438" cy="1350.0" r='70.0' stroke='black' fill="none" stroke-width="1"/>
    </g>
    <g fill="none" stroke="#000">
                <path d="M1500.0 1400.0 L 1413.3974596215562 1450.0 v 100 L 1500.0 1600.0 L 1586.6025403784438 1550.0 v -100 L 1500.0 1400.0 "/>
                <circle cx="1500.0" cy="1500.0" r='70.0' stroke='black' fill="none" stroke-width="1"/>
    </g>
    <g fill="none" stroke="#000">
                <path d="M1673.2050807568878 1400.0 L 1586.602540378444 1450.0 v 100 L 1673.2050807568878 1600.0 L 1759.8076211353316 1550.0 v -100 L 1673.2050807568878 1400.0 "/>
                <circle cx="1673.2050807568878" cy="1500.0" r='70.0' stroke='black' fill="none" stroke-width="1"/>
    </g>
    <g fill="none" stroke="#000">
                <path d="M1413.3974596215562 1550.0 L 1326.7949192431124 1600.0 v 100 L 1413.3974596215562 1750.0 L 1500.0 1700.0 v -100 L 1413.3974596215562 1550.0 "/>
                <circle cx="1413.3974596215562" cy="1650.0" r='70.0' stroke='black' fill="none" stroke-width="1"/>
    </g>
    <g fill="none" stroke="#000">
                <path d="M1586.6025403784438 1550.0 L 1500.0 1600.0 v 100 L 1586.6025403784438 1750.0 L 1673.2050807568876 1700.0 v -100 L 1586.6025403784438 1550.0 "/>
                <circle cx="1586.6025403784438" cy="1650.0" r='70.0' stroke='black' fill="none" stroke-width="1"/>
    </g>
    <g fill="none" stroke="#000">
                <path d="M1759.8076211353316 1550.0 L 1673.2050807568878 1600.0 v 100 L 1759.8076211353316 1750.0 L 1846.4101615137754 1700.0 v -100 L 1759.8076211353316 1550.0 "/>
                <circle cx="1759.8076211353316" cy="1650.0" r='70.0' stroke='black' fill="none" stroke-width="1"/>
    </g>
    <g fill="none" stroke="#000">
                <path d="M1153.5898384862246 1700.0 L 1066.9872981077808 1750.0 v 100 L 1153.5898384862246 1900.0 L 1240.1923788646684 1850.0 v -100 L 1153.5898384862246 1700.0 "/>
                <circle cx="1153.5898384862246" cy="1800.0" r='70.0' stroke='black' fill="none" stroke-width="1"/>
    </g>
    <g fill="none" stroke="#000">
                <path d="M1326.7949192431122 1700.0 L 1240.1923788646684 1750.0 v 100 L 1326.7949192431122 1900.0 L 1413.397459621556 1850.0 v -100 L 1326.7949192431122 1700.0 "/>
                <circle cx="1326.7949192431122" cy="1800.0" r='70.0' stroke='black' fill="none" stroke-width="1"/>
    </g>
    <g fill="none" stroke="#000">
                <path d="M1413.3974596215562 1850.0 L 1326.7949192431124 1900.0 v 100 L 1413.3974596215562 2050.0 L 1500.0 2000.0 v -100 L 1413.3974596215562 1850.0 "/>
                <circle cx="1413.3974596215562" cy="1950.0" r='70.0' stroke='black' fill="none" stroke-width="1"/>
    </g>
    <g fill="none" stroke="#000">
                <path d="M1500.0 800.0 L 1413.3974596215562 850.0 v 100 L 1500.0 1000.0 L 1586.6025403784438 950.0 v -100 L 1500.0 800.0 "/>
    </g>
    <g fill="none" stroke="#000">
                <path d="M1413.3974596215562 950.0 L 1326.7949192431124 1000.0 v 100 L 1413.3974596215562 1150.0 L 1500.0 1100.0 v -100 L 1413.3974596215562 950.0 "/>
                <circle cx="1413.3974596215562" cy="1050.0" r='70.0' stroke='black' fill="none" stroke-width="1"/>
    </g>
    <g fill="none" stroke="#000">
                <path d="M1500.0 1100.0 L 1413.3974596215562 1150.0 v 100 L 1500.0 1300.0 L 1586.6025403784438 1250.0 v -100 L 1500.0 1100.0 "/>
                <circle cx="1500.0" cy="1200.0" r='70.0' stroke='black' fill="none" stroke-width="1"/>
    </g>
    <g fill="none" stroke="#000">
                <path d="M1413.3974596215562 1250.0 L 1326.7949192431124 1300.0 v 100 L 1413.3974596215562 1450.0 L 1500.0 1400.0 v -100 L 1413.3974596215562 1250.0 "/>
                <circle cx="1413.3974596215562" cy="1350.0" r='70.0' stroke='black' fill="none" stroke-width="1"/>
    </g>
    <g fill="none" stroke="#000">
                <path d="M1586.6025403784438 1250.0 L 1500.0 1300.0 v 100 L 1586.6025403784438 1450.0 L 1673.2050807568876 1400.0 v -100 L 1586.6025403784438 1250.0 "/>
                <circle cx="1586.6025403784438" cy="1350.0" r='70.0' stroke='black' fill="none" stroke-width="1"/>
    </g>
    <g fill="none" stroke="#000">
                <path d="M1500.0 1400.0 L 1413.3974596215562 1450.0 v 100 L 1500.0 1600.0 L 1586.6025403784438 1550.0 v -100 L 1500.0 1400.0 "/>
                <circle cx="1500.0" cy="1500.0" r='70.0' stroke='black' fill="none" stroke-width="1"/>
    </g>
    <g fill="none" stroke="#000">
                <path d="M1673.2050807568878 1400.0 L 1586.602540378444 1450.0 v 100 L 1673.2050807568878 1600.0 L 1759.8076211353316 1550.0 v -100 L 1673.2050807568878 1400.0 "/>
                <circle cx="1673.2050807568878" cy="1500.0" r='70.0' stroke='black' fill="none" stroke-width="1"/>
    </g>
    <g fill="none" stroke="#000">
                <path d="M1413.3974596215562 1550.0 L 1326.7949192431124 1600.0 v 100 L 1413.3974596215562 1750.0 L 1500.0 1700.0 v -100 L 1413.3974596215562 1550.0 "/>
                <circle cx="1413.3974596215562" cy="1650.0" r='70.0' stroke='black' fill="none" stroke-width="1"/>
    </g>
    <g fill="none" stroke="#000">
                <path d="M1586.6025403784438 1550.0 L 1500.0 1600.0 v 100 L 1586.6025403784438 1750.0 L 1673.2050807568876 1700.0 v -100 L 1586.6025403784438 1550.0 "/>
                <circle cx="1586.6025403784438" cy="1650.0" r='70.0' stroke='black' fill="none" stroke-width="1"/>
    </g>
    <g fill="none" stroke="#000">
                <path d="M1759.8076211353316 1550.0 L 1673.2050807568878 1600.0 v 100 L 1759.8076211353316 1750.0 L 1846.4101615137754 1700.0 v -100 L 1759.8076211353316 1550.0 "/>
                <circle cx="1759.8076211353316" cy="1650.0" r='70.0' stroke='black' fill="none" stroke-width="1"/>
    </g>
    <g fill="none" stroke="#000">
                <path d="M1153.5898384862246 1700.0 L 1066.9872981077808 1750.0 v 100 L 1153.5898384862246 1900.0 L 1240.1923788646684 1850.0 v -100 L 1153.5898384862246 1700.0 "/>
                <circle cx="1153.5898384862246" cy="1800.0" r='70.0' stroke='black' fill="none" stroke-width="1"/>
    </g>
    <g fill="none" stroke="#000">
                <path d="M1326.7949192431122 1700.0 L 1240.1923788646684 1750.0 v 100 L 1326.7949192431122 1900.0 L 1413.397459621556 1850.0 v -100 L 1326.7949192431122 1700.0 "/>
                <circle cx="1326.7949192431122" cy="1800.0" r='70.0' stroke='black' fill="none" stroke-width="1"/>
    </g>
    <g fill="none" stroke="#000">
                <path d="M1413.3974596215562 1850.0 L 1326.7949192431124 1900.0 v 100 L 1413.3974596215562 2050.0 L 1500.0 2000.0 v -100 L 1413.3974596215562 1850.0 "/>
                <circle cx="1413.3974596215562" cy="1950.0" r='70.0' stroke='black' fill="none" stroke-width="1"/>
    </g>
    <g fill="none" stroke="#000">
                <path d="M1326.7949192431122 2000.0 L 1240.1923788646684 2050.0 v 100 L 1326.7949192431122 2200.0 L 1413.397459621556 2150.0 v -100 L 1326.7949192431122 2000.0 "/>
    </g>
    <g fill="none" stroke="#000">
                <path d="M1500.0 800.0 L 1413.3974596215562 850.0 v 100 L 1500.0 1000.0 L 1586.6025403784438 950.0 v -100 L 1500.0 800.0 "/>
    </g>
    <g fill="none" stroke="#000">
                <path d="M1413.3974596215562 950.0 L 1326.7949192431124 1000.0 v 100 L 1413.3974596215562 1150.0 L 1500.0 1100.0 v -100 L 1413.3974596215562 950.0 "/>
                <circle cx="1413.3974596215562" cy="1050.0" r='70.0' stroke='black' fill="none" stroke-width="1"/>
    </g>
    <g fill="none" stroke="#000">
                <path d="M1500.0 1100.0 L 1413.3974596215562 1150.0 v 100 L 1500.0 1300.0 L 1586.6025403784438 1250.0 v -100 L 1500.0 1100.0 "/>
                <circle cx="1500.0" cy="1200.0" r='70.0' stroke='black' fill="none" stroke-width="1"/>
    </g>
    <g fill="none" stroke="#000">
                <path d="M1413.3974596215562 1250.0 L 1326.7949192431124 1300.0 v 100 L 1413.3974596215562 1450.0 L 1500.0 1400.0 v -100 L 1413.3974596215562 1250.0 "/>
                <circle cx="1413.3974596215562" cy="1350.0" r='70.0' stroke='black' fill="none" stroke-width="1"/>
    </g>
    <g fill="none" stroke="#000">
                <path d="M1586.6025403784438 1250.0 L 1500.0 1300.0 v 100 L 1586.6025403784438 1450.0 L 1673.2050807568876 1400.0 v -100 L 1586.6025403784438 1250.0 "/>
                <circle cx="1586.6025403784438" cy="1350.0" r='70.0' stroke='black' fill="none" stroke-width="1"/>
    </g>
    <g fill="none" stroke="#000">
                <path d="M1500.0 1400.0 L 1413.3974596215562 1450.0 v 100 L 1500.0 1600.0 L 1586.6025403784438 1550.0 v -100 L 1500.0 1400.0 "/>
                <circle cx="1500.0" cy="1500.0" r='70.0' stroke='black' fill="none" stroke-width="1"/>
    </g>
    <g fill="none" stroke="#000">
                <path d="M1673.2050807568878 1400.0 L 1586.602540378444 1450.0 v 100 L 1673.2050807568878 1600.0 L 1759.8076211353316 1550.0 v -100 L 1673.2050807568878 1400.0 "/>
                <circle cx="1673.2050807568878" cy="1500.0" r='70.0' stroke='black' fill="none" stroke-width="1"/>
    </g>
    <g fill="none" stroke="#000">
                <path d="M1413.3974596215562 1550.0 L 1326.7949192431124 1600.0 v 100 L 1413.3974596215562 1750.0 L 1500.0 1700.0 v -100 L 1413.3974596215562 1550.0 "/>
                <circle cx="1413.3974596215562" cy="1650.0" r='70.0' stroke='black' fill="none" stroke-width="1"/>
    </g>
    <g fill="none" stroke="#000">
                <path d="M1586.6025403784438 1550.0 L 1500.0 1600.0 v 100 L 1586.6025403784438 1750.0 L 1673.2050807568876 1700.0 v -100 L 1586.6025403784438 1550.0 "/>
                <circle cx="1586.6025403784438" cy="1650.0" r='70.0' stroke='black' fill="none" stroke-width="1"/>
    </g>
    <g fill="none" stroke="#000">
                <path d="M1759.8076211353316 1550.0 L 1673.2050807568878 1600.0 v 100 L 1759.8076211353316 1750.0 L 1846.4101615137754 1700.0 v -100 L 1759.8076211353316 1550.0 "/>
                <circle cx="1759.8076211353316" cy="1650.0" r='70.0' stroke='black' fill="none" stroke-width="1"/>
    </g>
    <g fill="none" stroke="#000">
                <path d="M1153.5898384862246 1700.0 L 1066.9872981077808 1750.0 v 100 L 1153.5898384862246 1900.0 L 1240.1923788646684 1850.0 v -100 L 1153.5898384862246 1700.0 "/>
                <circle cx="1153.5898384862246" cy="1800.0" r='70.0' stroke='black' fill="none" stroke-width="1"/>
    </g>
    <g fill="none" stroke="#000">
                <path d="M1326.7949192431122 1700.0 L 1240.1923788646684 1750.0 v 100 L 1326.7949192431122 1900.0 L 1413.397459621556 1850.0 v -100 L 1326.7949192431122 1700.0 "/>
                <circle cx="1326.7949192431122" cy="1800.0" r='70.0' stroke='black' fill="none" stroke-width="1"/>
    </g>
    <g fill="none" stroke="#000">
                <path d="M1846.4101615137754 1700.0 L 1759.8076211353316 1750.0 v 100 L 1846.4101615137754 1900.0 L 1933.0127018922192 1850.0 v -100 L 1846.4101615137754 1700.0 "/>
    </g>
    <g fill="none" stroke="#000">
                <path d="M1413.3974596215562 1850.0 L 1326.7949192431124 1900.0 v 100 L 1413.3974596215562 2050.0 L 1500.0 2000.0 v -100 L 1413.3974596215562 1850.0 "/>
                <circle cx="1413.3974596215562" cy="1950.0" r='70.0' stroke='black' fill="none" stroke-width="1"/>
    </g>
    <g fill="none" stroke="#000">
                <path d="M1326.7949192431122 2000.0 L 1240.1923788646684 2050.0 v 100 L 1326.7949192431122 2200.0 L 1413.397459621556 2150.0 v -100 L 1326.7949192431122 2000.0 "/>
    </g>
    <g fill="none" stroke="#000">
                <path d="M1500.0 800.0 L 1413.3974596215562 850.0 v 100 L 1500.0 1000.0 L 1586.6025403784438 950.0 v -100 L 1500.0 800.0 "/>
    </g>
    <g fill="none" stroke="#000">
                <path d="M1240.1923788646684 950.0 L 1153.5898384862246 1000.0 v 100 L 1240.1923788646684 1150.0 L 1326.7949192431122 1100.0 v -100 L 1240.1923788646684 950.0 "/>
    </g>
    <g fill="none" stroke="#000">
                <path d="M1413.3974596215562 950.0 L 1326.7949192431124 1000.0 v 100 L 1413.3974596215562 1150.0 L 1500.0 1100.0 v -100 L 1413.3974596215562 950.0 "/>
                <circle cx="1413.3974596215562" cy="1050.0" r='70.0' stroke='black' fill="none" stroke-width="1"/>
    </g>
    <g fill="none" stroke="#000">
                <path d="M1500.0 1100.0 L 1413.3974596215562 1150.0 v 100 L 1500.0 1300.0 L 1586.6025403784438 1250.0 v -100 L 1500.0 1100.0 "/>
                <circle cx="1500.0" cy="1200.0" r='70.0' stroke='black' fill="none" stroke-width="1"/>
    </g>
    <g fill="none" stroke="#000">
                <path d="M1413.3974596215562 1250.0 L 1326.7949192431124 1300.0 v 100 L 1413.3974596215562 1450.0 L 1500.0 1400.0 v -100 L 1413.3974596215562 1250.0 "/>
                <circle cx="1413.3974596215562" cy="1350.0" r='70.0' stroke='black' fill="none" stroke-width="1"/>
    </g>
    <g fill="none" stroke="#000">
                <path d="M1586.6025403784438 1250.0 L 1500.0 1300.0 v 100 L 1586.6025403784438 1450.0 L 1673.2050807568876 1400.0 v -100 L 1586.6025403784438 1250.0 "/>
                <circle cx="1586.6025403784438" cy="1350.0" r='70.0' stroke='black' fill="none" stroke-width="1"/>
    </g>
    <g fill="none" stroke="#000">
                <path d="M1500.0 1400.0 L 1413.3974596215562 1450.0 v 100 L 1500.0 1600.0 L 1586.6025403784438 1550.0 v -100 L 1500.0 1400.0 "/>
                <circle cx="1500.0" cy="1500.0" r='70.0' stroke='black' fill="none" stroke-width="1"/>
    </g>
    <g fill="none" stroke="#000">
                <path d="M1673.2050807568878 1400.0 L 1586.602540378444 1450.0 v 100 L 1673.2050807568878 1600.0 L 1759.8076211353316 1550.0 v -100 L 1673.2050807568878 1400.0 "/>
                <circle cx="1673.2050807568878" cy="1500.0" r='70.0' stroke='black' fill="none" stroke-width="1"/>
    </g>
    <g fill="none" stroke="#000">
                <path d="M1413.3974596215562 1550.0 L 1326.7949192431124 1600.0 v 100 L 1413.3974596215562 1750.0 L 1500.0 1700.0 v -100 L 1413.3974596215562 1550.0 "/>
                <circle cx="1413.3974596215562" cy="1650.0" r='70.0' stroke='black' fill="none" stroke-width="1"/>
    </g>
    <g fill="none" stroke="#000">
                <path d="M1586.6025403784438 1550.0 L 1500.0 1600.0 v 100 L 1586.6025403784438 1750.0 L 1673.2050807568876 1700.0 v -100 L 1586.6025403784438 1550.0 "/>
                <circle cx="1586.6025403784438" cy="1650.0" r='70.0' stroke='black' fill="none" stroke-width="1"/>
    </g>
    <g fill="none" stroke="#000">
                <path d="M1759.8076211353316 1550.0 L 1673.2050807568878 1600.0 v 100 L 1759.8076211353316 1750.0 L 1846.4101615137754 1700.0 v -100 L 1759.8076211353316 1550.0 "/>
                <circle cx="1759.8076211353316" cy="1650.0" r='70.0' stroke='black' fill="none" stroke-width="1"/>
    </g>
    <g fill="none" stroke="#000">
                <path d="M1153.5898384862246 1700.0 L 1066.9872981077808 1750.0 v 100 L 1153.5898384862246 1900.0 L 1240.1923788646684 1850.0 v -100 L 1153.5898384862246 1700.0 "/>
                <circle cx="1153.5898384862246" cy="1800.0" r='70.0' stroke='black' fill="none" stroke-width="1"/>
    </g>
    <g fill="none" stroke="#000">
                <path d="M1326.7949192431122 1700.0 L 1240.1923788646684 1750.0 v 100 L 1326.7949192431122 1900.0 L 1413.397459621556 1850.0 v -100 L 1326.7949192431122 1700.0 "/>
                <circle cx="1326.7949192431122" cy="1800.0" r='70.0' stroke='black' fill="none" stroke-width="1"/>
    </g>
    <g fill="none" stroke="#000">
                <path d="M1846.4101615137754 1700.0 L 1759.8076211353316 1750.0 v 100 L 1846.4101615137754 1900.0 L 1933.0127018922192 1850.0 v -100 L 1846.4101615137754 1700.0 "/>
    </g>
    <g fill="none" stroke="#000">
                <path d="M1413.3974596215562 1850.0 L 1326.7949192431124 1900.0 v 100 L 1413.3974596215562 2050.0 L 1500.0 2000.0 v -100 L 1413.3974596215562 1850.0 "/>
                <circle cx="1413.3974596215562" cy="1950.0" r='70.0' stroke='black' fill="none" stroke-width="1"/>
    </g>
    <g fill="none" stroke="#000">
                <path d="M1326.7949192431122 2000.0 L 1240.1923788646684 2050.0 v 100 L 1326.7949192431122 2200.0 L 1413.397459621556 2150.0 v -100 L 1326.7949192431122 2000.0 "/>
    </g>
    <g fill="none" stroke="#000">
                <path d="M1500.0 800.0 L 1413.3974596215562 850.0 v 100 L 1500.0 1000.0 L 1586.6025403784438 950.0 v -100 L 1500.0 800.0 "/>
    </g>
    <g fill="none" stroke="#000">
                <path d="M1240.1923788646684 950.0 L 1153.5898384862246 1000.0 v 100 L 1240.1923788646684 1150.0 L 1326.7949192431122 1100.0 v -100 L 1240.1923788646684 950.0 "/>
    </g>
    <g fill="none" stroke="#000">
                <path d="M1413.3974596215562 950.0 L 1326.7949192431124 1000.0 v 100 L 1413.3974596215562 1150.0 L 1500.0 1100.0 v -100 L 1413.3974596215562 950.0 "/>
                <circle cx="1413.3974596215562" cy="1050.0" r='70.0' stroke='black' fill="none" stroke-width="1"/>
    </g>
    <g fill="none" stroke="#000">
                <path d="M1500.0 1100.0 L 1413.3974596215562 1150.0 v 100 L 1500.0 1300.0 L 1586.6025403784438 1250.0 v -100 L 1500.0 1100.0 "/>
                <circle cx="1500.0" cy="1200.0" r='70.0' stroke='black' fill="none" stroke-width="1"/>
    </g>
    <g fill="none" stroke="#000">
                <path d="M1413.3974596215562 1250.0 L 1326.7949192431124 1300.0 v 100 L 1413.3974596215562 1450.0 L 1500.0 1400.0 v -100 L 1413.3974596215562 1250.0 "/>
                <circle cx="1413.3974596215562" cy="1350.0" r='70.0' stroke='black' fill="none" stroke-width="1"/>
    </g>
    <g fill="none" stroke="#000">
                <path d="M1586.6025403784438 1250.0 L 1500.0 1300.0 v 100 L 1586.6025403784438 1450.0 L 1673.2050807568876 1400.0 v -100 L 1586.6025403784438 1250.0 "/>
                <circle cx="1586.6025403784438" cy="1350.0" r='70.0' stroke='black' fill="none" stroke-width="1"/>
    </g>
    <g fill="none" stroke="#000">
                <path d="M1500.0 1400.0 L 1413.3974596215562 1450.0 v 100 L 1500.0 1600.0 L 1586.6025403784438 1550.0 v -100 L 1500.0 1400.0 "/>
                <circle cx="1500.0" cy="1500.0" r='70.0' stroke='black' fill="none" stroke-width="1"/>
    </g>
    <g fill="none" stroke="#000">
                <path d="M1673.2050807568878 1400.0 L 1586.602540378444 1450.0 v 100 L 1673.2050807568878 1600.0 L 1759.8076211353316 1550.0 v -100 L 1673.2050807568878 1400.0 "/>
                <circle cx="1673.2050807568878" cy="1500.0" r='70.0' stroke='black' fill="none" stroke-width="1"/>
    </g>
    <g fill="none" stroke="#000">
                <path d="M1413.3974596215562 1550.0 L 1326.7949192431124 1600.0 v 100 L 1413.3974596215562 1750.0 L 1500.0 1700.0 v -100 L 1413.3974596215562 1550.0 "/>
                <circle cx="1413.3974596215562" cy="1650.0" r='70.0' stroke='black' fill="none" stroke-width="1"/>
    </g>
    <g fill="none" stroke="#000">
                <path d="M1586.6025403784438 1550.0 L 1500.0 1600.0 v 100 L 1586.6025403784438 1750.0 L 1673.2050807568876 1700.0 v -100 L 1586.6025403784438 1550.0 "/>
                <circle cx="1586.6025403784438" cy="1650.0" r='70.0' stroke='black' fill="none" stroke-width="1"/>
    </g>
    <g fill="none" stroke="#000">
                <path d="M1759.8076211353316 1550.0 L 1673.2050807568878 1600.0 v 100 L 1759.8076211353316 1750.0 L 1846.4101615137754 1700.0 v -100 L 1759.8076211353316 1550.0 "/>
                <circle cx="1759.8076211353316" cy="1650.0" r='70.0' stroke='black' fill="none" stroke-width="1"/>
    </g>
    <g fill="none" stroke="#000">
                <path d="M1153.5898384862246 1700.0 L 1066.9872981077808 1750.0 v 100 L 1153.5898384862246 1900.0 L 1240.1923788646684 1850.0 v -100 L 1153.5898384862246 1700.0 "/>
                <circle cx="1153.5898384862246" cy="1800.0" r='70.0' stroke='black' fill="none" stroke-width="1"/>
    </g>
    <g fill="none" stroke="#000">
                <path d="M1326.7949192431122 1700.0 L 1240.1923788646684 1750.0 v 100 L 1326.7949192431122 1900.0 L 1413.397459621556 1850.0 v -100 L 1326.7949192431122 1700.0 "/>
                <circle cx="1326.7949192431122" cy="1800.0" r='70.0' stroke='black' fill="none" stroke-width="1"/>
    </g>
    <g fill="none" stroke="#000">
                <path d="M1846.4101615137754 1700.0 L 1759.8076211353316 1750.0 v 100 L 1846.4101615137754 1900.0 L 1933.0127018922192 1850.0 v -100 L 1846.4101615137754 1700.0 "/>
    </g>
    <g fill="none" stroke="#000">
                <path d="M1413.3974596215562 1850.0 L 1326.7949192431124 1900.0 v 100 L 1413.3974596215562 2050.0 L 1500.0 2000.0 v -100 L 1413.3974596215562 1850.0 "/>
                <circle cx="1413.3974596215562" cy="1950.0" r='70.0' stroke='black' fill="none" stroke-width="1"/>
    </g>
    <g fill="none" stroke="#000">
                <path d="M1586.6025403784438 1850.0 L 1500.0 1900.0 v 100 L 1586.6025403784438 2050.0 L 1673.2050807568876 2000.0 v -100 L 1586.6025403784438 1850.0 "/>
    </g>
    <g fill="none" stroke="#000">
                <path d="M1326.7949192431122 2000.0 L 1240.1923788646684 2050.0 v 100 L 1326.7949192431122 2200.0 L 1413.397459621556 2150.0 v -100 L 1326.7949192431122 2000.0 "/>
    </g>
    <g fill="none" stroke="#000">
                <path d="M1500.0 800.0 L 1413.3974596215562 850.0 v 100 L 1500.0 1000.0 L 1586.6025403784438 950.0 v -100 L 1500.0 800.0 "/>
    </g>
    <g fill="none" stroke="#000">
                <path d="M1240.1923788646684 950.0 L 1153.5898384862246 1000.0 v 100 L 1240.1923788646684 1150.0 L 1326.7949192431122 1100.0 v -100 L 1240.1923788646684 950.0 "/>
    </g>
    <g fill="none" stroke="#000">
                <path d="M1413.3974596215562 950.0 L 1326.7949192431124 1000.0 v 100 L 1413.3974596215562 1150.0 L 1500.0 1100.0 v -100 L 1413.3974596215562 950.0 "/>
                <circle cx="1413.3974596215562" cy="1050.0" r='70.0' stroke='black' fill="none" stroke-width="1"/>
    </g>
    <g fill="none" stroke="#000">
                <path d="M1500.0 1100.0 L 1413.3974596215562 1150.0 v 100 L 1500.0 1300.0 L 1586.6025403784438 1250.0 v -100 L 1500.0 1100.0 "/>
                <circle cx="1500.0" cy="1200.0" r='70.0' stroke='black' fill="none" stroke-width="1"/>
    </g>
    <g fill="none" stroke="#000">
                <path d="M1413.3974596215562 1250.0 L 1326.7949192431124 1300.0 v 100 L 1413.3974596215562 1450.0 L 1500.0 1400.0 v -100 L 1413.3974596215562 1250.0 "/>
                <circle cx="1413.3974596215562" cy="1350.0" r='70.0' stroke='black' fill="none" stroke-width="1"/>
    </g>
    <g fill="none" stroke="#000">
                <path d="M1586.6025403784438 1250.0 L 1500.0 1300.0 v 100 L 1586.6025403784438 1450.0 L 1673.2050807568876 1400.0 v -100 L 1586.6025403784438 1250.0 "/>
                <circle cx="1586.6025403784438" cy="1350.0" r='70.0' stroke='black' fill="none" stroke-width="1"/>
    </g>
    <g fill="none" stroke="#000">
                <path d="M1500.0 1400.0 L 1413.3974596215562 1450.0 v 100 L 1500.0 1600.0 L 1586.6025403784438 1550.0 v -100 L 1500.0 1400.0 "/>
                <circle cx="1500.0" cy="1500.0" r='70.0' stroke='black' fill="none" stroke-width="1"/>
    </g>
    <g fill="none" stroke="#000">
                <path d="M1673.2050807568878 1400.0 L 1586.602540378444 1450.0 v 100 L 1673.2050807568878 1600.0 L 1759.8076211353316 1550.0 v -100 L 1673.2050807568878 1400.0 "/>
                <circle cx="1673.2050807568878" cy="1500.0" r='70.0' stroke='black' fill="none" stroke-width="1"/>
    </g>
    <g fill="none" stroke="#000">
                <path d="M1413.3974596215562 1550.0 L 1326.7949192431124 1600.0 v 100 L 1413.3974596215562 1750.0 L 1500.0 1700.0 v -100 L 1413.3974596215562 1550.0 "/>
                <circle cx="1413.3974596215562" cy="1650.0" r='70.0' stroke='black' fill="none" stroke-width="1"/>
    </g>
    <g fill="none" stroke="#000">
                <path d="M1586.6025403784438 1550.0 L 1500.0 1600.0 v 100 L 1586.6025403784438 1750.0 L 1673.2050807568876 1700.0 v -100 L 1586.6025403784438 1550.0 "/>
                <circle cx="1586.6025403784438" cy="1650.0" r='70.0' stroke='black' fill="none" stroke-width="1"/>
    </g>
    <g fill="none" stroke="#000">
                <path d="M1759.8076211353316 1550.0 L 1673.2050807568878 1600.0 v 100 L 1759.8076211353316 1750.0 L 1846.4101615137754 1700.0 v -100 L 1759.8076211353316 1550.0 "/>
                <circle cx="1759.8076211353316" cy="1650.0" r='70.0' stroke='black' fill="none" stroke-width="1"/>
    </g>
    <g fill="none" stroke="#000">
                <path d="M1153.5898384862246 1700.0 L 1066.9872981077808 1750.0 v 100 L 1153.5898384862246 1900.0 L 1240.1923788646684 1850.0 v -100 L 1153.5898384862246 1700.0 "/>
                <circle cx="1153.5898384862246" cy="1800.0" r='70.0' stroke='black' fill="none" stroke-width="1"/>
    </g>
    <g fill="none" stroke="#000">
                <path d="M1326.7949192431122 1700.0 L 1240.1923788646684 1750.0 v 100 L 1326.7949192431122 1900.0 L 1413.397459621556 1850.0 v -100 L 1326.7949192431122 1700.0 "/>
                <circle cx="1326.7949192431122" cy="1800.0" r='70.0' stroke='black' fill="none" stroke-width="1"/>
    </g>
    <g fill="none" stroke="#000">
                <path d="M1846.4101615137754 1700.0 L 1759.8076211353316 1750.0 v 100 L 1846.4101615137754 1900.0 L 1933.0127018922192 1850.0 v -100 L 1846.4101615137754 1700.0 "/>
    </g>
    <g fill="none" stroke="#000">
                <path d="M1066.9872981077806 1850.0 L 980.3847577293367 1900.0 v 100 L 1066.9872981077806 2050.0 L 1153.5898384862244 2000.0 v -100 L 1066.9872981077806 1850.0 "/>
    </g>
    <g fill="none" stroke="#000">
                <path d="M1413.3974596215562 1850.0 L 1326.7949192431124 1900.0 v 100 L 1413.3974596215562 2050.0 L 1500.0 2000.0 v -100 L 1413.3974596215562 1850.0 "/>
                <circle cx="1413.3974596215562" cy="1950.0" r='70.0' stroke='black' fill="none" stroke-width="1"/>
    </g>
    <g fill="none" stroke="#000">
                <path d="M1586.6025403784438 1850.0 L 1500.0 1900.0 v 100 L 1586.6025403784438 2050.0 L 1673.2050807568876 2000.0 v -100 L 1586.6025403784438 1850.0 "/>
    </g>
    <g fill="none" stroke="#000">
                <path d="M1326.7949192431122 2000.0 L 1240.1923788646684 2050.0 v 100 L 1326.7949192431122 2200.0 L 1413.397459621556 2150.0 v -100 L 1326.7949192431122 2000.0 "/>
    </g>
    <g fill="none" stroke="#000">
                <path d="M1500.0 800.0 L 1413.3974596215562 850.0 v 100 L 1500.0 1000.0 L 1586.6025403784438 950.0 v -100 L 1500.0 800.0 "/>
    </g>
    <g fill="none" stroke="#000">
                <path d="M1240.1923788646684 950.0 L 1153.5898384862246 1000.0 v 100 L 1240.1923788646684 1150.0 L 1326.7949192431122 1100.0 v -100 L 1240.1923788646684 950.0 "/>
    </g>
    <g fill="none" stroke="#000">
                <path d="M1413.3974596215562 950.0 L 1326.7949192431124 1000.0 v 100 L 1413.3974596215562 1150.0 L 1500.0 1100.0 v -100 L 1413.3974596215562 950.0 "/>
                <circle cx="1413.3974596215562" cy="1050.0" r='70.0' stroke='black' fill="none" stroke-width="1"/>
    </g>
    <g fill="none" stroke="#000">
                <path d="M1500.0 1100.0 L 1413.3974596215562 1150.0 v 100 L 1500.0 1300.0 L 1586.6025403784438 1250.0 v -100 L 1500.0 1100.0 "/>
                <circle cx="1500.0" cy="1200.0" r='70.0' stroke='black' fill="none" stroke-width="1"/>
    </g>
    <g fill="none" stroke="#000">
                <path d="M1413.3974596215562 1250.0 L 1326.7949192431124 1300.0 v 100 L 1413.3974596215562 1450.0 L 1500.0 1400.0 v -100 L 1413.3974596215562 1250.0 "/>
                <circle cx="1413.3974596215562" cy="1350.0" r='70.0' stroke='black' fill="none" stroke-width="1"/>
    </g>
    <g fill="none" stroke="#000">
                <path d="M1586.6025403784438 1250.0 L 1500.0 1300.0 v 100 L 1586.6025403784438 1450.0 L 1673.2050807568876 1400.0 v -100 L 1586.6025403784438 1250.0 "/>
                <circle cx="1586.6025403784438" cy="1350.0" r='70.0' stroke='black' fill="none" stroke-width="1"/>
    </g>
    <g fill="none" stroke="#000">
                <path d="M1500.0 1400.0 L 1413.3974596215562 1450.0 v 100 L 1500.0 1600.0 L 1586.6025403784438 1550.0 v -100 L 1500.0 1400.0 "/>
                <circle cx="1500.0" cy="1500.0" r='70.0' stroke='black' fill="none" stroke-width="1"/>
    </g>
    <g fill="none" stroke="#000">
                <path d="M1673.2050807568878 1400.0 L 1586.602540378444 1450.0 v 100 L 1673.2050807568878 1600.0 L 1759.8076211353316 1550.0 v -100 L 1673.2050807568878 1400.0 "/>
                <circle cx="1673.2050807568878" cy="1500.0" r='70.0' stroke='black' fill="none" stroke-width="1"/>
    </g>
    <g fill="none" stroke="#000">
                <path d="M1413.3974596215562 1550.0 L 1326.7949192431124 1600.0 v 100 L 1413.3974596215562 1750.0 L 1500.0 1700.0 v -100 L 1413.3974596215562 1550.0 "/>
                <circle cx="1413.3974596215562" cy="1650.0" r='70.0' stroke='black' fill="none" stroke-width="1"/>
    </g>
    <g fill="none" stroke="#000">
                <path d="M1586.6025403784438 1550.0 L 1500.0 1600.0 v 100 L 1586.6025403784438 1750.0 L 1673.2050807568876 1700.0 v -100 L 1586.6025403784438 1550.0 "/>
                <circle cx="1586.6025403784438" cy="1650.0" r='70.0' stroke='black' fill="none" stroke-width="1"/>
    </g>
    <g fill="none" stroke="#000">
                <path d="M1759.8076211353316 1550.0 L 1673.2050807568878 1600.0 v 100 L 1759.8076211353316 1750.0 L 1846.4101615137754 1700.0 v -100 L 1759.8076211353316 1550.0 "/>
                <circle cx="1759.8076211353316" cy="1650.0" r='70.0' stroke='black' fill="none" stroke-width="1"/>
    </g>
    <g fill="none" stroke="#000">
                <path d="M1153.5898384862246 1700.0 L 1066.9872981077808 1750.0 v 100 L 1153.5898384862246 1900.0 L 1240.1923788646684 1850.0 v -100 L 1153.5898384862246 1700.0 "/>
                <circle cx="1153.5898384862246" cy="1800.0" r='70.0' stroke='black' fill="none" stroke-width="1"/>
    </g>
    <g fill="none" stroke="#000">
                <path d="M1326.7949192431122 1700.0 L 1240.1923788646684 1750.0 v 100 L 1326.7949192431122 1900.0 L 1413.397459621556 1850.0 v -100 L 1326.7949192431122 1700.0 "/>
                <circle cx="1326.7949192431122" cy="1800.0" r='70.0' stroke='black' fill="none" stroke-width="1"/>
    </g>
    <g fill="none" stroke="#000">
                <path d="M1846.4101615137754 1700.0 L 1759.8076211353316 1750.0 v 100 L 1846.4101615137754 1900.0 L 1933.0127018922192 1850.0 v -100 L 1846.4101615137754 1700.0 "/>
    </g>
    <g fill="none" stroke="#000">
                <path d="M1066.9872981077806 1850.0 L 980.3847577293367 1900.0 v 100 L 1066.9872981077806 2050.0 L 1153.5898384862244 2000.0 v -100 L 1066.9872981077806 1850.0 "/>
    </g>
    <g fill="none" stroke="#000">
                <path d="M1413.3974596215562 1850.0 L 1326.7949192431124 1900.0 v 100 L 1413.3974596215562 2050.0 L 1500.0 2000.0 v -100 L 1413.3974596215562 1850.0 "/>
                <circle cx="1413.3974596215562" cy="1950.0" r='70.0' stroke='black' fill="none" stroke-width="1"/>
    </g>
    <g fill="none" stroke="#000">
                <path d="M1586.6025403784438 1850.0 L 1500.0 1900.0 v 100 L 1586.6025403784438 2050.0 L 1673.2050807568876 2000.0 v -100 L 1586.6025403784438 1850.0 "/>
    </g>
    <g fill="none" stroke="#000">
                <path d="M1326.7949192431122 2000.0 L 1240.1923788646684 2050.0 v 100 L 1326.7949192431122 2200.0 L 1413.397459621556 2150.0 v -100 L 1326.7949192431122 2000.0 "/>
    </g>
    <g fill="none" stroke="#000">
                <path d="M1500.0 800.0 L 1413.3974596215562 850.0 v 100 L 1500.0 1000.0 L 1586.6025403784438 950.0 v -100 L 1500.0 800.0 "/>
    </g>
    <g fill="none" stroke="#000">
                <path d="M1240.1923788646684 950.0 L 1153.5898384862246 1000.0 v 100 L 1240.1923788646684 1150.0 L 1326.7949192431122 1100.0 v -100 L 1240.1923788646684 950.0 "/>
    </g>
    <g fill="none" stroke="#000">
                <path d="M1413.3974596215562 950.0 L 1326.7949192431124 1000.0 v 100 L 1413.3974596215562 1150.0 L 1500.0 1100.0 v -100 L 1413.3974596215562 950.0 "/>
                <circle cx="1413.3974596215562" cy="1050.0" r='70.0' stroke='black' fill="none" stroke-width="1"/>
    </g>
    <g fill="none" stroke="#000">
                <path d="M1500.0 1100.0 L 1413.3974596215562 1150.0 v 100 L 1500.0 1300.0 L 1586.6025403784438 1250.0 v -100 L 1500.0 1100.0 "/>
                <circle cx="1500.0" cy="1200.0" r='70.0' stroke='black' fill="none" stroke-width="1"/>
    </g>
    <g fill="none" stroke="#000">
                <path d="M1413.3974596215562 1250.0 L 1326.7949192431124 1300.0 v 100 L 1413.3974596215562 1450.0 L 1500.0 1400.0 v -100 L 1413.3974596215562 1250.0 "/>
                <circle cx="1413.3974596215562" cy="1350.0" r='70.0' stroke='black' fill="none" stroke-width="1"/>
    </g>
    <g fill="none" stroke="#000">
                <path d="M1586.6025403784438 1250.0 L 1500.0 1300.0 v 100 L 1586.6025403784438 1450.0 L 1673.2050807568876 1400.0 v -100 L 1586.6025403784438 1250.0 "/>
                <circle cx="1586.6025403784438" cy="1350.0" r='70.0' stroke='black' fill="none" stroke-width="1"/>
    </g>
    <g fill="none" stroke="#000">
                <path d="M1500.0 1400.0 L 1413.3974596215562 1450.0 v 100 L 1500.0 1600.0 L 1586.6025403784438 1550.0 v -100 L 1500.0 1400.0 "/>
                <circle cx="1500.0" cy="1500.0" r='70.0' stroke='black' fill="none" stroke-width="1"/>
    </g>
    <g fill="none" stroke="#000">
                <path d="M1673.2050807568878 1400.0 L 1586.602540378444 1450.0 v 100 L 1673.2050807568878 1600.0 L 1759.8076211353316 1550.0 v -100 L 1673.2050807568878 1400.0 "/>
                <circle cx="1673.2050807568878" cy="1500.0" r='70.0' stroke='black' fill="none" stroke-width="1"/>
    </g>
    <g fill="none" stroke="#000">
                <path d="M1413.3974596215562 1550.0 L 1326.7949192431124 1600.0 v 100 L 1413.3974596215562 1750.0 L 1500.0 1700.0 v -100 L 1413.3974596215562 1550.0 "/>
                <circle cx="1413.3974596215562" cy="1650.0" r='70.0' stroke='black' fill="none" stroke-width="1"/>
    </g>
    <g fill="none" stroke="#000">
                <path d="M1586.6025403784438 1550.0 L 1500.0 1600.0 v 100 L 1586.6025403784438 1750.0 L 1673.2050807568876 1700.0 v -100 L 1586.6025403784438 1550.0 "/>
                <circle cx="1586.6025403784438" cy="1650.0" r='70.0' stroke='black' fill="none" stroke-width="1"/>
    </g>
    <g fill="none" stroke="#000">
                <path d="M1759.8076211353316 1550.0 L 1673.2050807568878 1600.0 v 100 L 1759.8076211353316 1750.0 L 1846.4101615137754 1700.0 v -100 L 1759.8076211353316 1550.0 "/>
                <circle cx="1759.8076211353316" cy="1650.0" r='70.0' stroke='black' fill="none" stroke-width="1"/>
    </g>
    <g fill="none" stroke="#000">
                <path d="M1153.5898384862246 1700.0 L 1066.9872981077808 1750.0 v 100 L 1153.5898384862246 1900.0 L 1240.1923788646684 1850.0 v -100 L 1153.5898384862246 1700.0 "/>
                <circle cx="1153.5898384862246" cy="1800.0" r='70.0' stroke='black' fill="none" stroke-width="1"/>
    </g>
    <g fill="none" stroke="#000">
                <path d="M1326.7949192431122 1700.0 L 1240.1923788646684 1750.0 v 100 L 1326.7949192431122 1900.0 L 1413.397459621556 1850.0 v -100 L 1326.7949192431122 1700.0 "/>
                <circle cx="1326.7949192431122" cy="1800.0" r='70.0' stroke='black' fill="none" stroke-width="1"/>
    </g>
    <g fill="none" stroke="#000">
                <path d="M1846.4101615137754 1700.0 L 1759.8076211353316 1750.0 v 100 L 1846.4101615137754 1900.0 L 1933.0127018922192 1850.0 v -100 L 1846.4101615137754 1700.0 "/>
    </g>
    <g fill="none" stroke="#000">
                <path d="M1066.9872981077806 1850.0 L 980.3847577293367 1900.0 v 100 L 1066.9872981077806 2050.0 L 1153.5898384862244 2000.0 v -100 L 1066.9872981077806 1850.0 "/>
    </g>
    <g fill="none" stroke="#000">
                <path d="M1413.3974596215562 1850.0 L 1326.7949192431124 1900.0 v 100 L 1413.3974596215562 2050.0 L 1500.0 2000.0 v -100 L 1413.3974596215562 1850.0 "/>
                <circle cx="1413.3974596215562" cy="1950.0" r='70.0' stroke='black' fill="none" stroke-width="1"/>
    </g>
    <g fill="none" stroke="#000">
                <path d="M1586.6025403784438 1850.0 L 1500.0 1900.0 v 100 L 1586.6025403784438 2050.0 L 1673.2050807568876 2000.0 v -100 L 1586.6025403784438 1850.0 "/>
    </g>
    <g fill="none" stroke="#000">
                <path d="M1326.7949192431122 2000.0 L 1240.1923788646684 2050.0 v 100 L 1326.7949192431122 2200.0 L 1413.397459621556 2150.0 v -100 L 1326.7949192431122 2000.0 "/>
    </g>
    <g fill="none" stroke="#000">
                <path d="M1500.0 800.0 L 1413.3974596215562 850.0 v 100 L 1500.0 1000.0 L 1586.6025403784438 950.0 v -100 L 1500.0 800.0 "/>
    </g>
    <g fill="none" stroke="#000">
                <path d="M1240.1923788646684 950.0 L 1153.5898384862246 1000.0 v 100 L 1240.1923788646684 1150.0 L 1326.7949192431122 1100.0 v -100 L 1240.1923788646684 950.0 "/>
    </g>
    <g fill="none" stroke="#000">
                <path d="M1413.3974596215562 950.0 L 1326.7949192431124 1000.0 v 100 L 1413.3974596215562 1150.0 L 1500.0 1100.0 v -100 L 1413.3974596215562 950.0 "/>
                <circle cx="1413.3974596215562" cy="1050.0" r='70.0' stroke='black' fill="none" stroke-width="1"/>
    </g>
    <g fill="none" stroke="#000">
                <path d="M1500.0 1100.0 L 1413.3974596215562 1150.0 v 100 L 1500.0 1300.0 L 1586.6025403784438 1250.0 v -100 L 1500.0 1100.0 "/>
                <circle cx="1500.0" cy="1200.0" r='70.0' stroke='black' fill="none" stroke-width="1"/>
    </g>
    <g fill="none" stroke="#000">
                <path d="M1413.3974596215562 1250.0 L 1326.7949192431124 1300.0 v 100 L 1413.3974596215562 1450.0 L 1500.0 1400.0 v -100 L 1413.3974596215562 1250.0 "/>
                <circle cx="1413.3974596215562" cy="1350.0" r='70.0' stroke='black' fill="none" stroke-width="1"/>
    </g>
    <g fill="none" stroke="#000">
                <path d="M1586.6025403784438 1250.0 L 1500.0 1300.0 v 100 L 1586.6025403784438 1450.0 L 1673.2050807568876 1400.0 v -100 L 1586.6025403784438 1250.0 "/>
                <circle cx="1586.6025403784438" cy="1350.0" r='70.0' stroke='black' fill="none" stroke-width="1"/>
    </g>
    <g fill="none" stroke="#000">
                <path d="M1500.0 1400.0 L 1413.3974596215562 1450.0 v 100 L 1500.0 1600.0 L 1586.6025403784438 1550.0 v -100 L 1500.0 1400.0 "/>
                <circle cx="1500.0" cy="1500.0" r='70.0' stroke='black' fill="none" stroke-width="1"/>
    </g>
    <g fill="none" stroke="#000">
                <path d="M1673.2050807568878 1400.0 L 1586.602540378444 1450.0 v 100 L 1673.2050807568878 1600.0 L 1759.8076211353316 1550.0 v -100 L 1673.2050807568878 1400.0 "/>
                <circle cx="1673.2050807568878" cy="1500.0" r='70.0' stroke='black' fill="none" stroke-width="1"/>
    </g>
    <g fill="none" stroke="#000">
                <path d="M1413.3974596215562 1550.0 L 1326.7949192431124 1600.0 v 100 L 1413.3974596215562 1750.0 L 1500.0 1700.0 v -100 L 1413.3974596215562 1550.0 "/>
                <circle cx="1413.3974596215562" cy="1650.0" r='70.0' stroke='black' fill="none" stroke-width="1"/>
    </g>
    <g fill="none" stroke="#000">
                <path d="M1586.6025403784438 1550.0 L 1500.0 1600.0 v 100 L 1586.6025403784438 1750.0 L 1673.2050807568876 1700.0 v -100 L 1586.6025403784438 1550.0 "/>
                <circle cx="1586.6025403784438" cy="1650.0" r='70.0' stroke='black' fill="none" stroke-width="1"/>
    </g>
    <g fill="none" stroke="#000">
                <path d="M1759.8076211353316 1550.0 L 1673.2050807568878 1600.0 v 100 L 1759.8076211353316 1750.0 L 1846.4101615137754 1700.0 v -100 L 1759.8076211353316 1550.0 "/>
                <circle cx="1759.8076211353316" cy="1650.0" r='70.0' stroke='black' fill="none" stroke-width="1"/>
    </g>
    <g fill="none" stroke="#000">
                <path d="M1153.5898384862246 1700.0 L 1066.9872981077808 1750.0 v 100 L 1153.5898384862246 1900.0 L 1240.1923788646684 1850.0 v -100 L 1153.5898384862246 1700.0 "/>
                <circle cx="1153.5898384862246" cy="1800.0" r='70.0' stroke='black' fill="none" stroke-width="1"/>
    </g>
    <g fill="none" stroke="#000">
                <path d="M1326.7949192431122 1700.0 L 1240.1923788646684 1750.0 v 100 L 1326.7949192431122 1900.0 L 1413.397459621556 1850.0 v -100 L 1326.7949192431122 1700.0 "/>
                <circle cx="1326.7949192431122" cy="1800.0" r='70.0' stroke='black' fill="none" stroke-width="1"/>
    </g>
    <g fill="none" stroke="#000">
                <path d="M1846.4101615137754 1700.0 L 1759.8076211353316 1750.0 v 100 L 1846.4101615137754 1900.0 L 1933.0127018922192 1850.0 v -100 L 1846.4101615137754 1700.0 "/>
    </g>
    <g fill="none" stroke="#000">
                <path d="M1066.9872981077806 1850.0 L 980.3847577293367 1900.0 v 100 L 1066.9872981077806 2050.0 L 1153.5898384862244 2000.0 v -100 L 1066.9872981077806 1850.0 "/>
    </g>
    <g fill="none" stroke="#000">
                <path d="M1413.3974596215562 1850.0 L 1326.7949192431124 1900.0 v 100 L 1413.3974596215562 2050.0 L 1500.0 2000.0 v -100 L 1413.3974596215562 1850.0 "/>
                <circle cx="1413.3974596215562" cy="1950.0" r='70.0' stroke='black' fill="none" stroke-width="1"/>
    </g>
    <g fill="none" stroke="#000">
                <path d="M1586.6025403784438 1850.0 L 1500.0 1900.0 v 100 L 1586.6025403784438 2050.0 L 1673.2050807568876 2000.0 v -100 L 1586.6025403784438 1850.0 "/>
    </g>
    <g fill="none" stroke="#000">
                <path d="M1326.7949192431122 2000.0 L 1240.1923788646684 2050.0 v 100 L 1326.7949192431122 2200.0 L 1413.397459621556 2150.0 v -100 L 1326.7949192431122 2000.0 "/>
    </g>
    <g fill="none" stroke="#000">
                <path d="M1500.0 800.0 L 1413.3974596215562 850.0 v 100 L 1500.0 1000.0 L 1586.6025403784438 950.0 v -100 L 1500.0 800.0 "/>
    </g>
    <g fill="none" stroke="#000">
                <path d="M1240.1923788646684 950.0 L 1153.5898384862246 1000.0 v 100 L 1240.1923788646684 1150.0 L 1326.7949192431122 1100.0 v -100 L 1240.1923788646684 950.0 "/>
    </g>
    <g fill="none" stroke="#000">
                <path d="M1413.3974596215562 950.0 L 1326.7949192431124 1000.0 v 100 L 1413.3974596215562 1150.0 L 1500.0 1100.0 v -100 L 1413.3974596215562 950.0 "/>
                <circle cx="1413.3974596215562" cy="1050.0" r='70.0' stroke='black' fill="none" stroke-width="1"/>
    </g>
    <g fill="none" stroke="#000">
                <path d="M1500.0 1100.0 L 1413.3974596215562 1150.0 v 100 L 1500.0 1300.0 L 1586.6025403784438 1250.0 v -100 L 1500.0 1100.0 "/>
                <circle cx="1500.0" cy="1200.0" r='70.0' stroke='black' fill="none" stroke-width="1"/>
    </g>
    <g fill="none" stroke="#000">
                <path d="M1413.3974596215562 1250.0 L 1326.7949192431124 1300.0 v 100 L 1413.3974596215562 1450.0 L 1500.0 1400.0 v -100 L 1413.3974596215562 1250.0 "/>
                <circle cx="1413.3974596215562" cy="1350.0" r='70.0' stroke='black' fill="none" stroke-width="1"/>
    </g>
    <g fill="none" stroke="#000">
                <path d="M1586.6025403784438 1250.0 L 1500.0 1300.0 v 100 L 1586.6025403784438 1450.0 L 1673.2050807568876 1400.0 v -100 L 1586.6025403784438 1250.0 "/>
                <circle cx="1586.6025403784438" cy="1350.0" r='70.0' stroke='black' fill="none" stroke-width="1"/>
    </g>
    <g fill="none" stroke="#000">
                <path d="M1500.0 1400.0 L 1413.3974596215562 1450.0 v 100 L 1500.0 1600.0 L 1586.6025403784438 1550.0 v -100 L 1500.0 1400.0 "/>
                <circle cx="1500.0" cy="1500.0" r='70.0' stroke='black' fill="none" stroke-width="1"/>
    </g>
    <g fill="none" stroke="#000">
                <path d="M1673.2050807568878 1400.0 L 1586.602540378444 1450.0 v 100 L 1673.2050807568878 1600.0 L 1759.8076211353316 1550.0 v -100 L 1673.2050807568878 1400.0 "/>
                <circle cx="1673.2050807568878" cy="1500.0" r='70.0' stroke='black' fill="none" stroke-width="1"/>
    </g>
    <g fill="none" stroke="#000">
                <path d="M1413.3974596215562 1550.0 L 1326.7949192431124 1600.0 v 100 L 1413.3974596215562 1750.0 L 1500.0 1700.0 v -100 L 1413.3974596215562 1550.0 "/>
                <circle cx="1413.3974596215562" cy="1650.0" r='70.0' stroke='black' fill="none" stroke-width="1"/>
    </g>
    <g fill="none" stroke="#000">
                <path d="M1586.6025403784438 1550.0 L 1500.0 1600.0 v 100 L 1586.6025403784438 1750.0 L 1673.2050807568876 1700.0 v -100 L 1586.6025403784438 1550.0 "/>
                <circle cx="1586.6025403784438" cy="1650.0" r='70.0' stroke='black' fill="none" stroke-width="1"/>
    </g>
    <g fill="none" stroke="#000">
                <path d="M1759.8076211353316 1550.0 L 1673.2050807568878 1600.0 v 100 L 1759.8076211353316 1750.0 L 1846.4101615137754 1700.0 v -100 L 1759.8076211353316 1550.0 "/>
                <circle cx="1759.8076211353316" cy="1650.0" r='70.0' stroke='black' fill="none" stroke-width="1"/>
    </g>
    <g fill="none" stroke="#000">
                <path d="M1153.5898384862246 1700.0 L 1066.9872981077808 1750.0 v 100 L 1153.5898384862246 1900.0 L 1240.1923788646684 1850.0 v -100 L 1153.5898384862246 1700.0 "/>
                <circle cx="1153.5898384862246" cy="1800.0" r='70.0' stroke='black' fill="none" stroke-width="1"/>
    </g>
    <g fill="none" stroke="#000">
                <path d="M1326.7949192431122 1700.0 L 1240.1923788646684 1750.0 v 100 L 1326.7949192431122 1900.0 L 1413.397459621556 1850.0 v -100 L 1326.7949192431122 1700.0 "/>
                <circle cx="1326.7949192431122" cy="1800.0" r='70.0' stroke='black' fill="none" stroke-width="1"/>
    </g>
    <g fill="none" stroke="#000">
                <path d="M1846.4101615137754 1700.0 L 1759.8076211353316 1750.0 v 100 L 1846.4101615137754 1900.0 L 1933.0127018922192 1850.0 v -100 L 1846.4101615137754 1700.0 "/>
    </g>
    <g fill="none" stroke="#000">
                <path d="M1066.9872981077806 1850.0 L 980.3847577293367 1900.0 v 100 L 1066.9872981077806 2050.0 L 1153.5898384862244 2000.0 v -100 L 1066.9872981077806 1850.0 "/>
    </g>
    <g fill="none" stroke="#000">
                <path d="M1413.3974596215562 1850.0 L 1326.7949192431124 1900.0 v 100 L 1413.3974596215562 2050.0 L 1500.0 2000.0 v -100 L 1413.3974596215562 1850.0 "/>
                <circle cx="1413.3974596215562" cy="1950.0" r='70.0' stroke='black' fill="none" stroke-width="1"/>
    </g>
    <g fill="none" stroke="#000">
                <path d="M1586.6025403784438 1850.0 L 1500.0 1900.0 v 100 L 1586.6025403784438 2050.0 L 1673.2050807568876 2000.0 v -100 L 1586.6025403784438 1850.0 "/>
    </g>
    <g fill="none" stroke="#000">
                <path d="M1326.7949192431122 2000.0 L 1240.1923788646684 2050.0 v 100 L 1326.7949192431122 2200.0 L 1413.397459621556 2150.0 v -100 L 1326.7949192431122 2000.0 "/>
    </g>
    <g fill="none" stroke="#000">
                <path d="M1500.0 800.0 L 1413.3974596215562 850.0 v 100 L 1500.0 1000.0 L 1586.6025403784438 950.0 v -100 L 1500.0 800.0 "/>
    </g>
    <g fill="none" stroke="#000">
                <path d="M1240.1923788646684 950.0 L 1153.5898384862246 1000.0 v 100 L 1240.1923788646684 1150.0 L 1326.7949192431122 1100.0 v -100 L 1240.1923788646684 950.0 "/>
    </g>
    <g fill="none" stroke="#000">
                <path d="M1413.3974596215562 950.0 L 1326.7949192431124 1000.0 v 100 L 1413.3974596215562 1150.0 L 1500.0 1100.0 v -100 L 1413.3974596215562 950.0 "/>
                <circle cx="1413.3974596215562" cy="1050.0" r='70.0' stroke='black' fill="none" stroke-width="1"/>
    </g>
    <g fill="none" stroke="#000">
                <path d="M1500.0 1100.0 L 1413.3974596215562 1150.0 v 100 L 1500.0 1300.0 L 1586.6025403784438 1250.0 v -100 L 1500.0 1100.0 "/>
                <circle cx="1500.0" cy="1200.0" r='70.0' stroke='black' fill="none" stroke-width="1"/>
    </g>
    <g fill="none" stroke="#000">
                <path d="M1413.3974596215562 1250.0 L 1326.7949192431124 1300.0 v 100 L 1413.3974596215562 1450.0 L 1500.0 1400.0 v -100 L 1413.3974596215562 1250.0 "/>
                <circle cx="1413.3974596215562" cy="1350.0" r='70.0' stroke='black' fill="none" stroke-width="1"/>
    </g>
    <g fill="none" stroke="#000">
                <path d="M1586.6025403784438 1250.0 L 1500.0 1300.0 v 100 L 1586.6025403784438 1450.0 L 1673.2050807568876 1400.0 v -100 L 1586.6025403784438 1250.0 "/>
                <circle cx="1586.6025403784438" cy="1350.0" r='70.0' stroke='black' fill="none" stroke-width="1"/>
    </g>
    <g fill="none" stroke="#000">
                <path d="M1500.0 1400.0 L 1413.3974596215562 1450.0 v 100 L 1500.0 1600.0 L 1586.6025403784438 1550.0 v -100 L 1500.0 1400.0 "/>
                <circle cx="1500.0" cy="1500.0" r='70.0' stroke='black' fill="none" stroke-width="1"/>
    </g>
    <g fill="none" stroke="#000">
                <path d="M1673.2050807568878 1400.0 L 1586.602540378444 1450.0 v 100 L 1673.2050807568878 1600.0 L 1759.8076211353316 1550.0 v -100 L 1673.2050807568878 1400.0 "/>
                <circle cx="1673.2050807568878" cy="1500.0" r='70.0' stroke='black' fill="none" stroke-width="1"/>
    </g>
    <g fill="none" stroke="#000">
                <path d="M1413.3974596215562 1550.0 L 1326.7949192431124 1600.0 v 100 L 1413.3974596215562 1750.0 L 1500.0 1700.0 v -100 L 1413.3974596215562 1550.0 "/>
                <circle cx="1413.3974596215562" cy="1650.0" r='70.0' stroke='black' fill="none" stroke-width="1"/>
    </g>
    <g fill="none" stroke="#000">
                <path d="M1586.6025403784438 1550.0 L 1500.0 1600.0 v 100 L 1586.6025403784438 1750.0 L 1673.2050807568876 1700.0 v -100 L 1586.6025403784438 1550.0 "/>
                <circle cx="1586.6025403784438" cy="1650.0" r='70.0' stroke='black' fill="none" stroke-width="1"/>
    </g>
    <g fill="none" stroke="#000">
                <path d="M1759.8076211353316 1550.0 L 1673.2050807568878 1600.0 v 100 L 1759.8076211353316 1750.0 L 1846.4101615137754 1700.0 v -100 L 1759.8076211353316 1550.0 "/>
                <circle cx="1759.8076211353316" cy="1650.0" r='70.0' stroke='black' fill="none" stroke-width="1"/>
    </g>
    <g fill="none" stroke="#000">
                <path d="M1153.5898384862246 1700.0 L 1066.9872981077808 1750.0 v 100 L 1153.5898384862246 1900.0 L 1240.1923788646684 1850.0 v -100 L 1153.5898384862246 1700.0 "/>
                <circle cx="1153.5898384862246" cy="1800.0" r='70.0' stroke='black' fill="none" stroke-width="1"/>
    </g>
    <g fill="none" stroke="#000">
                <path d="M1326.7949192431122 1700.0 L 1240.1923788646684 1750.0 v 100 L 1326.7949192431122 1900.0 L 1413.397459621556 1850.0 v -100 L 1326.7949192431122 1700.0 "/>
                <circle cx="1326.7949192431122" cy="1800.0" r='70.0' stroke='black' fill="none" stroke-width="1"/>
    </g>
    <g fill="none" stroke="#000">
                <path d="M1846.4101615137754 1700.0 L 1759.8076211353316 1750.0 v 100 L 1846.4101615137754 1900.0 L 1933.0127018922192 1850.0 v -100 L 1846.4101615137754 1700.0 "/>
    </g>
    <g fill="none" stroke="#000">
                <path d="M1066.9872981077806 1850.0 L 980.3847577293367 1900.0 v 100 L 1066.9872981077806 2050.0 L 1153.5898384862244 2000.0 v -100 L 1066.9872981077806 1850.0 "/>
    </g>
    <g fill="none" stroke="#000">
                <path d="M1413.3974596215562 1850.0 L 1326.7949192431124 1900.0 v 100 L 1413.3974596215562 2050.0 L 1500.0 2000.0 v -100 L 1413.3974596215562 1850.0 "/>
                <circle cx="1413.3974596215562" cy="1950.0" r='70.0' stroke='black' fill="none" stroke-width="1"/>
    </g>
    <g fill="none" stroke="#000">
                <path d="M1586.6025403784438 1850.0 L 1500.0 1900.0 v 100 L 1586.6025403784438 2050.0 L 1673.2050807568876 2000.0 v -100 L 1586.6025403784438 1850.0 "/>
    </g>
    <g fill="none" stroke="#000">
                <path d="M1326.7949192431122 2000.0 L 1240.1923788646684 2050.0 v 100 L 1326.7949192431122 2200.0 L 1413.397459621556 2150.0 v -100 L 1326.7949192431122 2000.0 "/>
    </g>
    <g fill="none" stroke="#000">
                <path d="M1500.0 800.0 L 1413.3974596215562 850.0 v 100 L 1500.0 1000.0 L 1586.6025403784438 950.0 v -100 L 1500.0 800.0 "/>
    </g>
    <g fill="none" stroke="#000">
                <path d="M1240.1923788646684 950.0 L 1153.5898384862246 1000.0 v 100 L 1240.1923788646684 1150.0 L 1326.7949192431122 1100.0 v -100 L 1240.1923788646684 950.0 "/>
    </g>
    <g fill="none" stroke="#000">
                <path d="M1413.3974596215562 950.0 L 1326.7949192431124 1000.0 v 100 L 1413.3974596215562 1150.0 L 1500.0 1100.0 v -100 L 1413.3974596215562 950.0 "/>
                <circle cx="1413.3974596215562" cy="1050.0" r='70.0' stroke='black' fill="none" stroke-width="1"/>
    </g>
    <g fill="none" stroke="#000">
                <path d="M1500.0 1100.0 L 1413.3974596215562 1150.0 v 100 L 1500.0 1300.0 L 1586.6025403784438 1250.0 v -100 L 1500.0 1100.0 "/>
                <circle cx="1500.0" cy="1200.0" r='70.0' stroke='black' fill="none" stroke-width="1"/>
    </g>
    <g fill="none" stroke="#000">
                <path d="M1413.3974596215562 1250.0 L 1326.7949192431124 1300.0 v 100 L 1413.3974596215562 1450.0 L 1500.0 1400.0 v -100 L 1413.3974596215562 1250.0 "/>
                <circle cx="1413.3974596215562" cy="1350.0" r='70.0' stroke='black' fill="none" stroke-width="1"/>
    </g>
    <g fill="none" stroke="#000">
                <path d="M1586.6025403784438 1250.0 L 1500.0 1300.0 v 100 L 1586.6025403784438 1450.0 L 1673.2050807568876 1400.0 v -100 L 1586.6025403784438 1250.0 "/>
                <circle cx="1586.6025403784438" cy="1350.0" r='70.0' stroke='black' fill="none" stroke-width="1"/>
    </g>
    <g fill="none" stroke="#000">
                <path d="M1500.0 1400.0 L 1413.3974596215562 1450.0 v 100 L 1500.0 1600.0 L 1586.6025403784438 1550.0 v -100 L 1500.0 1400.0 "/>
                <circle cx="1500.0" cy="1500.0" r='70.0' stroke='black' fill="none" stroke-width="1"/>
    </g>
    <g fill="none" stroke="#000">
                <path d="M1673.2050807568878 1400.0 L 1586.602540378444 1450.0 v 100 L 1673.2050807568878 1600.0 L 1759.8076211353316 1550.0 v -100 L 1673.2050807568878 1400.0 "/>
                <circle cx="1673.2050807568878" cy="1500.0" r='70.0' stroke='black' fill="none" stroke-width="1"/>
    </g>
    <g fill="none" stroke="#000">
                <path d="M1413.3974596215562 1550.0 L 1326.7949192431124 1600.0 v 100 L 1413.3974596215562 1750.0 L 1500.0 1700.0 v -100 L 1413.3974596215562 1550.0 "/>
                <circle cx="1413.3974596215562" cy="1650.0" r='70.0' stroke='black' fill="none" stroke-width="1"/>
    </g>
    <g fill="none" stroke="#000">
                <path d="M1586.6025403784438 1550.0 L 1500.0 1600.0 v 100 L 1586.6025403784438 1750.0 L 1673.2050807568876 1700.0 v -100 L 1586.6025403784438 1550.0 "/>
                <circle cx="1586.6025403784438" cy="1650.0" r='70.0' stroke='black' fill="none" stroke-width="1"/>
    </g>
    <g fill="none" stroke="#000">
                <path d="M1759.8076211353316 1550.0 L 1673.2050807568878 1600.0 v 100 L 1759.8076211353316 1750.0 L 1846.4101615137754 1700.0 v -100 L 1759.8076211353316 1550.0 "/>
                <circle cx="1759.8076211353316" cy="1650.0" r='70.0' stroke='black' fill="none" stroke-width="1"/>
    </g>
    <g fill="none" stroke="#000">
                <path d="M1153.5898384862246 1700.0 L 1066.9872981077808 1750.0 v 100 L 1153.5898384862246 1900.0 L 1240.1923788646684 1850.0 v -100 L 1153.5898384862246 1700.0 "/>
                <circle cx="1153.5898384862246" cy="1800.0" r='70.0' stroke='black' fill="none" stroke-width="1"/>
    </g>
    <g fill="none" stroke="#000">
                <path d="M1326.7949192431122 1700.0 L 1240.1923788646684 1750.0 v 100 L 1326.7949192431122 1900.0 L 1413.397459621556 1850.0 v -100 L 1326.7949192431122 1700.0 "/>
                <circle cx="1326.7949192431122" cy="1800.0" r='70.0' stroke='black' fill="none" stroke-width="1"/>
    </g>
    <g fill="none" stroke="#000">
                <path d="M1846.4101615137754 1700.0 L 1759.8076211353316 1750.0 v 100 L 1846.4101615137754 1900.0 L 1933.0127018922192 1850.0 v -100 L 1846.4101615137754 1700.0 "/>
    </g>
    <g fill="none" stroke="#000">
                <path d="M1066.9872981077806 1850.0 L 980.3847577293367 1900.0 v 100 L 1066.9872981077806 2050.0 L 1153.5898384862244 2000.0 v -100 L 1066.9872981077806 1850.0 "/>
    </g>
    <g fill="none" stroke="#000">
                <path d="M1413.3974596215562 1850.0 L 1326.7949192431124 1900.0 v 100 L 1413.3974596215562 2050.0 L 1500.0 2000.0 v -100 L 1413.3974596215562 1850.0 "/>
                <circle cx="1413.3974596215562" cy="1950.0" r='70.0' stroke='black' fill="none" stroke-width="1"/>
    </g>
    <g fill="none" stroke="#000">
                <path d="M1586.6025403784438 1850.0 L 1500.0 1900.0 v 100 L 1586.6025403784438 2050.0 L 1673.2050807568876 2000.0 v -100 L 1586.6025403784438 1850.0 "/>
    </g>
    <g fill="none" stroke="#000">
                <path d="M1326.7949192431122 2000.0 L 1240.1923788646684 2050.0 v 100 L 1326.7949192431122 2200.0 L 1413.397459621556 2150.0 v -100 L 1326.7949192431122 2000.0 "/>
    </g>
    <g fill="none" stroke="#000" transform='rotate(-90 1257.9758232195536 1350.0)'>
                <path d="M1257.9758232195536 1264.934919164796 L 1177.074123782059 1323.7134443940433  L 1207.9758232195536 1418.8190960235586 L 1307.9758232195536 1418.8190960235586  L 1338.8775226570483 1323.7134443940433 L 1257.9758232195536 1264.934919164796"/>
    </g>
    <g fill="none" stroke="#000" transform='rotate(-90 1257.9758232195536 1350.0)'>
                <path d="M1257.9758232195536 1264.934919164796 L 1177.074123782059 1323.7134443940433  L 1207.9758232195536 1418.8190960235586 L 1307.9758232195536 1418.8190960235586  L 1338.8775226570483 1323.7134443940433 L 1257.9758232195536 1264.934919164796"/>
    </g>
    <g fill="none" stroke="#000" transform='rotate(-90 1257.9758232195536 1350.0)'>
                <path d="M1257.9758232195536 1264.934919164796 L 1177.074123782059 1323.7134443940433  L 1207.9758232195536 1418.8190960235586 L 1307.9758232195536 1418.8190960235586  L 1338.8775226570483 1323.7134443940433 L 1257.9758232195536 1264.934919164796"/>
    </g>
    <g fill="none" stroke="#000" transform='rotate(-30 1075.8790202852233 1665.4009145781174)'>
                <path d="M1075.8790202852233 1580.3358337429133 L 994.9773208477286 1639.1143589721607  L 1025.8790202852233 1734.220010601676 L 1125.8790202852233 1734.220010601676  L 1156.780719722718 1639.1143589721607 L 1075.8790202852233 1580.3358337429133"/>
    </g>
    <g fill="none" stroke="#000" transform='rotate(-90 1257.9758232195536 1350.0)'>
                <path d="M1257.9758232195536 1264.934919164796 L 1177.074123782059 1323.7134443940433  L 1207.9758232195536 1418.8190960235586 L 1307.9758232195536 1418.8190960235586  L 1338.8775226570483 1323.7134443940433 L 1257.9758232195536 1264.934919164796"/>
    </g>
    <g fill="none" stroke="#000" transform='rotate(-30 1075.8790202852233 1665.4009145781174)'>
                <path d="M1075.8790202852233 1580.3358337429133 L 994.9773208477286 1639.1143589721607  L 1025.8790202852233 1734.220010601676 L 1125.8790202852233 1734.220010601676  L 1156.780719722718 1639.1143589721607 L 1075.8790202852233 1580.3358337429133"/>
    </g>
    </svg>
