<?xml version="1.0" encoding="UTF-8"?>
<svg version="1.1" viewBox="0 0 3000 3000" xmlns="http://www.w3.org/2000/svg">
<g fill="none" stroke="#000">
                <path d="M1759.8076211353316 1250.0 L 1673.2050807568878 1300.0 v 100 L 1759.8076211353316 1450.0 L 1846.4101615137754 1400.0 v -100 L 1759.8076211353316 1250.0 "/>
                <circle cx="1759.8076211353316" cy="1350.0" r='70.0' stroke='black' fill="none" stroke-width="1"/>
    </g>
    <g fill="none" stroke="#000">
                <path d="M1500.0 1400.0 L 1413.3974596215562 1450.0 v 100 L 1500.0 1600.0 L 1586.6025403784438 1550.0 v -100 L 1500.0 1400.0 "/>
                <circle cx="1500.0" cy="1500.0" r='70.0' stroke='black' fill="none" stroke-width="1"/>
    </g>
    <g fill="none" stroke="#000">
                <path d="M1673.2050807568878 1400.0 L 1586.602540378444 1450.0 v 100 L 1673.2050807568878 1600.0 L 1759.8076211353316 1550.0 v -100 L 1673.2050807568878 1400.0 "/>
                <circle cx="1673.2050807568878" cy="1500.0" r='70.0' stroke='black' fill="none" stroke-width="1"/>
    </g>
    <g fill="none" stroke="#000">
                <path d="M1413.3974596215562 1550.0 L 1326.7949192431124 1600.0 v 100 L 1413.3974596215562 1750.0 L 1500.0 1700.0 v -100 L 1413.3974596215562 1550.0 "/>
                <circle cx="1413.3974596215562" cy="1650.0" r='70.0' stroke='black' fill="none" stroke-width="1"/>
    </g>
    <g fill="none" stroke="#000">
                <path d="M1586.6025403784438 1550.0 L 1500.0 1600.0 v 100 L 1586.6025403784438 1750.0 L 1673.2050807568876 1700.0 v -100 L 1586.6025403784438 1550.0 "/>
                <circle cx="1586.6025403784438" cy="1650.0" r='70.0' stroke='black' fill="none" stroke-width="1"/>
    </g>
    <g fill="none" stroke="#000">
                <path d="M1673.2050807568878 1100.0 L 1586.602540378444 1150.0 v 100 L 1673.2050807568878 1300.0 L 1759.8076211353316 1250.0 v -100 L 1673.2050807568878 1100.0 "/>
    </g>
    <g fill="none" stroke="#000">
                <path d="M1759.8076211353316 1250.0 L 1673.2050807568878 1300.0 v 100 L 1759.8076211353316 1450.0 L 1846.4101615137754 1400.0 v -100 L 1759.8076211353316 1250.0 "/>
                <circle cx="1759.8076211353316" cy="1350.0" r='70.0' stroke='black' fill="none" stroke-width="1"/>
    </g>
    <g fill="none" stroke="#000">
                <path d="M1500.0 1400.0 L 1413.3974596215562 1450.0 v 100 L 1500.0 1600.0 L 1586.6025403784438 1550.0 v -100 L 1500.0 1400.0 "/>
                <circle cx="1500.0" cy="1500.0" r='70.0' stroke='black' fill="none" stroke-width="1"/>
    </g>
    <g fill="none" stroke="#000">
                <path d="M1673.2050807568878 1400.0 L 1586.602540378444 1450.0 v 100 L 1673.2050807568878 1600.0 L 1759.8076211353316 1550.0 v -100 L 1673.2050807568878 1400.0 "/>
                <circle cx="1673.2050807568878" cy="1500.0" r='70.0' stroke='black' fill="none" stroke-width="1"/>
    </g>
    <g fill="none" stroke="#000">
                <path d="M1413.3974596215562 1550.0 L 1326.7949192431124 1600.0 v 100 L 1413.3974596215562 1750.0 L 1500.0 1700.0 v -100 L 1413.3974596215562 1550.0 "/>
                <circle cx="1413.3974596215562" cy="1650.0" r='70.0' stroke='black' fill="none" stroke-width="1"/>
    </g>
    <g fill="none" stroke="#000">
                <path d="M1586.6025403784438 1550.0 L 1500.0 1600.0 v 100 L 1586.6025403784438 1750.0 L 1673.2050807568876 1700.0 v -100 L 1586.6025403784438 1550.0 "/>
                <circle cx="1586.6025403784438" cy="1650.0" r='70.0' stroke='black' fill="none" stroke-width="1"/>
    </g>
    <g fill="none" stroke="#000">
                <path d="M1673.2050807568878 1100.0 L 1586.602540378444 1150.0 v 100 L 1673.2050807568878 1300.0 L 1759.8076211353316 1250.0 v -100 L 1673.2050807568878 1100.0 "/>
    </g>
    <g fill="none" stroke="#000">
                <path d="M1759.8076211353316 1250.0 L 1673.2050807568878 1300.0 v 100 L 1759.8076211353316 1450.0 L 1846.4101615137754 1400.0 v -100 L 1759.8076211353316 1250.0 "/>
                <circle cx="1759.8076211353316" cy="1350.0" r='70.0' stroke='black' fill="none" stroke-width="1"/>
    </g>
    <g fill="none" stroke="#000">
                <path d="M1500.0 1400.0 L 1413.3974596215562 1450.0 v 100 L 1500.0 1600.0 L 1586.6025403784438 1550.0 v -100 L 1500.0 1400.0 "/>
                <circle cx="1500.0" cy="1500.0" r='70.0' stroke='black' fill="none" stroke-width="1"/>
    </g>
    <g fill="none" stroke="#000">
                <path d="M1673.2050807568878 1400.0 L 1586.602540378444 1450.0 v 100 L 1673.2050807568878 1600.0 L 1759.8076211353316 1550.0 v -100 L 1673.2050807568878 1400.0 "/>
                <circle cx="1673.2050807568878" cy="1500.0" r='70.0' stroke='black' fill="none" stroke-width="1"/>
    </g>
    <g fill="none" stroke="#000">
                <path d="M1413.3974596215562 1550.0 L 1326.7949192431124 1600.0 v 100 L 1413.3974596215562 1750.0 L 1500.0 1700.0 v -100 L 1413.3974596215562 1550.0 "/>
                <circle cx="1413.3974596215562" cy="1650.0" r='70.0' stroke='black' fill="none" stroke-width="1"/>
    </g>
    <g fill="none" stroke="#000">
                <path d="M1586.6025403784438 1550.0 L 1500.0 1600.0 v 100 L 1586.6025403784438 1750.0 L 1673.2050807568876 1700.0 v -100 L 1586.6025403784438 1550.0 "/>
                <circle cx="1586.6025403784438" cy="1650.0" r='70.0' stroke='black' fill="none" stroke-width="1"/>
    </g>
    <g fill="none" stroke="#000">
                <path d="M1673.2050807568878 1100.0 L 1586.602540378444 1150.0 v 100 L 1673.2050807568878 1300.0 L 1759.8076211353316 1250.0 v -100 L 1673.2050807568878 1100.0 "/>
    </g>
    <g fill="none" stroke="#000">
                <path d="M1759.8076211353316 1250.0 L 1673.2050807568878 1300.0 v 100 L 1759.8076211353316 1450.0 L 1846.4101615137754 1400.0 v -100 L 1759.8076211353316 1250.0 "/>
                <circle cx="1759.8076211353316" cy="1350.0" r='70.0' stroke='black' fill="none" stroke-width="1"/>
    </g>
    <g fill="none" stroke="#000">
                <path d="M1500.0 1400.0 L 1413.3974596215562 1450.0 v 100 L 1500.0 1600.0 L 1586.6025403784438 1550.0 v -100 L 1500.0 1400.0 "/>
                <circle cx="1500.0" cy="1500.0" r='70.0' stroke='black' fill="none" stroke-width="1"/>
    </g>
    <g fill="none" stroke="#000">
                <path d="M1673.2050807568878 1400.0 L 1586.602540378444 1450.0 v 100 L 1673.2050807568878 1600.0 L 1759.8076211353316 1550.0 v -100 L 1673.2050807568878 1400.0 "/>
                <circle cx="1673.2050807568878" cy="1500.0" r='70.0' stroke='black' fill="none" stroke-width="1"/>
    </g>
    <g fill="none" stroke="#000">
                <path d="M1413.3974596215562 1550.0 L 1326.7949192431124 1600.0 v 100 L 1413.3974596215562 1750.0 L 1500.0 1700.0 v -100 L 1413.3974596215562 1550.0 "/>
                <circle cx="1413.3974596215562" cy="1650.0" r='70.0' stroke='black' fill="none" stroke-width="1"/>
    </g>
    <g fill="none" stroke="#000">
                <path d="M1586.6025403784438 1550.0 L 1500.0 1600.0 v 100 L 1586.6025403784438 1750.0 L 1673.2050807568876 1700.0 v -100 L 1586.6025403784438 1550.0 "/>
                <circle cx="1586.6025403784438" cy="1650.0" r='70.0' stroke='black' fill="none" stroke-width="1"/>
    </g>
    <g fill="none" stroke="#000">
                <path d="M1673.2050807568878 1100.0 L 1586.602540378444 1150.0 v 100 L 1673.2050807568878 1300.0 L 1759.8076211353316 1250.0 v -100 L 1673.2050807568878 1100.0 "/>
    </g>
    <g fill="none" stroke="#000">
                <path d="M1759.8076211353316 1250.0 L 1673.2050807568878 1300.0 v 100 L 1759.8076211353316 1450.0 L 1846.4101615137754 1400.0 v -100 L 1759.8076211353316 1250.0 "/>
                <circle cx="1759.8076211353316" cy="1350.0" r='70.0' stroke='black' fill="none" stroke-width="1"/>
    </g>
    <g fill="none" stroke="#000">
                <path d="M1500.0 1400.0 L 1413.3974596215562 1450.0 v 100 L 1500.0 1600.0 L 1586.6025403784438 1550.0 v -100 L 1500.0 1400.0 "/>
                <circle cx="1500.0" cy="1500.0" r='70.0' stroke='black' fill="none" stroke-width="1"/>
    </g>
    <g fill="none" stroke="#000">
                <path d="M1673.2050807568878 1400.0 L 1586.602540378444 1450.0 v 100 L 1673.2050807568878 1600.0 L 1759.8076211353316 1550.0 v -100 L 1673.2050807568878 1400.0 "/>
                <circle cx="1673.2050807568878" cy="1500.0" r='70.0' stroke='black' fill="none" stroke-width="1"/>
    </g>
    <g fill="none" stroke="#000">
                <path d="M1413.3974596215562 1550.0 L 1326.7949192431124 1600.0 v 100 L 1413.3974596215562 1750.0 L 1500.0 1700.0 v -100 L 1413.3974596215562 1550.0 "/>
                <circle cx="1413.3974596215562" cy="1650.0" r='70.0' stroke='black' fill="none" stroke-width="1"/>
    </g>
    <g fill="none" stroke="#000">
                <path d="M1586.6025403784438 1550.0 L 1500.0 1600.0 v 100 L 1586.6025403784438 1750.0 L 1673.2050807568876 1700.0 v -100 L 1586.6025403784438 1550.0 "/>
                <circle cx="1586.6025403784438" cy="1650.0" r='70.0' stroke='black' fill="none" stroke-width="1"/>
    </g>
    <g fill="none" stroke="#000">
                <path d="M1673.2050807568878 1100.0 L 1586.602540378444 1150.0 v 100 L 1673.2050807568878 1300.0 L 1759.8076211353316 1250.0 v -100 L 1673.2050807568878 1100.0 "/>
    </g>
    <g fill="none" stroke="#000">
                <path d="M1759.8076211353316 1250.0 L 1673.2050807568878 1300.0 v 100 L 1759.8076211353316 1450.0 L 1846.4101615137754 1400.0 v -100 L 1759.8076211353316 1250.0 "/>
                <circle cx="1759.8076211353316" cy="1350.0" r='70.0' stroke='black' fill="none" stroke-width="1"/>
    </g>
    <g fill="none" stroke="#000">
                <path d="M1500.0 1400.0 L 1413.3974596215562 1450.0 v 100 L 1500.0 1600.0 L 1586.6025403784438 1550.0 v -100 L 1500.0 1400.0 "/>
                <circle cx="1500.0" cy="1500.0" r='70.0' stroke='black' fill="none" stroke-width="1"/>
    </g>
    <g fill="none" stroke="#000">
                <path d="M1673.2050807568878 1400.0 L 1586.602540378444 1450.0 v 100 L 1673.2050807568878 1600.0 L 1759.8076211353316 1550.0 v -100 L 1673.2050807568878 1400.0 "/>
                <circle cx="1673.2050807568878" cy="1500.0" r='70.0' stroke='black' fill="none" stroke-width="1"/>
    </g>
    <g fill="none" stroke="#000">
                <path d="M1413.3974596215562 1550.0 L 1326.7949192431124 1600.0 v 100 L 1413.3974596215562 1750.0 L 1500.0 1700.0 v -100 L 1413.3974596215562 1550.0 "/>
                <circle cx="1413.3974596215562" cy="1650.0" r='70.0' stroke='black' fill="none" stroke-width="1"/>
    </g>
    <g fill="none" stroke="#000">
                <path d="M1586.6025403784438 1550.0 L 1500.0 1600.0 v 100 L 1586.6025403784438 1750.0 L 1673.2050807568876 1700.0 v -100 L 1586.6025403784438 1550.0 "/>
                <circle cx="1586.6025403784438" cy="1650.0" r='70.0' stroke='black' fill="none" stroke-width="1"/>
    </g>
    <g fill="none" stroke="#000">
                <path d="M1673.2050807568878 1100.0 L 1586.602540378444 1150.0 v 100 L 1673.2050807568878 1300.0 L 1759.8076211353316 1250.0 v -100 L 1673.2050807568878 1100.0 "/>
    </g>
    <g fill="none" stroke="#000">
                <path d="M1759.8076211353316 1250.0 L 1673.2050807568878 1300.0 v 100 L 1759.8076211353316 1450.0 L 1846.4101615137754 1400.0 v -100 L 1759.8076211353316 1250.0 "/>
                <circle cx="1759.8076211353316" cy="1350.0" r='70.0' stroke='black' fill="none" stroke-width="1"/>
    </g>
    <g fill="none" stroke="#000">
                <path d="M1500.0 1400.0 L 1413.3974596215562 1450.0 v 100 L 1500.0 1600.0 L 1586.6025403784438 1550.0 v -100 L 1500.0 1400.0 "/>
                <circle cx="1500.0" cy="1500.0" r='70.0' stroke='black' fill="none" stroke-width="1"/>
    </g>
    <g fill="none" stroke="#000">
                <path d="M1673.2050807568878 1400.0 L 1586.602540378444 1450.0 v 100 L 1673.2050807568878 1600.0 L 1759.8076211353316 1550.0 v -100 L 1673.2050807568878 1400.0 "/>
                <circle cx="1673.2050807568878" cy="1500.0" r='70.0' stroke='black' fill="none" stroke-width="1"/>
    </g>
    <g fill="none" stroke="#000">
                <path d="M1413.3974596215562 1550.0 L 1326.7949192431124 1600.0 v 100 L 1413.3974596215562 1750.0 L 1500.0 1700.0 v -100 L 1413.3974596215562 1550.0 "/>
                <circle cx="1413.3974596215562" cy="1650.0" r='70.0' stroke='black' fill="none" stroke-width="1"/>
    </g>
    <g fill="none" stroke="#000">
                <path d="M1586.6025403784438 1550.0 L 1500.0 1600.0 v 100 L 1586.6025403784438 1750.0 L 1673.2050807568876 1700.0 v -100 L 1586.6025403784438 1550.0 "/>
                <circle cx="1586.6025403784438" cy="1650.0" r='70.0' stroke='black' fill="none" stroke-width="1"/>
    </g>
    <g fill="none" stroke="#000" transform='rotate(-210 1664.313358579445 1784.5990854218824)'>
                <path d="M1664.313358579445 1699.5340045866783 L 1583.4116591419504 1758.3125298159257  L 1614.313358579445 1853.418181445441 L 1714.313358579445 1853.418181445441  L 1745.2150580169398 1758.3125298159257 L 1664.313358579445 1699.5340045866783"/>
    </g>
    <g fill="none" stroke="#000" transform='rotate(-210 1664.313358579445 1784.5990854218824)'>
                <path d="M1664.313358579445 1699.5340045866783 L 1583.4116591419504 1758.3125298159257  L 1614.313358579445 1853.418181445441 L 1714.313358579445 1853.418181445441  L 1745.2150580169398 1758.3125298159257 L 1664.313358579445 1699.5340045866783"/>
    </g>
    <g fill="none" stroke="#000" transform='rotate(-210 1664.313358579445 1784.5990854218824)'>
                <path d="M1664.313358579445 1699.5340045866783 L 1583.4116591419504 1758.3125298159257  L 1614.313358579445 1853.418181445441 L 1714.313358579445 1853.418181445441  L 1745.2150580169398 1758.3125298159257 L 1664.313358579445 1699.5340045866783"/>
    </g>
    <g fill="none" stroke="#000" transform='rotate(-150 1335.686641420555 1784.5990854218824)'>
                <path d="M1335.686641420555 1699.5340045866783 L 1254.7849419830602 1758.3125298159257  L 1285.686641420555 1853.418181445441 L 1385.686641420555 1853.418181445441  L 1416.5883408580496 1758.3125298159257 L 1335.686641420555 1699.5340045866783"/>
    </g>
    </svg>
