<?xml version="1.0" encoding="UTF-8"?>
<svg version="1.1" viewBox="0 0 3000 3000" xmlns="http://www.w3.org/2000/svg">
<g fill="none" stroke="#000">
                <path d="M1586.6025403784438 950.0 L 1500.0 1000.0 v 100 L 1586.6025403784438 1150.0 L 1673.2050807568876 1100.0 v -100 L 1586.6025403784438 950.0 "/>
                <circle cx="1586.6025403784438" cy="1050.0" r='70.0' stroke='black' fill="none" stroke-width="1"/>
    </g>
    <g fill="none" stroke="#000">
                <path d="M1500.0 1100.0 L 1413.3974596215562 1150.0 v 100 L 1500.0 1300.0 L 1586.6025403784438 1250.0 v -100 L 1500.0 1100.0 "/>
                <circle cx="1500.0" cy="1200.0" r='70.0' stroke='black' fill="none" stroke-width="1"/>
    </g>
    <g fill="none" stroke="#000">
                <path d="M1586.6025403784438 1250.0 L 1500.0 1300.0 v 100 L 1586.6025403784438 1450.0 L 1673.2050807568876 1400.0 v -100 L 1586.6025403784438 1250.0 "/>
                <circle cx="1586.6025403784438" cy="1350.0" r='70.0' stroke='black' fill="none" stroke-width="1"/>
    </g>
    <g fill="none" stroke="#000">
                <path d="M1759.8076211353316 1250.0 L 1673.2050807568878 1300.0 v 100 L 1759.8076211353316 1450.0 L 1846.4101615137754 1400.0 v -100 L 1759.8076211353316 1250.0 "/>
                <circle cx="1759.8076211353316" cy="1350.0" r='70.0' stroke='black' fill="none" stroke-width="1"/>
    </g>
    <g fill="none" stroke="#000">
                <path d="M1500.0 1400.0 L 1413.3974596215562 1450.0 v 100 L 1500.0 1600.0 L 1586.6025403784438 1550.0 v -100 L 1500.0 1400.0 "/>
                <circle cx="1500.0" cy="1500.0" r='70.0' stroke='black' fill="none" stroke-width="1"/>
    </g>
    <g fill="none" stroke="#000">
                <path d="M1673.2050807568878 1400.0 L 1586.602540378444 1450.0 v 100 L 1673.2050807568878 1600.0 L 1759.8076211353316 1550.0 v -100 L 1673.2050807568878 1400.0 "/>
                <circle cx="1673.2050807568878" cy="1500.0" r='70.0' stroke='black' fill="none" stroke-width="1"/>
    </g>
    <g fill="none" stroke="#000">
                <path d="M1586.6025403784438 950.0 L 1500.0 1000.0 v 100 L 1586.6025403784438 1150.0 L 1673.2050807568876 1100.0 v -100 L 1586.6025403784438 950.0 "/>
                <circle cx="1586.6025403784438" cy="1050.0" r='70.0' stroke='black' fill="none" stroke-width="1"/>
    </g>
    <g fill="none" stroke="#000">
                <path d="M1326.7949192431122 1100.0 L 1240.1923788646684 1150.0 v 100 L 1326.7949192431122 1300.0 L 1413.397459621556 1250.0 v -100 L 1326.7949192431122 1100.0 "/>
    </g>
    <g fill="none" stroke="#000">
                <path d="M1500.0 1100.0 L 1413.3974596215562 1150.0 v 100 L 1500.0 1300.0 L 1586.6025403784438 1250.0 v -100 L 1500.0 1100.0 "/>
                <circle cx="1500.0" cy="1200.0" r='70.0' stroke='black' fill="none" stroke-width="1"/>
    </g>
    <g fill="none" stroke="#000">
                <path d="M1586.6025403784438 1250.0 L 1500.0 1300.0 v 100 L 1586.6025403784438 1450.0 L 1673.2050807568876 1400.0 v -100 L 1586.6025403784438 1250.0 "/>
                <circle cx="1586.6025403784438" cy="1350.0" r='70.0' stroke='black' fill="none" stroke-width="1"/>
    </g>
    <g fill="none" stroke="#000">
                <path d="M1759.8076211353316 1250.0 L 1673.2050807568878 1300.0 v 100 L 1759.8076211353316 1450.0 L 1846.4101615137754 1400.0 v -100 L 1759.8076211353316 1250.0 "/>
                <circle cx="1759.8076211353316" cy="1350.0" r='70.0' stroke='black' fill="none" stroke-width="1"/>
    </g>
    <g fill="none" stroke="#000">
                <path d="M1500.0 1400.0 L 1413.3974596215562 1450.0 v 100 L 1500.0 1600.0 L 1586.6025403784438 1550.0 v -100 L 1500.0 1400.0 "/>
                <circle cx="1500.0" cy="1500.0" r='70.0' stroke='black' fill="none" stroke-width="1"/>
    </g>
    <g fill="none" stroke="#000">
                <path d="M1673.2050807568878 1400.0 L 1586.602540378444 1450.0 v 100 L 1673.2050807568878 1600.0 L 1759.8076211353316 1550.0 v -100 L 1673.2050807568878 1400.0 "/>
                <circle cx="1673.2050807568878" cy="1500.0" r='70.0' stroke='black' fill="none" stroke-width="1"/>
    </g>
    <g fill="none" stroke="#000">
                <path d="M1586.6025403784438 950.0 L 1500.0 1000.0 v 100 L 1586.6025403784438 1150.0 L 1673.2050807568876 1100.0 v -100 L 1586.6025403784438 950.0 "/>
                <circle cx="1586.6025403784438" cy="1050.0" r='70.0' stroke='black' fill="none" stroke-width="1"/>
    </g>
    <g fill="none" stroke="#000">
                <path d="M1759.8076211353316 950.0 L 1673.2050807568878 1000.0 v 100 L 1759.8076211353316 1150.0 L 1846.4101615137754 1100.0 v -100 L 1759.8076211353316 950.0 "/>
    </g>
    <g fill="none" stroke="#000">
                <path d="M1326.7949192431122 1100.0 L 1240.1923788646684 1150.0 v 100 L 1326.7949192431122 1300.0 L 1413.397459621556 1250.0 v -100 L 1326.7949192431122 1100.0 "/>
    </g>
    <g fill="none" stroke="#000">
                <path d="M1500.0 1100.0 L 1413.3974596215562 1150.0 v 100 L 1500.0 1300.0 L 1586.6025403784438 1250.0 v -100 L 1500.0 1100.0 "/>
                <circle cx="1500.0" cy="1200.0" r='70.0' stroke='black' fill="none" stroke-width="1"/>
    </g>
    <g fill="none" stroke="#000">
                <path d="M1586.6025403784438 1250.0 L 1500.0 1300.0 v 100 L 1586.6025403784438 1450.0 L 1673.2050807568876 1400.0 v -100 L 1586.6025403784438 1250.0 "/>
                <circle cx="1586.6025403784438" cy="1350.0" r='70.0' stroke='black' fill="none" stroke-width="1"/>
    </g>
    <g fill="none" stroke="#000">
                <path d="M1759.8076211353316 1250.0 L 1673.2050807568878 1300.0 v 100 L 1759.8076211353316 1450.0 L 1846.4101615137754 1400.0 v -100 L 1759.8076211353316 1250.0 "/>
                <circle cx="1759.8076211353316" cy="1350.0" r='70.0' stroke='black' fill="none" stroke-width="1"/>
    </g>
    <g fill="none" stroke="#000">
                <path d="M1500.0 1400.0 L 1413.3974596215562 1450.0 v 100 L 1500.0 1600.0 L 1586.6025403784438 1550.0 v -100 L 1500.0 1400.0 "/>
                <circle cx="1500.0" cy="1500.0" r='70.0' stroke='black' fill="none" stroke-width="1"/>
    </g>
    <g fill="none" stroke="#000">
                <path d="M1673.2050807568878 1400.0 L 1586.602540378444 1450.0 v 100 L 1673.2050807568878 1600.0 L 1759.8076211353316 1550.0 v -100 L 1673.2050807568878 1400.0 "/>
                <circle cx="1673.2050807568878" cy="1500.0" r='70.0' stroke='black' fill="none" stroke-width="1"/>
    </g>
    <g fill="none" stroke="#000">
                <path d="M1586.6025403784438 950.0 L 1500.0 1000.0 v 100 L 1586.6025403784438 1150.0 L 1673.2050807568876 1100.0 v -100 L 1586.6025403784438 950.0 "/>
                <circle cx="1586.6025403784438" cy="1050.0" r='70.0' stroke='black' fill="none" stroke-width="1"/>
    </g>
    <g fill="none" stroke="#000">
                <path d="M1759.8076211353316 950.0 L 1673.2050807568878 1000.0 v 100 L 1759.8076211353316 1150.0 L 1846.4101615137754 1100.0 v -100 L 1759.8076211353316 950.0 "/>
    </g>
    <g fill="none" stroke="#000">
                <path d="M1326.7949192431122 1100.0 L 1240.1923788646684 1150.0 v 100 L 1326.7949192431122 1300.0 L 1413.397459621556 1250.0 v -100 L 1326.7949192431122 1100.0 "/>
    </g>
    <g fill="none" stroke="#000">
                <path d="M1500.0 1100.0 L 1413.3974596215562 1150.0 v 100 L 1500.0 1300.0 L 1586.6025403784438 1250.0 v -100 L 1500.0 1100.0 "/>
                <circle cx="1500.0" cy="1200.0" r='70.0' stroke='black' fill="none" stroke-width="1"/>
    </g>
    <g fill="none" stroke="#000">
                <path d="M1586.6025403784438 1250.0 L 1500.0 1300.0 v 100 L 1586.6025403784438 1450.0 L 1673.2050807568876 1400.0 v -100 L 1586.6025403784438 1250.0 "/>
                <circle cx="1586.6025403784438" cy="1350.0" r='70.0' stroke='black' fill="none" stroke-width="1"/>
    </g>
    <g fill="none" stroke="#000">
                <path d="M1759.8076211353316 1250.0 L 1673.2050807568878 1300.0 v 100 L 1759.8076211353316 1450.0 L 1846.4101615137754 1400.0 v -100 L 1759.8076211353316 1250.0 "/>
                <circle cx="1759.8076211353316" cy="1350.0" r='70.0' stroke='black' fill="none" stroke-width="1"/>
    </g>
    <g fill="none" stroke="#000">
                <path d="M1500.0 1400.0 L 1413.3974596215562 1450.0 v 100 L 1500.0 1600.0 L 1586.6025403784438 1550.0 v -100 L 1500.0 1400.0 "/>
                <circle cx="1500.0" cy="1500.0" r='70.0' stroke='black' fill="none" stroke-width="1"/>
    </g>
    <g fill="none" stroke="#000">
                <path d="M1673.2050807568878 1400.0 L 1586.602540378444 1450.0 v 100 L 1673.2050807568878 1600.0 L 1759.8076211353316 1550.0 v -100 L 1673.2050807568878 1400.0 "/>
                <circle cx="1673.2050807568878" cy="1500.0" r='70.0' stroke='black' fill="none" stroke-width="1"/>
    </g>
    <g fill="none" stroke="#000">
                <path d="M1586.6025403784438 950.0 L 1500.0 1000.0 v 100 L 1586.6025403784438 1150.0 L 1673.2050807568876 1100.0 v -100 L 1586.6025403784438 950.0 "/>
                <circle cx="1586.6025403784438" cy="1050.0" r='70.0' stroke='black' fill="none" stroke-width="1"/>
    </g>
    <g fill="none" stroke="#000">
                <path d="M1759.8076211353316 950.0 L 1673.2050807568878 1000.0 v 100 L 1759.8076211353316 1150.0 L 1846.4101615137754 1100.0 v -100 L 1759.8076211353316 950.0 "/>
    </g>
    <g fill="none" stroke="#000">
                <path d="M1326.7949192431122 1100.0 L 1240.1923788646684 1150.0 v 100 L 1326.7949192431122 1300.0 L 1413.397459621556 1250.0 v -100 L 1326.7949192431122 1100.0 "/>
    </g>
    <g fill="none" stroke="#000">
                <path d="M1500.0 1100.0 L 1413.3974596215562 1150.0 v 100 L 1500.0 1300.0 L 1586.6025403784438 1250.0 v -100 L 1500.0 1100.0 "/>
                <circle cx="1500.0" cy="1200.0" r='70.0' stroke='black' fill="none" stroke-width="1"/>
    </g>
    <g fill="none" stroke="#000">
                <path d="M1586.6025403784438 1250.0 L 1500.0 1300.0 v 100 L 1586.6025403784438 1450.0 L 1673.2050807568876 1400.0 v -100 L 1586.6025403784438 1250.0 "/>
                <circle cx="1586.6025403784438" cy="1350.0" r='70.0' stroke='black' fill="none" stroke-width="1"/>
    </g>
    <g fill="none" stroke="#000">
                <path d="M1759.8076211353316 1250.0 L 1673.2050807568878 1300.0 v 100 L 1759.8076211353316 1450.0 L 1846.4101615137754 1400.0 v -100 L 1759.8076211353316 1250.0 "/>
                <circle cx="1759.8076211353316" cy="1350.0" r='70.0' stroke='black' fill="none" stroke-width="1"/>
    </g>
    <g fill="none" stroke="#000">
                <path d="M1500.0 1400.0 L 1413.3974596215562 1450.0 v 100 L 1500.0 1600.0 L 1586.6025403784438 1550.0 v -100 L 1500.0 1400.0 "/>
                <circle cx="1500.0" cy="1500.0" r='70.0' stroke='black' fill="none" stroke-width="1"/>
    </g>
    <g fill="none" stroke="#000">
                <path d="M1673.2050807568878 1400.0 L 1586.602540378444 1450.0 v 100 L 1673.2050807568878 1600.0 L 1759.8076211353316 1550.0 v -100 L 1673.2050807568878 1400.0 "/>
                <circle cx="1673.2050807568878" cy="1500.0" r='70.0' stroke='black' fill="none" stroke-width="1"/>
    </g>
    <g fill="none" stroke="#000">
                <path d="M1586.6025403784438 950.0 L 1500.0 1000.0 v 100 L 1586.6025403784438 1150.0 L 1673.2050807568876 1100.0 v -100 L 1586.6025403784438 950.0 "/>
                <circle cx="1586.6025403784438" cy="1050.0" r='70.0' stroke='black' fill="none" stroke-width="1"/>
    </g>
    <g fill="none" stroke="#000">
                <path d="M1759.8076211353316 950.0 L 1673.2050807568878 1000.0 v 100 L 1759.8076211353316 1150.0 L 1846.4101615137754 1100.0 v -100 L 1759.8076211353316 950.0 "/>
    </g>
    <g fill="none" stroke="#000">
                <path d="M1326.7949192431122 1100.0 L 1240.1923788646684 1150.0 v 100 L 1326.7949192431122 1300.0 L 1413.397459621556 1250.0 v -100 L 1326.7949192431122 1100.0 "/>
    </g>
    <g fill="none" stroke="#000">
                <path d="M1500.0 1100.0 L 1413.3974596215562 1150.0 v 100 L 1500.0 1300.0 L 1586.6025403784438 1250.0 v -100 L 1500.0 1100.0 "/>
                <circle cx="1500.0" cy="1200.0" r='70.0' stroke='black' fill="none" stroke-width="1"/>
    </g>
    <g fill="none" stroke="#000">
                <path d="M1586.6025403784438 1250.0 L 1500.0 1300.0 v 100 L 1586.6025403784438 1450.0 L 1673.2050807568876 1400.0 v -100 L 1586.6025403784438 1250.0 "/>
                <circle cx="1586.6025403784438" cy="1350.0" r='70.0' stroke='black' fill="none" stroke-width="1"/>
    </g>
    <g fill="none" stroke="#000">
                <path d="M1759.8076211353316 1250.0 L 1673.2050807568878 1300.0 v 100 L 1759.8076211353316 1450.0 L 1846.4101615137754 1400.0 v -100 L 1759.8076211353316 1250.0 "/>
                <circle cx="1759.8076211353316" cy="1350.0" r='70.0' stroke='black' fill="none" stroke-width="1"/>
    </g>
    <g fill="none" stroke="#000">
                <path d="M1500.0 1400.0 L 1413.3974596215562 1450.0 v 100 L 1500.0 1600.0 L 1586.6025403784438 1550.0 v -100 L 1500.0 1400.0 "/>
                <circle cx="1500.0" cy="1500.0" r='70.0' stroke='black' fill="none" stroke-width="1"/>
    </g>
    <g fill="none" stroke="#000">
                <path d="M1673.2050807568878 1400.0 L 1586.602540378444 1450.0 v 100 L 1673.2050807568878 1600.0 L 1759.8076211353316 1550.0 v -100 L 1673.2050807568878 1400.0 "/>
                <circle cx="1673.2050807568878" cy="1500.0" r='70.0' stroke='black' fill="none" stroke-width="1"/>
    </g>
    <g fill="none" stroke="#000" transform='rotate(-330 1837.518439336333 1215.4009145781174)'>
                <path d="M1837.518439336333 1130.3358337429133 L 1756.6167398988382 1189.1143589721607  L 1787.518439336333 1284.220010601676 L 1887.518439336333 1284.220010601676  L 1918.4201387738276 1189.1143589721607 L 1837.518439336333 1130.3358337429133"/>
    </g>
    </svg>
