<?xml version="1.0" encoding="UTF-8"?>
<svg version="1.1" viewBox="0 0 3000 3000" xmlns="http://www.w3.org/2000/svg">
<g fill="none" stroke="#000">
                <path d="M1500.0 1100.0 L 1413.3974596215562 1150.0 v 100 L 1500.0 1300.0 L 1586.6025403784438 1250.0 v -100 L 1500.0 1100.0 "/>
                <circle cx="1500.0" cy="1200.0" r='70.0' stroke='black' fill="none" stroke-width="1"/>
    </g>
    <g fill="none" stroke="#000">
                <path d="M1413.3974596215562 1250.0 L 1326.7949192431124 1300.0 v 100 L 1413.3974596215562 1450.0 L 1500.0 1400.0 v -100 L 1413.3974596215562 1250.0 "/>
                <circle cx="1413.3974596215562" cy="1350.0" r='70.0' stroke='black' fill="none" stroke-width="1"/>
    </g>
    <g fill="none" stroke="#000">
                <path d="M1326.7949192431122 1400.0 L 1240.1923788646684 1450.0 v 100 L 1326.7949192431122 1600.0 L 1413.397459621556 1550.0 v -100 L 1326.7949192431122 1400.0 "/>
                <circle cx="1326.7949192431122" cy="1500.0" r='70.0' stroke='black' fill="none" stroke-width="1"/>
    </g>
    <g fill="none" stroke="#000">
                <path d="M1500.0 1400.0 L 1413.3974596215562 1450.0 v 100 L 1500.0 1600.0 L 1586.6025403784438 1550.0 v -100 L 1500.0 1400.0 "/>
                <circle cx="1500.0" cy="1500.0" r='70.0' stroke='black' fill="none" stroke-width="1"/>
    </g>
    <g fill="none" stroke="#000">
                <path d="M1500.0 1100.0 L 1413.3974596215562 1150.0 v 100 L 1500.0 1300.0 L 1586.6025403784438 1250.0 v -100 L 1500.0 1100.0 "/>
                <circle cx="1500.0" cy="1200.0" r='70.0' stroke='black' fill="none" stroke-width="1"/>
    </g>
    <g fill="none" stroke="#000">
                <path d="M1413.3974596215562 1250.0 L 1326.7949192431124 1300.0 v 100 L 1413.3974596215562 1450.0 L 1500.0 1400.0 v -100 L 1413.3974596215562 1250.0 "/>
                <circle cx="1413.3974596215562" cy="1350.0" r='70.0' stroke='black' fill="none" stroke-width="1"/>
    </g>
    <g fill="none" stroke="#000">
                <path d="M1153.5898384862246 1400.0 L 1066.9872981077808 1450.0 v 100 L 1153.5898384862246 1600.0 L 1240.1923788646684 1550.0 v -100 L 1153.5898384862246 1400.0 "/>
    </g>
    <g fill="none" stroke="#000">
                <path d="M1326.7949192431122 1400.0 L 1240.1923788646684 1450.0 v 100 L 1326.7949192431122 1600.0 L 1413.397459621556 1550.0 v -100 L 1326.7949192431122 1400.0 "/>
                <circle cx="1326.7949192431122" cy="1500.0" r='70.0' stroke='black' fill="none" stroke-width="1"/>
    </g>
    <g fill="none" stroke="#000">
                <path d="M1500.0 1400.0 L 1413.3974596215562 1450.0 v 100 L 1500.0 1600.0 L 1586.6025403784438 1550.0 v -100 L 1500.0 1400.0 "/>
                <circle cx="1500.0" cy="1500.0" r='70.0' stroke='black' fill="none" stroke-width="1"/>
    </g>
    <g fill="none" stroke="#000">
                <path d="M1500.0 1100.0 L 1413.3974596215562 1150.0 v 100 L 1500.0 1300.0 L 1586.6025403784438 1250.0 v -100 L 1500.0 1100.0 "/>
                <circle cx="1500.0" cy="1200.0" r='70.0' stroke='black' fill="none" stroke-width="1"/>
    </g>
    <g fill="none" stroke="#000">
                <path d="M1413.3974596215562 1250.0 L 1326.7949192431124 1300.0 v 100 L 1413.3974596215562 1450.0 L 1500.0 1400.0 v -100 L 1413.3974596215562 1250.0 "/>
                <circle cx="1413.3974596215562" cy="1350.0" r='70.0' stroke='black' fill="none" stroke-width="1"/>
    </g>
    <g fill="none" stroke="#000">
                <path d="M1153.5898384862246 1400.0 L 1066.9872981077808 1450.0 v 100 L 1153.5898384862246 1600.0 L 1240.1923788646684 1550.0 v -100 L 1153.5898384862246 1400.0 "/>
    </g>
    <g fill="none" stroke="#000">
                <path d="M1326.7949192431122 1400.0 L 1240.1923788646684 1450.0 v 100 L 1326.7949192431122 1600.0 L 1413.397459621556 1550.0 v -100 L 1326.7949192431122 1400.0 "/>
                <circle cx="1326.7949192431122" cy="1500.0" r='70.0' stroke='black' fill="none" stroke-width="1"/>
    </g>
    <g fill="none" stroke="#000">
                <path d="M1500.0 1400.0 L 1413.3974596215562 1450.0 v 100 L 1500.0 1600.0 L 1586.6025403784438 1550.0 v -100 L 1500.0 1400.0 "/>
                <circle cx="1500.0" cy="1500.0" r='70.0' stroke='black' fill="none" stroke-width="1"/>
    </g>
    <g fill="none" stroke="#000">
                <path d="M1673.2050807568878 1400.0 L 1586.602540378444 1450.0 v 100 L 1673.2050807568878 1600.0 L 1759.8076211353316 1550.0 v -100 L 1673.2050807568878 1400.0 "/>
    </g>
    <g fill="none" stroke="#000">
                <path d="M1586.6025403784438 950.0 L 1500.0 1000.0 v 100 L 1586.6025403784438 1150.0 L 1673.2050807568876 1100.0 v -100 L 1586.6025403784438 950.0 "/>
    </g>
    <g fill="none" stroke="#000">
                <path d="M1500.0 1100.0 L 1413.3974596215562 1150.0 v 100 L 1500.0 1300.0 L 1586.6025403784438 1250.0 v -100 L 1500.0 1100.0 "/>
                <circle cx="1500.0" cy="1200.0" r='70.0' stroke='black' fill="none" stroke-width="1"/>
    </g>
    <g fill="none" stroke="#000">
                <path d="M1413.3974596215562 1250.0 L 1326.7949192431124 1300.0 v 100 L 1413.3974596215562 1450.0 L 1500.0 1400.0 v -100 L 1413.3974596215562 1250.0 "/>
                <circle cx="1413.3974596215562" cy="1350.0" r='70.0' stroke='black' fill="none" stroke-width="1"/>
    </g>
    <g fill="none" stroke="#000">
                <path d="M1153.5898384862246 1400.0 L 1066.9872981077808 1450.0 v 100 L 1153.5898384862246 1600.0 L 1240.1923788646684 1550.0 v -100 L 1153.5898384862246 1400.0 "/>
    </g>
    <g fill="none" stroke="#000">
                <path d="M1326.7949192431122 1400.0 L 1240.1923788646684 1450.0 v 100 L 1326.7949192431122 1600.0 L 1413.397459621556 1550.0 v -100 L 1326.7949192431122 1400.0 "/>
                <circle cx="1326.7949192431122" cy="1500.0" r='70.0' stroke='black' fill="none" stroke-width="1"/>
    </g>
    <g fill="none" stroke="#000">
                <path d="M1500.0 1400.0 L 1413.3974596215562 1450.0 v 100 L 1500.0 1600.0 L 1586.6025403784438 1550.0 v -100 L 1500.0 1400.0 "/>
                <circle cx="1500.0" cy="1500.0" r='70.0' stroke='black' fill="none" stroke-width="1"/>
    </g>
    <g fill="none" stroke="#000">
                <path d="M1673.2050807568878 1400.0 L 1586.602540378444 1450.0 v 100 L 1673.2050807568878 1600.0 L 1759.8076211353316 1550.0 v -100 L 1673.2050807568878 1400.0 "/>
    </g>
    <g fill="none" stroke="#000">
                <path d="M1586.6025403784438 950.0 L 1500.0 1000.0 v 100 L 1586.6025403784438 1150.0 L 1673.2050807568876 1100.0 v -100 L 1586.6025403784438 950.0 "/>
    </g>
    <g fill="none" stroke="#000">
                <path d="M1500.0 1100.0 L 1413.3974596215562 1150.0 v 100 L 1500.0 1300.0 L 1586.6025403784438 1250.0 v -100 L 1500.0 1100.0 "/>
                <circle cx="1500.0" cy="1200.0" r='70.0' stroke='black' fill="none" stroke-width="1"/>
    </g>
    <g fill="none" stroke="#000">
                <path d="M1413.3974596215562 1250.0 L 1326.7949192431124 1300.0 v 100 L 1413.3974596215562 1450.0 L 1500.0 1400.0 v -100 L 1413.3974596215562 1250.0 "/>
                <circle cx="1413.3974596215562" cy="1350.0" r='70.0' stroke='black' fill="none" stroke-width="1"/>
    </g>
    <g fill="none" stroke="#000">
                <path d="M1153.5898384862246 1400.0 L 1066.9872981077808 1450.0 v 100 L 1153.5898384862246 1600.0 L 1240.1923788646684 1550.0 v -100 L 1153.5898384862246 1400.0 "/>
    </g>
    <g fill="none" stroke="#000">
                <path d="M1326.7949192431122 1400.0 L 1240.1923788646684 1450.0 v 100 L 1326.7949192431122 1600.0 L 1413.397459621556 1550.0 v -100 L 1326.7949192431122 1400.0 "/>
                <circle cx="1326.7949192431122" cy="1500.0" r='70.0' stroke='black' fill="none" stroke-width="1"/>
    </g>
    <g fill="none" stroke="#000">
                <path d="M1500.0 1400.0 L 1413.3974596215562 1450.0 v 100 L 1500.0 1600.0 L 1586.6025403784438 1550.0 v -100 L 1500.0 1400.0 "/>
                <circle cx="1500.0" cy="1500.0" r='70.0' stroke='black' fill="none" stroke-width="1"/>
    </g>
    <g fill="none" stroke="#000">
                <path d="M1673.2050807568878 1400.0 L 1586.602540378444 1450.0 v 100 L 1673.2050807568878 1600.0 L 1759.8076211353316 1550.0 v -100 L 1673.2050807568878 1400.0 "/>
    </g>
    <g fill="none" stroke="#000">
                <path d="M1586.6025403784438 950.0 L 1500.0 1000.0 v 100 L 1586.6025403784438 1150.0 L 1673.2050807568876 1100.0 v -100 L 1586.6025403784438 950.0 "/>
    </g>
    <g fill="none" stroke="#000">
                <path d="M1500.0 1100.0 L 1413.3974596215562 1150.0 v 100 L 1500.0 1300.0 L 1586.6025403784438 1250.0 v -100 L 1500.0 1100.0 "/>
                <circle cx="1500.0" cy="1200.0" r='70.0' stroke='black' fill="none" stroke-width="1"/>
    </g>
    <g fill="none" stroke="#000">
                <path d="M1413.3974596215562 1250.0 L 1326.7949192431124 1300.0 v 100 L 1413.3974596215562 1450.0 L 1500.0 1400.0 v -100 L 1413.3974596215562 1250.0 "/>
                <circle cx="1413.3974596215562" cy="1350.0" r='70.0' stroke='black' fill="none" stroke-width="1"/>
    </g>
    <g fill="none" stroke="#000">
                <path d="M1153.5898384862246 1400.0 L 1066.9872981077808 1450.0 v 100 L 1153.5898384862246 1600.0 L 1240.1923788646684 1550.0 v -100 L 1153.5898384862246 1400.0 "/>
    </g>
    <g fill="none" stroke="#000">
                <path d="M1326.7949192431122 1400.0 L 1240.1923788646684 1450.0 v 100 L 1326.7949192431122 1600.0 L 1413.397459621556 1550.0 v -100 L 1326.7949192431122 1400.0 "/>
                <circle cx="1326.7949192431122" cy="1500.0" r='70.0' stroke='black' fill="none" stroke-width="1"/>
    </g>
    <g fill="none" stroke="#000">
                <path d="M1500.0 1400.0 L 1413.3974596215562 1450.0 v 100 L 1500.0 1600.0 L 1586.6025403784438 1550.0 v -100 L 1500.0 1400.0 "/>
                <circle cx="1500.0" cy="1500.0" r='70.0' stroke='black' fill="none" stroke-width="1"/>
    </g>
    <g fill="none" stroke="#000">
                <path d="M1673.2050807568878 1400.0 L 1586.602540378444 1450.0 v 100 L 1673.2050807568878 1600.0 L 1759.8076211353316 1550.0 v -100 L 1673.2050807568878 1400.0 "/>
    </g>
    </svg>
